<?xml version="1.0" encoding="utf-8"?>
<!-- Generator: Adobe Illustrator 26.2.1, SVG Export Plug-In . SVG Version: 6.00 Build 0)  -->
<svg version="1.1" id="Layer_1" xmlns="http://www.w3.org/2000/svg" xmlns:xlink="http://www.w3.org/1999/xlink" x="0px" y="0px"
	 viewBox="0 0 40 60" style="enable-background:new 0 0 40 60;" xml:space="preserve">
<style type="text/css">
	.st0{fill:#F3953F;}
	.st1{fill:#FBBE5E;}
	.st2{fill:#C51315;}
	.st3{fill:#FFDE0D;}
</style>
<g>
	<g>
		<g>
			<rect x="4.56" y="9.11" class="st0" width="2.4" height="23.31"/>
			<rect x="2.71" y="9.11" class="st1" width="2.83" height="23.31"/>
		</g>
		<g>
			<rect x="8.8" y="7.7" class="st0" width="2.4" height="23.31"/>
			<rect x="6.96" y="7.7" class="st1" width="2.83" height="23.31"/>
		</g>
		<g>
			<rect x="13.12" y="6.07" class="st0" width="2.4" height="23.31"/>
			<rect x="11.28" y="6.07" class="st1" width="2.83" height="23.31"/>
		</g>
		<g>
			<rect x="17.41" y="4.17" class="st0" width="2.4" height="23.31"/>
			<rect x="15.56" y="4.17" class="st1" width="2.83" height="23.31"/>
		</g>
		<g>
			<rect x="21.73" y="3.82" class="st0" width="2.4" height="23.31"/>
			<rect x="19.89" y="3.82" class="st1" width="2.83" height="23.31"/>
		</g>
		<g>
			<rect x="26.01" y="5.03" class="st0" width="2.4" height="23.31"/>
			<rect x="24.17" y="5.03" class="st1" width="2.83" height="23.31"/>
		</g>
		<g>
			<rect x="30.26" y="6.66" class="st0" width="2.4" height="23.31"/>
			<rect x="28.41" y="6.66" class="st1" width="2.83" height="23.31"/>
		</g>
		<g>
			<rect x="34.6" y="7.95" class="st0" width="2.4" height="23.31"/>
			<rect x="32.76" y="7.95" class="st1" width="2.83" height="23.31"/>
		</g>
	</g>
	<g>
		<g>
			<rect x="3.06" y="12.58" class="st0" width="2.07" height="20.11"/>
			<rect x="1.47" y="12.58" class="st1" width="2.44" height="20.11"/>
		</g>
		<g>
			<rect x="6.79" y="12.58" class="st0" width="2.07" height="20.11"/>
			<rect x="5.2" y="12.58" class="st1" width="2.44" height="20.11"/>
		</g>
		<g>
			<rect x="10.45" y="12.58" class="st0" width="2.07" height="20.11"/>
			<rect x="8.86" y="12.58" class="st1" width="2.44" height="20.11"/>
		</g>
		<g>
			<rect x="14.18" y="12.58" class="st0" width="2.07" height="20.11"/>
			<rect x="12.59" y="12.58" class="st1" width="2.44" height="20.11"/>
		</g>
		<g>
			<rect x="17.88" y="12.58" class="st0" width="2.07" height="20.11"/>
			<rect x="16.29" y="12.58" class="st1" width="2.44" height="20.11"/>
		</g>
		<g>
			<rect x="21.61" y="12.58" class="st0" width="2.07" height="20.11"/>
			<rect x="20.02" y="12.58" class="st1" width="2.44" height="20.11"/>
		</g>
		<g>
			<rect x="25.3" y="12.58" class="st0" width="2.07" height="20.11"/>
			<rect x="23.71" y="12.58" class="st1" width="2.44" height="20.11"/>
		</g>
		<g>
			<rect x="28.96" y="12.58" class="st0" width="2.07" height="20.11"/>
			<rect x="27.37" y="12.58" class="st1" width="2.44" height="20.11"/>
		</g>
		<g>
			<rect x="32.71" y="12.58" class="st0" width="2.07" height="20.11"/>
			<rect x="31.12" y="12.58" class="st1" width="2.44" height="20.11"/>
		</g>
		<g>
			<rect x="36.46" y="12.58" class="st0" width="2.07" height="20.11"/>
			<rect x="34.86" y="12.58" class="st1" width="2.44" height="20.11"/>
		</g>
	</g>
	<g>
		<g>
			<rect x="10.34" y="16.23" class="st0" width="3.06" height="29.72"/>
			<rect x="7.99" y="16.23" class="st1" width="3.61" height="29.72"/>
		</g>
		<g>
			<rect x="15.8" y="14.49" class="st0" width="3.06" height="29.72"/>
			<rect x="13.45" y="14.49" class="st1" width="3.61" height="29.72"/>
		</g>
		<g>
			<rect x="21.31" y="18.31" class="st0" width="3.06" height="29.72"/>
			<polygon class="st1" points="22.57,48.03 18.96,46.99 18.96,18.31 22.57,18.31 			"/>
		</g>
		<g>
			<rect x="26.78" y="15.88" class="st0" width="3.06" height="29.72"/>
			<rect x="24.42" y="15.88" class="st1" width="3.61" height="29.72"/>
		</g>
	</g>
	<g>
		<g>
			<polygon class="st2" points="29.1,17.78 29.1,24.13 10.9,24.13 10.9,17.78 0.8,17.78 0.8,56.18 39.2,56.18 39.2,17.78 			"/>
		</g>
		<g>
			<rect x="7.93" y="35.96" class="st3" width="8.1" height="7.04"/>
			
				<rect x="23.97" y="35.96" transform="matrix(-1 -4.490687e-11 4.490687e-11 -1 56.0475 78.9588)" class="st3" width="8.1" height="7.04"/>
			<rect x="10.9" y="34.08" class="st3" width="18.2" height="10.81"/>
		</g>
	</g>
</g>
</svg>
