<?xml version="1.0" encoding="utf-8"?>
<!-- Generator: Adobe Illustrator 26.2.1, SVG Export Plug-In . SVG Version: 6.00 Build 0)  -->
<svg version="1.1" id="Layer_1" xmlns="http://www.w3.org/2000/svg" xmlns:xlink="http://www.w3.org/1999/xlink" x="0px" y="0px"
	 viewBox="0 0 170 230" style="enable-background:new 0 0 170 230;" xml:space="preserve">
<style type="text/css">
	.st0{fill:#856A60;}
	.st1{fill:#E67900;}
	.st2{fill:#F18815;}
	.st3{fill:#F39325;}
	.st4{fill:#FFDA6F;}
	.st5{fill:#CA4C36;}
	.st6{fill:#FCC978;}
	.st7{fill:#87BE73;}
	.st8{fill:#FFFFFF;}
</style>
<g>
	<g>
		<g>
			<g>
				<g>
					<path class="st0" d="M40.04,89.78l11.57-13.57c1.3-1.6,2.12-3.9,2.12-5.06l-0.04-1.23c0-1.6-2.08-3.2-3.64-3.2h-1
						c-1.6,0-3.35,1.6-3.35,3.2v0.71h-4.35v-1c0-4.16,3.53-7.33,8.29-7.33c6.58,0,9.59,3.9,9.59,8.11c0,2.86-0.59,4.65-2.53,6.88
						c-1.15,1.3-3.23,3.46-6.99,7.21h9.07v5.28L40.04,89.78L40.04,89.78z"/>
					<path class="st0" d="M73.62,89.78c-3.68,0-6.99-1.75-6.99-6.66v-13.8c0-4.95,4.95-6.69,8.25-6.69h1.71
						c4.02,0,8.25,1.78,8.25,6.73v13.42c0,4.05-2.75,6.99-7.36,6.99L73.62,89.78L73.62,89.78z M76.11,84.79
						c1.64,0,2.12-1.64,2.12-3.27v-12.2c0-1.67-0.52-3.35-2.08-3.35h-1.64c-1.64,0-2.94,1.67-2.94,3.35v12.2
						c0,1.64-0.33,3.27,2.97,3.27H76.11z"/>
					<path class="st0" d="M102.07,62.63v27.15h-6.69V67.69h-3.46v-5.06H102.07z"/>
					<path class="st0" d="M127.54,81.63c0,6.47-4.65,7.96-6.88,8.37c-0.74,0.19-3.53,0.45-5.28,0.04c-0.82-0.11-3.35-0.78-5.24-2.16
						v-5.06c0.71,1.12,2.79,2.53,4.87,3.23c0.82,0.3,2.79,0.48,3.5,0.37c2.31-0.3,3.05-2.49,3.05-4.13c0-1.9-0.41-4.2-3.23-5.17
						c-2.75-0.97-5.84-0.74-8.11-0.63V62.62h15.73v5.32h-12.01v4.02c1.67-0.04,2.75,0.04,4.35,0.22
						C122.89,72.78,127.54,75.01,127.54,81.63z"/>
				</g>
			</g>
		</g>
		<g>
			<g>
				<rect x="45.3" y="4.63" class="st1" width="81.37" height="20.85"/>
				<rect x="32.59" y="14.14" class="st2" width="106.8" height="20.85"/>
				<rect x="22.42" y="24.17" class="st3" width="127.14" height="20.85"/>
			</g>
			<rect x="50.25" y="16.96" class="st4" width="5.09" height="5.09"/>
			<rect x="99.18" y="11.24" class="st4" width="5.09" height="5.09"/>
			<rect x="109.67" y="22.18" class="st4" width="5.09" height="5.09"/>
			<rect x="115.67" y="36.19" class="st4" width="5.09" height="5.09"/>
			<rect x="90.99" y="31.32" class="st4" width="3.05" height="3.05"/>
			<rect x="38.69" y="33.27" class="st4" width="3.05" height="3.05"/>
			<rect x="128.71" y="19.08" class="st4" width="3.05" height="3.05"/>
		</g>
		<g>
			<g>
				<rect x="45.31" y="125.44" class="st1" width="81.37" height="19.02"/>
				<rect x="32.59" y="119.51" class="st2" width="106.8" height="19.02"/>
				<rect x="22.42" y="116.66" class="st3" width="127.14" height="13.94"/>
			</g>
		</g>
		<rect x="22.42" y="49.35" class="st5" width="127.14" height="5.09"/>
		<rect x="22.42" y="96.68" class="st6" width="127.14" height="5.09"/>
		<rect x="22.42" y="106.67" class="st7" width="127.14" height="5.09"/>
	</g>
	<g>
		<g>
			<path class="st0" d="M3.92,185.33v7.24h5.59v2.84H1.1v-12.67h7.96v2.6H3.92V185.33z M15.41,181.21h2.68v18.17h-2.68v-9.31h-1.83
				l0.04,9.31h-2.79v-18.17h2.75v6.07h1.83V181.21z"/>
			<path class="st0" d="M29.27,182.34h3.54v2.02h-1.58c0.51,0.53,0.81,1.25,0.81,2.02v2.29c0,1.85-1.36,3.17-2.93,3.17h-2.73
				c-1.56,0-2.95-1.3-2.95-2.95v-2.51c0-0.77,0.31-1.5,0.81-2.02H22.7v-2.02h3.54v-1.25h3.01v1.25H29.27z M24.21,193.07h13.25v2.51
				c-0.07,1.08-0.24,2.09-0.48,2.82c-0.13,0.42-0.26,0.81-0.42,1.19h-2.71c0.51-0.97,0.75-1.96,0.86-2.73
				c0.07-0.44,0.09-0.86,0.09-1.28H24.22v-2.51H24.21z M29.49,186.96c0-0.7-0.53-1.23-1.25-1.23h-0.92c-0.7,0-1.34,0.53-1.34,1.23
				v1.41c0,0.73,0.42,1.25,1.12,1.25h1.23c0.73,0,1.17-0.53,1.17-1.25v-1.41H29.49z M39.85,184.82v2.6h-2.49v3.85h-2.62v-10.21h2.62
				v3.76L39.85,184.82L39.85,184.82z"/>
			<path class="st0" d="M59.01,196.92H43.37v-2.55h2.84v-4.27h2.27v4.27h1.98v-4.27h2.2v4.27h6.36L59.01,196.92L59.01,196.92z
				 M58.02,182.2v2.18c0,3.1-0.51,5.41-1.01,6.93c-0.29,0.9-0.64,1.67-1.01,2.29h-2.86c1.83-3.41,1.92-7.2,1.74-8.76H44.6v-2.64
				L58.02,182.2L58.02,182.2z"/>
			<path class="st0" d="M78.83,186.25c0,2.75,0.86,4.64,3.43,6.29v2.97c-0.59-0.29-1.17-0.62-1.76-1.01
				c-0.99-0.68-2.24-1.69-3.21-3.17c-0.86,1.47-2.16,2.49-3.23,3.17c-0.64,0.4-1.28,0.73-1.96,1.01v-2.95
				c2.62-1.32,3.7-3.41,3.7-6.32v-3.65h3.04v3.66H78.83z M87.46,199.59h-3.12v-18.28h3.12V199.59z"/>
			<path class="st0" d="M100.85,182.42v2.05c0.02,2.09-0.55,3.87-1.14,5.13c-0.35,0.75-0.75,1.41-1.19,2h-3.04
				c2.07-2.82,2.31-5.39,2.31-6.75h-6.16v-2.42h9.22V182.42z M93.04,193.07h13.25v2.51c-0.07,1.08-0.24,2.09-0.48,2.82
				c-0.13,0.42-0.26,0.81-0.42,1.19h-2.71c0.51-0.97,0.75-1.96,0.86-2.73c0.07-0.44,0.09-0.86,0.09-1.28H93.05v-2.51H93.04z
				 M108.69,184.82v2.6h-2.49v3.85h-2.62v-10.21h2.62v3.76L108.69,184.82L108.69,184.82z"/>
			<path class="st0" d="M115.48,185.59v7.35h7.11v2.77h-9.95v-12.7h9.42v2.57h-6.58V185.59z M127.58,199.54h-2.99v-18.46h2.99
				V199.54z"/>
			<path class="st0" d="M138.85,185.26c-0.09,1.32-0.15,6.38,3.48,7.61v2.55c-0.73-0.18-1.43-0.44-2.07-0.79
				c-1.1-0.57-2.33-1.63-2.86-3.23c-0.55,1.76-1.76,2.73-2.88,3.32c-0.64,0.33-1.34,0.57-2.07,0.7v-2.55
				c3.63-1.23,3.48-6.29,3.39-7.61h-3.41v-2.46h9.95v2.46L138.85,185.26L138.85,185.26z M147.14,187.27h2.75v2.84h-2.75v9.51h-3.06
				v-18.29h3.06V187.27z"/>
			<path class="st0" d="M162.78,184.6v3.17c0,1.76-1.41,3.19-3.08,3.19h-2.99c-1.67,0-3.19-1.43-3.19-3.19v-3.17
				c0-1.78,1.52-3.17,3.19-3.17h2.99C161.38,181.43,162.78,182.82,162.78,184.6z M155.5,199.37v-6.27h3.01v3.59h9.95v2.68H155.5z
				 M160.05,185.22c0-0.77-0.57-1.34-1.34-1.34h-1.03c-0.77,0-1.43,0.57-1.43,1.34v1.92c0,0.79,0.66,1.36,1.43,1.36h1.03
				c0.77,0,1.34-0.57,1.34-1.36V185.22z M168.46,192.83h-2.93v-11.77h2.93V192.83z"/>
			<path class="st0" d="M41.3,208.91v2.68c0,5.79-2.09,8.12-2.4,8.49h3.83v-12.63h3.08v5.13h2.07v2.9h-2.07v10.5h-3.08v-3.32h-13.4
				v-2.58h4v-3.52h2.35v3.52h0.48c1.69-3.23,1.87-7.06,1.87-8.58h-7.55v-2.6H41.3V208.91z"/>
			<path class="st0" d="M58.09,211.49c-0.09,1.3-0.26,7.02,3.41,8.25v2.57c-0.7-0.13-1.36-0.37-2-0.73
				c-1.08-0.59-2.33-1.58-2.97-3.34c-0.53,1.65-1.74,2.64-2.79,3.26c-0.64,0.37-1.3,0.64-2,0.81v-2.57
				c3.65-1.25,3.34-6.95,3.26-8.25h-3.48v-2.35h10.25v2.35H58.09z M62.79,207.46h2.68v18.53h-2.68v-9.15H60.3v-3.12h2.49V207.46z
				 M69.42,207.46v18.53h-2.64v-18.53H69.42z"/>
			<path class="st0" d="M94.17,208.6v2.55h-3.98c0.42,1.14,1.32,2.13,2.18,2.84c0.48,0.42,1.01,0.79,1.56,1.12v2.71
				c-1.3-0.42-2.46-1.39-3.34-2.27c-0.51-0.51-0.99-1.08-1.43-1.67c-0.73,1.39-2.02,2.38-3.15,3.01c-0.66,0.37-1.34,0.7-2.05,0.95
				v-2.55c2.55-1.25,3.65-3.1,4.05-4.14h-4.29v-2.55L94.17,208.6L94.17,208.6z M85.23,219.47h13.25v2.51
				c-0.07,1.08-0.24,2.09-0.48,2.82c-0.13,0.42-0.26,0.81-0.42,1.19h-2.71c0.51-0.97,0.75-1.96,0.86-2.73
				c0.07-0.44,0.09-0.86,0.09-1.28H85.24v-2.51H85.23z M100.88,211.22v2.6h-2.49v3.85h-2.62v-10.21h2.62v3.76L100.88,211.22
				L100.88,211.22z"/>
			<path class="st0" d="M110.29,208.34c1.58,0,2.95,1.3,2.95,2.95v2.99c0,1.61-1.36,2.95-2.95,2.95h-2.82
				c-1.56,0-2.97-1.34-2.97-2.95v-2.99c0-1.65,1.45-2.95,3.01-2.95H110.29z M110.64,211.88c0-0.73-0.53-1.25-1.25-1.25h-0.95
				c-0.7,0-1.36,0.53-1.36,1.25v1.8c0,0.73,0.66,1.28,1.36,1.28h0.95c0.73,0,1.25-0.55,1.25-1.28V211.88z M107.47,226.19v-7.22h2.82
				v1.52h7.04v-1.52h2.64v7.22H107.47z M117.33,224.25v-1.72h-7.04v1.72H117.33z M119.97,207.48v10.3h-2.73v-3.63h-2.95v-2.57h2.95
				v-4.09L119.97,207.48L119.97,207.48z"/>
			<path class="st0" d="M140.45,217.12h-6.54v1.21h4.88v4.88h-10.3v0.9h10.52v1.91H125.9v-4.93h9.77v-1.01h-9.77v-1.76h5.26v-1.21
				h-6.58v-2.02h15.86v2.03H140.45z M138.69,207.48v6.36h-12.56v-6.36H138.69z M136.49,209.75h-8.12v1.83h8.12V209.75z"/>
		</g>
	</g>
	<g>
		<g>
			<rect x="105.41" y="-14.99" class="st8" width="36.4" height="36.4"/>
			<rect x="90.6" y="2.58" class="st8" width="18.2" height="18.2"/>
			<rect x="116.62" y="19.51" class="st8" width="13.98" height="13.98"/>
			<rect x="98.55" y="11.68" class="st8" width="18.2" height="18.2"/>
			<rect x="94.23" y="15.98" class="st8" width="11.39" height="11.39"/>
		</g>
		<rect x="126.71" y="17.95" class="st8" width="13.87" height="12.45"/>
	</g>
</g>
</svg>
