<?xml version="1.0" encoding="utf-8"?>
<!-- Generator: Adobe Illustrator 26.2.1, SVG Export Plug-In . SVG Version: 6.00 Build 0)  -->
<svg version="1.1" id="Layer_1" xmlns="http://www.w3.org/2000/svg" xmlns:xlink="http://www.w3.org/1999/xlink" x="0px" y="0px"
	 viewBox="0 0 1440 1024" style="enable-background:new 0 0 1440 1024;" xml:space="preserve">
<style type="text/css">
	.st0{fill:#F39325;}
	.st1{fill:#846A60;}
	.st2{fill:#F1E867;}
	.st3{fill:#816A5F;}
	.st4{fill:#671E0B;}
	.st5{fill:#C41315;}
	.st6{fill:#FFFFFF;}
	.st7{fill:#FFDD08;}
	.st8{fill:#E9E1D4;}
	.st9{fill:#F2EAD7;}
	.st10{fill:#D6CEC3;}
	.st11{fill:#F7F0DD;}
	.st12{fill:#DFD9C6;}
	.st13{fill:#E9E1D6;}
	.st14{fill:#FBF9E8;}
</style>
<rect y="1006.86" class="st0" width="1440" height="17.14"/>
<g>
	<g>
		<g>
			<g>
				<path class="st1" d="M455.81,312.6h-18.24v-10.64h49.4v10.64H468.8v49.39h-12.99V312.6z"/>
				<path class="st1" d="M503.72,301.96h12.98v23.42h24.15v-23.42h12.98v60.03h-12.98v-25.98H516.7v25.98h-12.98V301.96z"/>
				<path class="st1" d="M588.12,348.12l-4.68,13.87h-12.76l20.39-60.03h16.3l21.27,60.03h-13.65l-4.93-13.87H588.12z
					 M607.25,337.48c-4.26-12.67-6.98-20.76-8.43-26.16h-0.09c-1.48,5.92-4.48,15.34-7.89,26.16H607.25z"/>
				<path class="st1" d="M645.04,361.99v-60.03h16.09c7.5,13.48,21.36,37.79,24.12,44.33h0.16c-0.68-6.26-0.67-16.69-0.67-26.54
					v-17.79h11.76v60.03h-15.26c-6.45-11.73-21.81-39.66-24.78-46.59h-0.16c0.44,5.25,0.58,17.58,0.58,28.33v18.26H645.04z"/>
				<path class="st1" d="M719.58,301.96h12.83v26.79c3.96-4.63,16.31-18.16,23.9-26.79h15.55l-24.12,24.95l25,35.08h-15.57
					l-18.42-26.67l-6.33,6.05v20.61h-12.83V301.96z"/>
				<path class="st1" d="M830.12,361.99v-21.21c0-0.68-0.1-1.29-0.5-1.93l-20.7-36.89h14.68c4.64,9.06,10.66,21.1,13.66,27.63
					c2.61-6.29,9.18-18.93,13.72-27.63h13.58l-20.96,36.7c-0.25,0.43-0.49,0.7-0.49,1.92v21.41H830.12z"/>
				<path class="st1" d="M932.62,331.77c0,16.71-10.03,31.09-29.53,31.09c-18.84,0-28.7-13.69-28.7-30.89
					c0-17.47,10.89-30.89,29.54-30.89C921.49,301.09,932.62,313.39,932.62,331.77z M887.79,331.71c0,11.72,5.14,20.59,15.79,20.59
					c11.54,0,15.63-9.67,15.63-20.37c0-11.36-4.65-20.28-15.84-20.28C892.53,311.65,887.79,320.02,887.79,331.71z"/>
				<path class="st1" d="M964.95,301.96v35.77c0,11.52,5.92,14.93,12.4,14.93c7.43,0,12.09-4.04,12.09-14.93v-35.77h12.99v35.13
					c0,20.53-12.02,25.76-25.26,25.76c-13.55,0-25.22-5.46-25.22-25.51v-35.37H964.95z"/>
			</g>
		</g>
		<path class="st2" d="M902.76,335.52l-4.16-4.16c-0.3-0.3-0.3-0.78,0-1.07l4.16-4.16c0.3-0.3,0.78-0.3,1.07,0l4.16,4.16
			c0.3,0.3,0.3,0.78,0,1.07l-4.16,4.16C903.54,335.81,903.06,335.81,902.76,335.52z"/>
	</g>
	<g>
		<g>
			<g>
				<path class="st3" d="M537.17,697.36c-0.63,0-1.27-0.14-1.92-0.42c-0.66-0.28-1.23-0.72-1.71-1.3v5.18
					c0,0.22-0.04,0.38-0.11,0.47c-0.07,0.09-0.23,0.14-0.47,0.14h-2.82c-0.22,0-0.37-0.05-0.45-0.14c-0.08-0.09-0.12-0.25-0.12-0.47
					v-20.53c0-0.28,0.06-0.47,0.17-0.56c0.11-0.09,0.28-0.14,0.5-0.14h2.73c0.24,0,0.41,0.03,0.5,0.11
					c0.09,0.07,0.14,0.22,0.14,0.44v1.18c0.18-0.24,0.41-0.48,0.7-0.71c0.28-0.23,0.6-0.43,0.94-0.61c0.34-0.17,0.71-0.31,1.11-0.41
					c0.39-0.1,0.78-0.15,1.17-0.15c1.03,0,1.95,0.21,2.77,0.64c0.82,0.42,1.52,1.03,2.1,1.82c0.59,0.79,1.03,1.74,1.35,2.85
					c0.31,1.11,0.47,2.36,0.47,3.76c0,1.31-0.16,2.51-0.48,3.6c-0.32,1.09-0.79,2.02-1.39,2.8c-0.61,0.78-1.34,1.38-2.21,1.82
					C539.24,697.15,538.26,697.36,537.17,697.36z M536.81,683.13c-0.42,0-0.83,0.11-1.23,0.32c-0.39,0.21-0.74,0.53-1.04,0.97
					c-0.3,0.43-0.55,0.98-0.74,1.65c-0.19,0.67-0.29,1.45-0.29,2.36c0,0.95,0.09,1.76,0.26,2.42c0.17,0.67,0.4,1.21,0.7,1.64
					c0.29,0.42,0.64,0.73,1.05,0.92c0.4,0.19,0.84,0.29,1.3,0.29c1.01,0,1.82-0.42,2.44-1.27c0.62-0.85,0.92-2.18,0.92-4
					c0-1.9-0.31-3.26-0.94-4.07C538.61,683.54,537.8,683.13,536.81,683.13z"/>
				<path class="st3" d="M560.13,696.7c-0.18,0-0.3-0.02-0.35-0.06c-0.05-0.04-0.08-0.16-0.08-0.36v-1.3
					c-0.34,0.55-0.9,1.01-1.68,1.39c-0.78,0.38-1.55,0.58-2.32,0.58c-0.83,0-1.63-0.12-2.39-0.35c-0.77-0.23-1.4-0.6-1.89-1.09
					c-0.5-0.49-0.88-1.09-1.17-1.79c-0.28-0.7-0.42-1.49-0.42-2.38c0-1.05,0.25-2,0.76-2.85c0.5-0.85,1.18-1.51,2.01-1.98
					c0.84-0.47,1.83-0.82,2.98-1.03c1.15-0.21,2.42-0.28,3.82-0.2c-0.12-1.59-0.81-2.47-2.06-2.63c-0.4-0.04-0.81-0.03-1.23,0.03
					c-0.41,0.06-0.82,0.16-1.21,0.29c-0.39,0.13-0.77,0.28-1.14,0.45c-0.36,0.17-0.69,0.35-0.97,0.53
					c-0.42,0.28-0.73,0.42-0.91,0.42c-0.18,0-0.27-0.2-0.27-0.61v-2.51c0-0.26,0.03-0.45,0.08-0.56c0.05-0.11,0.2-0.23,0.44-0.35
					c0.61-0.3,1.32-0.59,2.14-0.85s1.78-0.39,2.89-0.39c2.06,0,3.6,0.53,4.62,1.57c1.02,1.05,1.53,2.68,1.53,4.88v6.9
					c0,0.26,0,0.55,0,0.86c0,0.31,0,0.63,0.01,0.95c0.01,0.32,0.02,0.63,0.03,0.92c0.01,0.29,0.02,0.55,0.04,0.77
					c0.04,0.4,0.02,0.63-0.06,0.67c-0.08,0.04-0.22,0.06-0.42,0.06H560.13z M559.71,688.34c-1.15,0.02-2.1,0.11-2.85,0.26
					c-0.75,0.15-1.35,0.36-1.8,0.62c-0.45,0.26-0.76,0.58-0.92,0.94c-0.16,0.36-0.24,0.77-0.24,1.21c0,0.65,0.19,1.15,0.57,1.5
					c0.38,0.35,0.92,0.53,1.61,0.53c1.09,0,1.96-0.4,2.62-1.2C559.35,691.4,559.68,690.11,559.71,688.34z"/>
				<path class="st3" d="M578.76,683.31c-0.38-0.16-0.74-0.26-1.06-0.29c-0.32-0.03-0.61,0-0.85,0.08
					c-0.48,0.16-0.87,0.43-1.17,0.79c-0.29,0.36-0.51,0.79-0.67,1.27c-0.15,0.48-0.25,0.99-0.29,1.51
					c-0.04,0.53-0.06,1.03-0.06,1.51V696c0,0.24-0.04,0.41-0.11,0.5c-0.07,0.09-0.22,0.14-0.44,0.14h-2.91
					c-0.22,0-0.36-0.04-0.42-0.12c-0.06-0.08-0.09-0.26-0.09-0.55v-11.99c0-0.65-0.01-1.32-0.03-2.03
					c-0.02-0.71-0.03-1.29-0.03-1.76c0-0.26,0.04-0.43,0.12-0.52c0.08-0.08,0.23-0.12,0.45-0.12h2.91c0.3,0,0.45,0.16,0.45,0.49
					v1.15c0.26-0.38,0.6-0.76,1-1.12c0.4-0.36,0.83-0.59,1.27-0.67c0.42-0.08,0.84-0.11,1.26-0.08c0.41,0.03,0.73,0.13,0.95,0.29
					c0.1,0.08,0.17,0.16,0.2,0.23c0.03,0.07,0.05,0.19,0.05,0.35v2.63c0,0.22-0.04,0.38-0.12,0.48
					C579.1,683.41,578.96,683.41,578.76,683.31z"/>
				<path class="st3" d="M594.81,696.64c-0.28,0-0.47-0.03-0.57-0.08c-0.1-0.05-0.21-0.17-0.33-0.35l-4.18-6.6l-1.21,1.42v4.94
					c0,0.24-0.05,0.4-0.14,0.48c-0.09,0.08-0.25,0.12-0.47,0.12h-2.79c-0.22,0-0.37-0.04-0.45-0.12c-0.08-0.08-0.12-0.24-0.12-0.48
					v-23.62c0-0.4,0.19-0.61,0.58-0.61h2.79c0.4,0,0.61,0.2,0.61,0.61v13.2l4.72-5.72c0.1-0.12,0.19-0.2,0.27-0.24
					c0.08-0.04,0.21-0.06,0.39-0.06h2.97c0.34,0,0.54,0.07,0.59,0.21c0.05,0.14-0.08,0.39-0.38,0.76l-5,6.27l5.82,9.09
					c0.18,0.26,0.26,0.46,0.23,0.59c-0.03,0.13-0.22,0.2-0.56,0.2H594.81z"/>
				<path class="st3" d="M613.64,696.64c-0.22,0-0.38-0.04-0.47-0.12c-0.09-0.08-0.14-0.24-0.14-0.48v-9.61
					c0-2.56-0.76-3.84-2.27-3.84c-0.85,0-1.54,0.17-2.09,0.5c-0.55,0.33-0.94,0.79-1.18,1.38v11.58c0,0.24-0.05,0.4-0.15,0.48
					c-0.1,0.08-0.25,0.12-0.45,0.12h-2.79c-0.22,0-0.37-0.04-0.45-0.12c-0.08-0.08-0.12-0.24-0.12-0.49v-23.77
					c0-0.4,0.19-0.61,0.58-0.61h2.79c0.4,0,0.61,0.2,0.61,0.61v8.2c0.53-0.44,1.1-0.8,1.73-1.07c0.63-0.27,1.22-0.41,1.79-0.41
					c2.04,0,3.55,0.6,4.53,1.78c0.98,1.19,1.47,3.06,1.47,5.62v9.64c0,0.24-0.05,0.4-0.14,0.48c-0.09,0.08-0.24,0.12-0.44,0.12
					H613.64z"/>
				<path class="st3" d="M630.64,697.27c-0.53,1.49-1.18,2.57-1.97,3.23s-1.73,0.98-2.82,0.98c-0.22,0-0.55-0.01-0.97-0.05
					c-0.42-0.03-0.84-0.13-1.24-0.29c-0.22-0.1-0.37-0.19-0.44-0.26c-0.07-0.07-0.1-0.22-0.08-0.44l0.21-2.48
					c0.02-0.18,0.08-0.29,0.18-0.32c0.1-0.03,0.23-0.01,0.39,0.05c0.28,0.1,0.57,0.18,0.86,0.23c0.29,0.05,0.59,0.07,0.89,0.05
					c0.16-0.02,0.31-0.06,0.45-0.12c0.14-0.06,0.26-0.18,0.36-0.36c0.22-0.46,0.43-0.92,0.62-1.36c0.19-0.44,0.38-0.96,0.56-1.54
					l-5.03-14.3c-0.1-0.3-0.11-0.49-0.03-0.58c0.08-0.08,0.24-0.12,0.48-0.12h2.88c0.18,0,0.31,0.02,0.38,0.08
					c0.07,0.05,0.14,0.19,0.2,0.41l3,9.63l3-9.63c0.06-0.22,0.13-0.36,0.2-0.41c0.07-0.05,0.2-0.08,0.38-0.08h2.94
					c0.28,0,0.45,0.05,0.5,0.15c0.05,0.1,0.03,0.29-0.08,0.57L630.64,697.27z"/>
				<path class="st3" d="M641.96,696.76c-0.28,0-0.48-0.03-0.61-0.09c-0.12-0.06-0.18-0.23-0.18-0.52V694
					c0-0.22,0.05-0.41,0.15-0.56c0.1-0.15,0.22-0.31,0.36-0.47l4.42-5.33c1.64-1.98,2.82-3.59,3.54-4.85c0.73-1.25,1.09-2.25,1.09-3
					c0-0.83-0.22-1.48-0.65-1.97c-0.43-0.48-1.05-0.77-1.86-0.85c-0.77-0.08-1.54,0-2.33,0.24c-0.79,0.24-1.67,0.64-2.64,1.18
					c-0.28,0.16-0.48,0.22-0.59,0.17c-0.11-0.05-0.19-0.17-0.23-0.35l-0.54-2.67c-0.04-0.16-0.04-0.29,0.01-0.39
					c0.05-0.1,0.2-0.23,0.44-0.39c0.38-0.26,0.82-0.5,1.3-0.71c0.48-0.21,0.98-0.39,1.5-0.55c0.52-0.15,1.02-0.26,1.53-0.33
					c0.5-0.07,0.96-0.11,1.36-0.11c0.97,0,1.88,0.14,2.74,0.42c0.86,0.28,1.6,0.7,2.23,1.26c0.63,0.56,1.12,1.25,1.48,2.07
					c0.36,0.83,0.55,1.79,0.55,2.88c0,0.95-0.2,1.9-0.61,2.85c-0.4,0.95-0.9,1.87-1.48,2.77c-0.59,0.9-1.22,1.76-1.89,2.57
					c-0.68,0.82-1.29,1.56-1.83,2.23c-0.34,0.44-0.75,0.93-1.23,1.45c-0.48,0.53-0.9,1.01-1.29,1.45h8c0.3,0,0.49,0.05,0.56,0.15
					s0.11,0.29,0.11,0.58v2.27c0,0.3-0.04,0.5-0.12,0.59c-0.08,0.09-0.26,0.14-0.55,0.14H641.96z"/>
				<path class="st3" d="M676.49,688.73c-0.02,0.24-0.08,0.43-0.17,0.56c-0.09,0.13-0.26,0.2-0.5,0.2h-9.48
					c0.14,1.35,0.57,2.35,1.29,3c0.72,0.65,1.57,0.99,2.56,1.03c0.93,0.04,1.74-0.05,2.44-0.27c0.7-0.22,1.37-0.53,2.01-0.94
					c0.28-0.18,0.47-0.23,0.57-0.15c0.1,0.08,0.15,0.29,0.15,0.64v2.27c0,0.22-0.03,0.37-0.08,0.45c-0.05,0.08-0.17,0.19-0.35,0.33
					c-0.59,0.4-1.33,0.71-2.23,0.91c-0.9,0.2-1.78,0.3-2.65,0.3c-2.42,0-4.34-0.78-5.74-2.33c-1.4-1.56-2.1-3.77-2.1-6.63
					c0-1.07,0.14-2.14,0.42-3.21c0.28-1.07,0.74-2.03,1.36-2.89c0.63-0.86,1.39-1.55,2.3-2.09c0.91-0.53,1.99-0.8,3.24-0.8
					c1.27,0,2.35,0.23,3.23,0.7c0.88,0.46,1.59,1.09,2.15,1.88c0.56,0.79,0.95,1.7,1.2,2.74c0.24,1.04,0.36,2.15,0.36,3.32V688.73z
					 M669.64,682.61c-0.42,0-0.82,0.1-1.18,0.3c-0.36,0.2-0.68,0.46-0.95,0.79c-0.27,0.32-0.51,0.7-0.71,1.12
					c-0.2,0.42-0.33,0.87-0.39,1.33h6.15c0-0.4-0.07-0.82-0.2-1.24c-0.13-0.42-0.31-0.8-0.55-1.14c-0.23-0.33-0.53-0.61-0.89-0.83
					C670.55,682.72,670.13,682.61,669.64,682.61z"/>
				<path class="st3" d="M693.21,696.7c-0.22,0-0.37-0.03-0.44-0.09c-0.07-0.06-0.11-0.17-0.11-0.33v-1.15
					c-0.18,0.28-0.42,0.54-0.71,0.77c-0.29,0.23-0.61,0.43-0.95,0.59c-0.34,0.16-0.7,0.29-1.06,0.39c-0.36,0.1-0.71,0.15-1.03,0.15
					c-1.98,0-3.46-0.59-4.45-1.76c-0.99-1.17-1.48-2.84-1.48-5v-10.05c0-0.22,0.04-0.38,0.12-0.48c0.08-0.1,0.23-0.15,0.45-0.15
					h2.79c0.24,0,0.4,0.07,0.48,0.2c0.08,0.13,0.12,0.29,0.12,0.47v9.51c0,0.71,0.06,1.29,0.17,1.74c0.11,0.45,0.27,0.82,0.47,1.09
					c0.2,0.27,0.45,0.46,0.74,0.58c0.29,0.11,0.62,0.17,0.98,0.17c0.89,0,1.64-0.35,2.26-1.05c0.62-0.7,0.92-1.78,0.92-3.26v-8.81
					c0-0.22,0.04-0.38,0.12-0.48c0.08-0.1,0.23-0.15,0.45-0.15h2.82c0.24,0,0.4,0.07,0.47,0.21c0.07,0.14,0.11,0.3,0.11,0.48v12.15
					c0,0.61,0.01,1.24,0.03,1.89c0.02,0.66,0.03,1.24,0.03,1.74c0,0.26-0.03,0.43-0.08,0.52c-0.05,0.08-0.22,0.12-0.5,0.12H693.21z"
					/>
				<path class="st3" d="M708.23,696.03c0,0.24-0.04,0.4-0.12,0.49c-0.08,0.08-0.23,0.12-0.45,0.12h-2.82
					c-0.24,0-0.4-0.05-0.48-0.15c-0.08-0.1-0.12-0.26-0.12-0.48v-11.84c0-0.77,0-1.55,0.01-2.33c0.01-0.79-0.01-1.38-0.08-1.79
					c-0.04-0.22-0.02-0.36,0.06-0.42c0.08-0.06,0.26-0.09,0.54-0.09h2.88c0.22,0,0.36,0.02,0.42,0.06c0.06,0.04,0.09,0.15,0.09,0.33
					v1.15c0.42-0.44,0.97-0.85,1.65-1.23c0.68-0.37,1.37-0.56,2.07-0.56c2.02,0,3.5,0.58,4.44,1.73c0.94,1.15,1.41,2.83,1.41,5.03
					v9.99c0,0.24-0.04,0.4-0.12,0.49c-0.08,0.08-0.23,0.12-0.45,0.12h-2.82c-0.4,0-0.61-0.21-0.61-0.64v-9.36
					c0-2.44-0.74-3.67-2.21-3.67c-1.03,0-1.84,0.33-2.42,1c-0.59,0.67-0.88,1.57-0.88,2.73V696.03z"/>
				<path class="st3" d="M748.69,682.89c0,0.75-0.08,1.45-0.24,2.12c-0.16,0.67-0.37,1.28-0.64,1.85c-0.26,0.57-0.57,1.08-0.91,1.54
					c-0.34,0.46-0.69,0.86-1.03,1.18c-1.66,1.59-3.42,2.39-5.3,2.39c-0.51,0-0.98-0.17-1.44-0.5c-0.45-0.33-0.77-0.81-0.96-1.44
					c-0.24,0.28-0.53,0.54-0.86,0.76s-0.68,0.41-1.05,0.56c-0.36,0.15-0.73,0.27-1.09,0.35c-0.36,0.08-0.69,0.12-0.97,0.12
					c-0.81,0-1.51-0.13-2.12-0.39c-0.61-0.26-1.11-0.62-1.5-1.08c-0.39-0.45-0.69-1-0.88-1.64c-0.19-0.64-0.29-1.32-0.29-2.04
					c0-1.09,0.2-2.14,0.59-3.16c0.39-1.02,0.93-1.92,1.61-2.7c0.68-0.78,1.48-1.4,2.42-1.86c0.94-0.46,1.95-0.7,3.04-0.7
					c0.65,0,1.27,0.16,1.88,0.49c0.61,0.32,1.05,0.75,1.33,1.27l0.42-1.42h2.3c-0.77-0.79-1.71-1.39-2.82-1.82s-2.27-0.64-3.48-0.64
					c-1.15,0-2.25,0.22-3.29,0.65c-1.04,0.43-1.95,1.05-2.74,1.83s-1.41,1.72-1.86,2.79c-0.45,1.07-0.68,2.24-0.68,3.51
					c0,1.49,0.23,2.81,0.7,3.95c0.46,1.14,1.09,2.1,1.89,2.86c0.8,0.77,1.73,1.35,2.79,1.74c1.06,0.39,2.18,0.59,3.38,0.59
					c0.95,0,1.78-0.07,2.5-0.2c0.72-0.13,1.34-0.31,1.88-0.53c0.53-0.22,0.99-0.49,1.38-0.82c0.38-0.32,0.73-0.68,1.03-1.06h4.39
					c-1.09,1.92-2.57,3.38-4.44,4.39c-1.87,1.01-4.15,1.51-6.86,1.51c-1.76,0-3.4-0.3-4.92-0.89c-1.53-0.6-2.85-1.44-3.97-2.53
					c-1.12-1.09-2-2.39-2.64-3.91c-0.64-1.51-0.95-3.2-0.95-5.06c0-1.76,0.32-3.39,0.97-4.91c0.65-1.51,1.53-2.82,2.65-3.92
					c1.12-1.1,2.44-1.96,3.95-2.59c1.51-0.63,3.14-0.94,4.88-0.94c1.66,0,3.21,0.27,4.66,0.82c1.45,0.54,2.72,1.28,3.8,2.21
					c1.08,0.93,1.93,2.02,2.54,3.27C748.38,680.17,748.69,681.49,748.69,682.89z M737.24,681.34c-0.57,0-1.09,0.18-1.56,0.53
					c-0.47,0.35-0.88,0.8-1.21,1.35c-0.33,0.54-0.6,1.13-0.79,1.74c-0.19,0.62-0.29,1.2-0.29,1.74c0,0.54,0.1,0.99,0.3,1.35
					c0.2,0.35,0.52,0.53,0.97,0.53c0.56,0,1.09-0.17,1.59-0.52c0.49-0.34,0.92-0.77,1.29-1.29c0.36-0.51,0.65-1.08,0.86-1.71
					s0.32-1.23,0.32-1.82c0-0.59-0.12-1.05-0.36-1.39C738.12,681.51,737.75,681.34,737.24,681.34z M744.94,683.19
					c0-0.59-0.07-1.14-0.21-1.66c-0.14-0.52-0.34-1.02-0.61-1.48c-0.4,1.13-0.8,2.21-1.18,3.24c-0.38,1.03-0.78,2.16-1.18,3.39
					c-0.12,0.38-0.21,0.69-0.26,0.91c-0.05,0.22-0.07,0.39-0.04,0.51c0.02,0.12,0.05,0.2,0.09,0.23c0.04,0.03,0.09,0.05,0.15,0.05
					c0.34,0,0.71-0.14,1.09-0.42c0.38-0.28,0.73-0.66,1.05-1.14c0.31-0.47,0.58-1.02,0.79-1.65
					C744.83,684.53,744.94,683.88,744.94,683.19z"/>
				<path class="st3" d="M761.08,701.72c-0.81,0-1.63-0.09-2.47-0.26c-0.84-0.17-1.64-0.4-2.41-0.68c-0.2-0.08-0.33-0.17-0.38-0.26
					c-0.05-0.09-0.07-0.25-0.05-0.47l0.18-2.63c0.02-0.24,0.07-0.4,0.15-0.48c0.08-0.08,0.29-0.04,0.64,0.12
					c0.61,0.3,1.3,0.55,2.09,0.76c0.79,0.2,1.59,0.28,2.42,0.24c1.13-0.04,2.06-0.4,2.79-1.09c0.73-0.69,1.14-1.66,1.24-2.94
					c-0.53,0.61-1.17,1.05-1.94,1.33c-0.77,0.28-1.47,0.41-2.12,0.39c-1.05-0.02-2-0.23-2.85-0.64c-0.85-0.4-1.57-0.96-2.17-1.68
					c-0.6-0.72-1.06-1.56-1.38-2.53c-0.32-0.97-0.48-2.03-0.48-3.18c0-2.65,0.6-4.72,1.8-6.22c1.2-1.5,2.9-2.26,5.1-2.26
					c0.38,0,0.78,0.05,1.18,0.15c0.4,0.1,0.79,0.23,1.15,0.39c0.36,0.16,0.7,0.35,1,0.56c0.3,0.21,0.53,0.43,0.7,0.65v-1.15
					c0-0.34,0.16-0.52,0.48-0.52h2.79c0.22,0,0.37,0.05,0.44,0.14c0.07,0.09,0.11,0.27,0.11,0.53v12.36c0,3.01-0.71,5.32-2.14,6.93
					C765.55,700.92,763.58,701.72,761.08,701.72z M761.87,682.92c-1.01,0-1.83,0.35-2.45,1.06c-0.63,0.71-0.94,1.94-0.94,3.69
					c0,0.69,0.1,1.31,0.29,1.86c0.19,0.56,0.44,1.03,0.74,1.41c0.3,0.38,0.65,0.68,1.05,0.88c0.39,0.2,0.79,0.3,1.2,0.3
					c0.97,0,1.78-0.4,2.42-1.2c0.65-0.8,0.97-1.89,0.97-3.29c0-1.47-0.32-2.63-0.95-3.47S762.77,682.92,761.87,682.92z"/>
				<path class="st3" d="M795.82,696.64c-0.22,0-0.38-0.05-0.48-0.14c-0.1-0.09-0.15-0.26-0.15-0.5v-10.18
					c0-0.81-0.22-1.46-0.67-1.95c-0.44-0.49-1-0.74-1.66-0.74c-0.51,0-0.96,0.12-1.36,0.35c-0.4,0.23-0.75,0.55-1.03,0.95
					c-0.28,0.4-0.5,0.87-0.65,1.39c-0.15,0.53-0.23,1.07-0.23,1.64v8.57c0,0.4-0.19,0.61-0.58,0.61h-2.85
					c-0.22,0-0.38-0.05-0.48-0.14c-0.1-0.09-0.15-0.26-0.15-0.5v-10.18c0-0.95-0.19-1.64-0.56-2.06c-0.37-0.42-0.91-0.64-1.62-0.64
					c-0.97,0-1.74,0.33-2.3,0.98c-0.57,0.66-0.85,1.44-0.85,2.35v9.57c0,0.24-0.04,0.4-0.12,0.49c-0.08,0.08-0.23,0.12-0.45,0.12
					h-2.82c-0.24,0-0.4-0.05-0.48-0.15c-0.08-0.1-0.12-0.26-0.12-0.48v-11.84c0-0.77,0-1.53,0-2.29c0-0.76-0.02-1.34-0.06-1.74
					c-0.04-0.22-0.02-0.38,0.08-0.47c0.09-0.09,0.29-0.14,0.59-0.14h2.82c0.22,0,0.36,0.02,0.42,0.06c0.06,0.04,0.09,0.15,0.09,0.33
					v1.24c0.44-0.46,0.98-0.87,1.62-1.23c0.64-0.35,1.28-0.53,1.92-0.53c0.97,0,1.88,0.25,2.74,0.76c0.86,0.5,1.52,1.18,1.98,2.03
					c0.26-0.38,0.56-0.75,0.91-1.09c0.34-0.34,0.71-0.65,1.11-0.91c0.39-0.26,0.82-0.47,1.27-0.64c0.45-0.16,0.92-0.24,1.41-0.24
					c0.91,0,1.74,0.13,2.48,0.39s1.39,0.65,1.92,1.15c0.53,0.51,0.95,1.13,1.24,1.86c0.29,0.74,0.44,1.58,0.44,2.53v10.78
					c0,0.24-0.05,0.4-0.14,0.49c-0.09,0.08-0.25,0.12-0.47,0.12H795.82z"/>
				<path class="st3" d="M815.96,696.7c-0.18,0-0.3-0.02-0.35-0.06s-0.08-0.16-0.08-0.36v-1.3c-0.34,0.55-0.9,1.01-1.68,1.39
					c-0.78,0.38-1.55,0.58-2.32,0.58c-0.83,0-1.63-0.12-2.39-0.35c-0.77-0.23-1.4-0.6-1.89-1.09c-0.5-0.49-0.88-1.09-1.17-1.79
					c-0.28-0.7-0.42-1.49-0.42-2.38c0-1.05,0.25-2,0.76-2.85c0.5-0.85,1.18-1.51,2.01-1.98s1.83-0.82,2.98-1.03s2.42-0.28,3.82-0.2
					c-0.12-1.59-0.81-2.47-2.06-2.63c-0.4-0.04-0.81-0.03-1.23,0.03c-0.41,0.06-0.82,0.16-1.21,0.29c-0.39,0.13-0.77,0.28-1.14,0.45
					c-0.36,0.17-0.69,0.35-0.97,0.53c-0.42,0.28-0.73,0.42-0.91,0.42c-0.18,0-0.27-0.2-0.27-0.61v-2.51c0-0.26,0.02-0.45,0.08-0.56
					s0.2-0.23,0.44-0.35c0.61-0.3,1.32-0.59,2.14-0.85s1.78-0.39,2.89-0.39c2.06,0,3.6,0.53,4.62,1.57
					c1.02,1.05,1.53,2.68,1.53,4.88v6.9c0,0.26,0,0.55,0,0.86c0,0.31,0,0.63,0.01,0.95c0.01,0.32,0.02,0.63,0.03,0.92
					c0.01,0.29,0.02,0.55,0.05,0.77c0.04,0.4,0.02,0.63-0.06,0.67c-0.08,0.04-0.22,0.06-0.42,0.06H815.96z M815.53,688.34
					c-1.15,0.02-2.1,0.11-2.85,0.26c-0.75,0.15-1.35,0.36-1.8,0.62c-0.45,0.26-0.76,0.58-0.92,0.94c-0.16,0.36-0.24,0.77-0.24,1.21
					c0,0.65,0.19,1.15,0.58,1.5c0.38,0.35,0.92,0.53,1.6,0.53c1.09,0,1.96-0.4,2.62-1.2C815.17,691.4,815.51,690.11,815.53,688.34z"
					/>
				<path class="st3" d="M827.98,677.07c-0.67,0-1.22-0.23-1.67-0.7c-0.44-0.46-0.67-1.03-0.67-1.7c0-0.67,0.22-1.24,0.65-1.71
					c0.43-0.47,0.99-0.71,1.68-0.71c0.69,0,1.25,0.24,1.7,0.71c0.44,0.47,0.67,1.05,0.67,1.71c0,0.67-0.22,1.23-0.67,1.7
					C829.23,676.84,828.67,677.07,827.98,677.07z M826.44,696.64c-0.18,0-0.31-0.04-0.38-0.12c-0.07-0.08-0.11-0.24-0.11-0.49
					v-15.78c0-0.24,0.03-0.4,0.09-0.48c0.06-0.08,0.19-0.12,0.39-0.12h3c0.2,0,0.34,0.04,0.41,0.12c0.07,0.08,0.11,0.24,0.11,0.48
					v15.78c0,0.24-0.04,0.4-0.11,0.49c-0.07,0.08-0.21,0.12-0.41,0.12H826.44z"/>
				<path class="st3" d="M836.89,696.61c-0.18,0-0.31-0.04-0.38-0.12c-0.07-0.08-0.11-0.24-0.11-0.48v-23.65
					c0-0.24,0.03-0.4,0.09-0.48c0.06-0.08,0.19-0.12,0.39-0.12h3c0.2,0,0.34,0.04,0.41,0.12c0.07,0.08,0.11,0.24,0.11,0.48V696
					c0,0.24-0.04,0.4-0.11,0.48c-0.07,0.08-0.21,0.12-0.41,0.12H836.89z"/>
				<path class="st3" d="M849.67,699.03c-0.77,0-1.41-0.26-1.94-0.79c-0.53-0.53-0.79-1.17-0.79-1.94c0-0.77,0.26-1.41,0.79-1.94
					c0.52-0.52,1.17-0.79,1.94-0.79c0.77,0,1.41,0.26,1.94,0.79c0.53,0.53,0.79,1.17,0.79,1.94c0,0.77-0.26,1.41-0.79,1.94
					C851.08,698.77,850.43,699.03,849.67,699.03z"/>
				<path class="st3" d="M870.68,696.52c-0.22,0.1-0.5,0.19-0.83,0.27c-0.33,0.08-0.7,0.15-1.09,0.2c-0.39,0.05-0.8,0.08-1.23,0.09
					c-0.42,0.01-0.83,0-1.21-0.05c-1.27-0.1-2.4-0.39-3.38-0.88c-0.98-0.49-1.8-1.12-2.47-1.89c-0.67-0.78-1.17-1.69-1.51-2.74
					c-0.34-1.05-0.52-2.19-0.52-3.42c0-1.29,0.2-2.48,0.61-3.57c0.4-1.09,0.97-2.03,1.71-2.82c0.74-0.79,1.63-1.4,2.67-1.83
					c1.04-0.43,2.19-0.65,3.47-0.65c0.59,0,1.23,0.04,1.92,0.12c0.7,0.08,1.34,0.22,1.92,0.42c0.18,0.06,0.29,0.13,0.32,0.21
					c0.03,0.08,0.03,0.23,0.01,0.45l-0.3,2.33c-0.04,0.24-0.11,0.4-0.2,0.48c-0.09,0.08-0.29,0.07-0.59-0.03
					c-0.42-0.16-0.94-0.28-1.54-0.35c-0.61-0.07-1.14-0.09-1.61-0.08c-1.39,0.04-2.47,0.54-3.23,1.5c-0.76,0.96-1.14,2.23-1.14,3.8
					c0,1.51,0.36,2.74,1.07,3.67c0.72,0.93,1.72,1.46,3.01,1.61c0.65,0.1,1.29,0.12,1.92,0.05c0.64-0.07,1.2-0.19,1.68-0.35
					c0.32-0.1,0.52-0.13,0.59-0.08c0.07,0.05,0.12,0.19,0.14,0.41l0.18,2.33c0.02,0.24,0,0.41-0.05,0.5
					C870.98,696.32,870.87,696.41,870.68,696.52z"/>
				<path class="st3" d="M890.19,694.27c-0.75,0.95-1.64,1.66-2.68,2.14c-1.04,0.47-2.2,0.71-3.47,0.71c-1.33,0-2.5-0.24-3.5-0.73
					c-1-0.48-1.84-1.14-2.51-1.95c-0.68-0.82-1.19-1.77-1.53-2.86c-0.34-1.09-0.52-2.24-0.52-3.45s0.17-2.36,0.5-3.45
					c0.33-1.09,0.84-2.04,1.51-2.86c0.68-0.82,1.52-1.46,2.53-1.94c1.01-0.47,2.18-0.71,3.51-0.71c1.33,0,2.5,0.24,3.51,0.73
					c1.01,0.49,1.85,1.14,2.53,1.95c0.68,0.82,1.19,1.77,1.53,2.85c0.34,1.08,0.52,2.23,0.52,3.44c0,1.19-0.17,2.32-0.5,3.38
					C891.29,692.56,890.82,693.49,890.19,694.27z M884.04,682.7c-0.67,0-1.25,0.16-1.76,0.47c-0.51,0.31-0.92,0.72-1.26,1.23
					c-0.33,0.51-0.59,1.08-0.76,1.73c-0.17,0.65-0.26,1.31-0.26,2c0,0.69,0.09,1.35,0.26,2c0.17,0.65,0.42,1.23,0.76,1.74
					c0.33,0.52,0.75,0.93,1.26,1.24c0.5,0.31,1.09,0.47,1.76,0.47c0.69,0,1.28-0.16,1.79-0.47c0.51-0.31,0.92-0.73,1.26-1.24
					c0.33-0.52,0.58-1.09,0.74-1.74c0.16-0.65,0.24-1.31,0.24-2c0-0.67-0.08-1.32-0.24-1.97c-0.16-0.65-0.41-1.23-0.74-1.74
					c-0.33-0.52-0.75-0.93-1.26-1.24C885.32,682.86,884.73,682.7,884.04,682.7z"/>
				<path class="st3" d="M917.87,696.64c-0.22,0-0.38-0.05-0.48-0.14c-0.1-0.09-0.15-0.26-0.15-0.5v-10.18
					c0-0.81-0.22-1.46-0.67-1.95c-0.44-0.49-1-0.74-1.66-0.74c-0.51,0-0.96,0.12-1.36,0.35c-0.4,0.23-0.75,0.55-1.03,0.95
					c-0.28,0.4-0.5,0.87-0.65,1.39c-0.15,0.53-0.23,1.07-0.23,1.64v8.57c0,0.4-0.19,0.61-0.58,0.61h-2.85
					c-0.22,0-0.38-0.05-0.48-0.14c-0.1-0.09-0.15-0.26-0.15-0.5v-10.18c0-0.95-0.19-1.64-0.56-2.06c-0.37-0.42-0.91-0.64-1.62-0.64
					c-0.97,0-1.74,0.33-2.3,0.98c-0.57,0.66-0.85,1.44-0.85,2.35v9.57c0,0.24-0.04,0.4-0.12,0.49c-0.08,0.08-0.23,0.12-0.45,0.12
					h-2.82c-0.24,0-0.4-0.05-0.48-0.15c-0.08-0.1-0.12-0.26-0.12-0.48v-11.84c0-0.77,0-1.53,0-2.29c0-0.76-0.02-1.34-0.06-1.74
					c-0.04-0.22-0.02-0.38,0.08-0.47s0.29-0.14,0.59-0.14h2.82c0.22,0,0.36,0.02,0.42,0.06c0.06,0.04,0.09,0.15,0.09,0.33v1.24
					c0.44-0.46,0.98-0.87,1.62-1.23c0.64-0.35,1.28-0.53,1.92-0.53c0.97,0,1.88,0.25,2.74,0.76c0.86,0.5,1.52,1.18,1.98,2.03
					c0.26-0.38,0.56-0.75,0.91-1.09c0.34-0.34,0.71-0.65,1.11-0.91c0.39-0.26,0.82-0.47,1.27-0.64c0.45-0.16,0.92-0.24,1.41-0.24
					c0.91,0,1.74,0.13,2.48,0.39s1.39,0.65,1.92,1.15c0.53,0.51,0.95,1.13,1.24,1.86c0.29,0.74,0.44,1.58,0.44,2.53v10.78
					c0,0.24-0.05,0.4-0.14,0.49c-0.09,0.08-0.25,0.12-0.47,0.12H917.87z"/>
			</g>
		</g>
		<g>
			<g>
				<path class="st3" d="M607.51,742.52c-1.35,0-2.52-0.29-3.51-0.86c-0.99-0.58-1.8-1.39-2.44-2.44c-0.64-1.05-1.11-2.32-1.41-3.8
					c-0.3-1.48-0.45-3.13-0.45-4.95c0-0.81,0.04-1.66,0.12-2.57c0.08-0.91,0.23-1.81,0.44-2.7s0.5-1.74,0.88-2.56
					c0.37-0.82,0.85-1.54,1.42-2.17c0.58-0.62,1.27-1.13,2.09-1.5c0.82-0.37,1.77-0.56,2.86-0.56c1.09,0,2.04,0.19,2.85,0.56
					c0.81,0.37,1.5,0.87,2.07,1.5c0.58,0.63,1.05,1.35,1.41,2.17c0.36,0.82,0.65,1.68,0.86,2.57c0.21,0.9,0.36,1.8,0.44,2.71
					c0.08,0.91,0.12,1.76,0.12,2.54c0,1.82-0.15,3.46-0.45,4.94c-0.3,1.47-0.77,2.74-1.41,3.8c-0.64,1.06-1.44,1.88-2.41,2.45
					C610.03,742.23,608.86,742.52,607.51,742.52z M607.51,722.35c-0.5,0-0.98,0.13-1.42,0.39c-0.44,0.26-0.83,0.71-1.17,1.35
					c-0.33,0.64-0.6,1.47-0.79,2.51c-0.19,1.04-0.29,2.33-0.29,3.86c0,1.56,0.1,2.85,0.29,3.89c0.19,1.04,0.45,1.87,0.79,2.5
					c0.33,0.63,0.72,1.07,1.17,1.33c0.44,0.26,0.92,0.39,1.42,0.39c0.5,0,0.98-0.13,1.42-0.39s0.83-0.71,1.17-1.33
					c0.33-0.63,0.6-1.46,0.79-2.5c0.19-1.04,0.29-2.34,0.29-3.89c0-1.53-0.1-2.82-0.29-3.86c-0.19-1.04-0.45-1.88-0.79-2.51
					c-0.33-0.64-0.72-1.08-1.17-1.35C608.49,722.48,608.02,722.35,607.51,722.35z"/>
				<path class="st3" d="M627.62,742.19c-0.22,0-0.37-0.05-0.45-0.14c-0.08-0.09-0.12-0.26-0.12-0.5v-17.28l-1.85,1.78
					c-0.32,0.3-0.57,0.33-0.76,0.09l-1.79-2.03c-0.12-0.14-0.16-0.27-0.11-0.38c0.05-0.11,0.17-0.25,0.35-0.41l4.66-4.36
					c0.22-0.18,0.46-0.27,0.73-0.27h2c0.44,0,0.71,0.05,0.79,0.15c0.08,0.1,0.12,0.4,0.12,0.91v21.81c0,0.22-0.04,0.38-0.12,0.48
					c-0.08,0.1-0.23,0.15-0.45,0.15H627.62z"/>
				<path class="st3" d="M650.28,742.52c-1.35,0-2.52-0.29-3.51-0.86c-0.99-0.58-1.8-1.39-2.44-2.44c-0.64-1.05-1.11-2.32-1.41-3.8
					c-0.3-1.48-0.45-3.13-0.45-4.95c0-0.81,0.04-1.66,0.12-2.57c0.08-0.91,0.23-1.81,0.44-2.7s0.5-1.74,0.88-2.56
					c0.37-0.82,0.85-1.54,1.42-2.17c0.58-0.62,1.27-1.13,2.09-1.5s1.77-0.56,2.86-0.56c1.09,0,2.04,0.19,2.85,0.56
					s1.5,0.87,2.07,1.5c0.58,0.63,1.05,1.35,1.41,2.17c0.36,0.82,0.65,1.68,0.86,2.57c0.21,0.9,0.36,1.8,0.44,2.71
					c0.08,0.91,0.12,1.76,0.12,2.54c0,1.82-0.15,3.46-0.45,4.94c-0.3,1.47-0.77,2.74-1.41,3.8c-0.64,1.06-1.44,1.88-2.41,2.45
					C652.79,742.23,651.63,742.52,650.28,742.52z M650.28,722.35c-0.5,0-0.98,0.13-1.42,0.39c-0.44,0.26-0.83,0.71-1.17,1.35
					c-0.33,0.64-0.6,1.47-0.79,2.51c-0.19,1.04-0.29,2.33-0.29,3.86c0,1.56,0.1,2.85,0.29,3.89c0.19,1.04,0.45,1.87,0.79,2.5
					c0.33,0.63,0.72,1.07,1.17,1.33c0.44,0.26,0.92,0.39,1.42,0.39c0.5,0,0.98-0.13,1.42-0.39s0.83-0.71,1.17-1.33
					c0.33-0.63,0.6-1.46,0.79-2.5c0.19-1.04,0.29-2.34,0.29-3.89c0-1.53-0.1-2.82-0.29-3.86c-0.19-1.04-0.45-1.88-0.79-2.51
					c-0.33-0.64-0.72-1.08-1.17-1.35C651.26,722.48,650.78,722.35,650.28,722.35z"/>
				<path class="st3" d="M688.19,737.1v4.42c0,0.34-0.04,0.56-0.11,0.65s-0.28,0.14-0.62,0.14h-2.51c-0.34,0-0.55-0.06-0.62-0.17
					s-0.11-0.32-0.11-0.62v-4.42h-9.24c-0.28,0-0.47-0.03-0.56-0.11c-0.09-0.07-0.14-0.24-0.14-0.5v-2.15
					c0-0.22,0.05-0.41,0.15-0.56c0.1-0.15,0.2-0.31,0.3-0.47c1.53-2.36,3.06-4.75,4.57-7.16c1.51-2.41,3.08-4.77,4.69-7.07
					c0.1-0.16,0.21-0.27,0.32-0.32c0.11-0.05,0.27-0.08,0.47-0.08h2.79c0.36,0,0.56,0.07,0.58,0.2c0.02,0.13,0.03,0.3,0.03,0.5
					v13.99h2.48c0.3,0,0.49,0.03,0.56,0.09c0.07,0.06,0.11,0.26,0.11,0.61v2.36c0,0.34-0.05,0.54-0.14,0.59
					c-0.09,0.05-0.27,0.08-0.53,0.08H688.19z M678.84,733.37h5.39v-8.33L678.84,733.37z"/>
				<path class="st3" d="M704.31,742.4c-2.48,0-4.36-0.94-5.63-2.82c-1.27-1.88-1.91-4.68-1.91-8.42c0-1.7,0.17-3.32,0.52-4.86
					c0.34-1.54,0.91-2.9,1.7-4.06s1.83-2.09,3.12-2.77c1.29-0.69,2.9-1.03,4.82-1.03c0.28,0,0.6,0.01,0.95,0.05
					c0.35,0.03,0.7,0.07,1.05,0.11c0.34,0.04,0.68,0.09,1,0.15c0.32,0.06,0.61,0.13,0.85,0.21c0.2,0.08,0.32,0.17,0.35,0.27
					c0.03,0.1,0.05,0.23,0.05,0.39l-0.12,2.88c-0.02,0.22-0.09,0.34-0.2,0.36s-0.31-0.01-0.59-0.09c-0.34-0.1-0.65-0.18-0.92-0.24
					c-0.27-0.06-0.53-0.11-0.79-0.15c-0.25-0.04-0.52-0.07-0.79-0.08c-0.27-0.01-0.59-0.01-0.95-0.01c-1.7,0-3.01,0.54-3.95,1.62
					c-0.94,1.08-1.5,2.52-1.68,4.32c0.42-0.51,0.99-0.91,1.71-1.21c0.72-0.3,1.39-0.45,2.01-0.45c0.97,0,1.89,0.18,2.76,0.53
					c0.87,0.35,1.62,0.86,2.26,1.53c0.64,0.67,1.14,1.47,1.51,2.42c0.37,0.95,0.56,2.01,0.56,3.18c0,1.15-0.18,2.23-0.53,3.23
					c-0.35,1-0.86,1.86-1.53,2.59c-0.67,0.73-1.47,1.3-2.42,1.73C706.54,742.19,705.48,742.4,704.31,742.4z M704.64,730.31
					c-1.15,0-2.05,0.34-2.7,1.03c-0.65,0.69-0.97,1.63-0.97,2.82c0,0.65,0.09,1.24,0.27,1.79c0.18,0.54,0.42,1.01,0.73,1.41
					c0.3,0.39,0.66,0.71,1.08,0.94c0.41,0.23,0.85,0.35,1.32,0.35c1.03,0,1.88-0.37,2.56-1.12c0.68-0.75,1.01-1.8,1.01-3.15
					c0-1.29-0.29-2.29-0.88-3C706.48,730.67,705.67,730.31,704.64,730.31z"/>
				<path class="st3" d="M718.72,742.19c-0.28,0-0.48-0.03-0.61-0.09c-0.12-0.06-0.18-0.23-0.18-0.52v-2.15
					c0-0.22,0.05-0.41,0.15-0.56c0.1-0.15,0.22-0.31,0.36-0.47l4.42-5.33c1.64-1.98,2.82-3.59,3.54-4.85c0.73-1.25,1.09-2.25,1.09-3
					c0-0.83-0.22-1.49-0.65-1.97c-0.43-0.48-1.05-0.77-1.86-0.85c-0.77-0.08-1.54,0-2.33,0.24c-0.79,0.24-1.67,0.64-2.64,1.18
					c-0.28,0.16-0.48,0.22-0.59,0.17c-0.11-0.05-0.19-0.17-0.23-0.35l-0.54-2.67c-0.04-0.16-0.04-0.29,0.01-0.39
					c0.05-0.1,0.2-0.23,0.44-0.39c0.38-0.26,0.82-0.5,1.3-0.71c0.48-0.21,0.98-0.39,1.5-0.55c0.52-0.15,1.02-0.26,1.53-0.33
					c0.5-0.07,0.96-0.11,1.36-0.11c0.97,0,1.88,0.14,2.74,0.42c0.86,0.28,1.6,0.7,2.23,1.26c0.63,0.56,1.12,1.25,1.48,2.07
					c0.36,0.83,0.54,1.79,0.54,2.88c0,0.95-0.2,1.9-0.61,2.85c-0.4,0.95-0.9,1.87-1.48,2.77c-0.59,0.9-1.22,1.76-1.89,2.57
					c-0.68,0.82-1.29,1.56-1.83,2.23c-0.34,0.44-0.75,0.93-1.23,1.45c-0.48,0.52-0.9,1.01-1.29,1.45h8c0.3,0,0.49,0.05,0.56,0.15
					c0.07,0.1,0.11,0.29,0.11,0.58v2.27c0,0.3-0.04,0.5-0.12,0.59c-0.08,0.09-0.26,0.14-0.54,0.14H718.72z"/>
				<path class="st3" d="M747.01,742.91c-0.91,0-1.84-0.14-2.79-0.42c-0.95-0.28-1.82-0.72-2.6-1.3c-0.79-0.59-1.43-1.31-1.92-2.18
					c-0.5-0.87-0.74-1.9-0.74-3.09c0-0.75,0.13-1.42,0.39-2.01c0.26-0.6,0.6-1.14,1.01-1.62c0.41-0.48,0.88-0.91,1.41-1.29
					c0.52-0.37,1.05-0.71,1.57-1.01c-0.51-0.34-0.98-0.72-1.42-1.12c-0.44-0.4-0.84-0.83-1.18-1.29c-0.34-0.45-0.62-0.93-0.82-1.44
					c-0.2-0.5-0.3-1.05-0.3-1.64c0-0.93,0.2-1.78,0.61-2.56c0.4-0.78,0.94-1.44,1.62-1.98c0.68-0.54,1.46-0.97,2.36-1.27
					s1.83-0.45,2.8-0.45c1.01,0,1.96,0.14,2.85,0.41c0.89,0.27,1.67,0.67,2.33,1.2c0.67,0.53,1.19,1.17,1.58,1.94
					c0.38,0.77,0.58,1.65,0.58,2.63c0,1.07-0.35,2.04-1.05,2.92c-0.7,0.88-1.6,1.75-2.71,2.62c0.61,0.38,1.18,0.78,1.73,1.18
					c0.54,0.4,1.02,0.84,1.44,1.3s0.74,0.98,0.98,1.56c0.24,0.58,0.36,1.22,0.36,1.92c0,1.19-0.24,2.22-0.71,3.09
					c-0.48,0.87-1.1,1.59-1.86,2.18s-1.63,1.02-2.59,1.3C748.97,742.77,748,742.91,747.01,742.91z M747.04,732.1
					c-0.42,0.14-0.86,0.32-1.32,0.53c-0.45,0.21-0.86,0.47-1.23,0.79c-0.36,0.31-0.67,0.68-0.91,1.11
					c-0.24,0.42-0.36,0.91-0.36,1.45c0,0.44,0.11,0.86,0.33,1.24c0.22,0.38,0.51,0.71,0.86,0.98c0.35,0.27,0.76,0.49,1.21,0.65
					c0.45,0.16,0.91,0.24,1.38,0.24c0.51,0,0.99-0.08,1.45-0.23c0.46-0.15,0.87-0.36,1.21-0.64c0.34-0.27,0.62-0.6,0.83-0.98
					c0.21-0.38,0.32-0.81,0.32-1.27c0-0.32-0.11-0.67-0.32-1.05c-0.21-0.37-0.49-0.74-0.83-1.09c-0.34-0.35-0.74-0.69-1.2-1
					C748.03,732.53,747.55,732.28,747.04,732.1z M747.01,721.96c-0.4,0-0.79,0.07-1.17,0.2c-0.37,0.13-0.71,0.32-1,0.56
					c-0.29,0.24-0.53,0.53-0.71,0.86c-0.18,0.33-0.27,0.7-0.27,1.11c0,0.34,0.12,0.7,0.35,1.06c0.23,0.36,0.51,0.7,0.83,1.02
					s0.67,0.6,1.03,0.85c0.36,0.25,0.69,0.44,0.97,0.56c0.3-0.12,0.63-0.32,0.98-0.61c0.35-0.28,0.69-0.6,1-0.95
					c0.31-0.35,0.58-0.71,0.79-1.06c0.21-0.35,0.32-0.67,0.32-0.95c0-0.34-0.08-0.68-0.23-1c-0.15-0.32-0.37-0.61-0.65-0.85
					c-0.28-0.24-0.62-0.43-1-0.58C747.87,722.03,747.45,721.96,747.01,721.96z"/>
				<path class="st3" d="M778.93,742.19c-0.22,0-0.37-0.05-0.45-0.14c-0.08-0.09-0.12-0.26-0.12-0.5v-17.28l-1.85,1.78
					c-0.32,0.3-0.58,0.33-0.76,0.09l-1.79-2.03c-0.12-0.14-0.16-0.27-0.11-0.38s0.17-0.25,0.35-0.41l4.66-4.36
					c0.22-0.18,0.46-0.27,0.73-0.27h2c0.44,0,0.71,0.05,0.79,0.15c0.08,0.1,0.12,0.4,0.12,0.91v21.81c0,0.22-0.04,0.38-0.12,0.48
					c-0.08,0.1-0.23,0.15-0.45,0.15H778.93z"/>
				<path class="st3" d="M794.38,742.19c-0.28,0-0.48-0.03-0.61-0.09c-0.12-0.06-0.18-0.23-0.18-0.52v-2.15
					c0-0.22,0.05-0.41,0.15-0.56c0.1-0.15,0.22-0.31,0.36-0.47l4.42-5.33c1.64-1.98,2.82-3.59,3.54-4.85s1.09-2.25,1.09-3
					c0-0.83-0.22-1.49-0.65-1.97c-0.43-0.48-1.06-0.77-1.86-0.85c-0.77-0.08-1.54,0-2.33,0.24c-0.79,0.24-1.67,0.64-2.63,1.18
					c-0.28,0.16-0.48,0.22-0.59,0.17c-0.11-0.05-0.19-0.17-0.23-0.35l-0.54-2.67c-0.04-0.16-0.04-0.29,0.01-0.39
					c0.05-0.1,0.2-0.23,0.44-0.39c0.38-0.26,0.82-0.5,1.3-0.71c0.48-0.21,0.98-0.39,1.5-0.55c0.51-0.15,1.02-0.26,1.53-0.33
					c0.5-0.07,0.96-0.11,1.36-0.11c0.97,0,1.88,0.14,2.74,0.42c0.86,0.28,1.6,0.7,2.23,1.26c0.63,0.56,1.12,1.25,1.48,2.07
					c0.36,0.83,0.55,1.79,0.55,2.88c0,0.95-0.2,1.9-0.61,2.85c-0.4,0.95-0.9,1.87-1.48,2.77c-0.59,0.9-1.22,1.76-1.89,2.57
					c-0.68,0.82-1.29,1.56-1.83,2.23c-0.34,0.44-0.75,0.93-1.23,1.45c-0.47,0.52-0.9,1.01-1.29,1.45h8c0.3,0,0.49,0.05,0.56,0.15
					c0.07,0.1,0.11,0.29,0.11,0.58v2.27c0,0.3-0.04,0.5-0.12,0.59c-0.08,0.09-0.26,0.14-0.55,0.14H794.38z"/>
				<path class="st3" d="M822.7,718.47c2.48,0,4.36,0.94,5.63,2.82c1.27,1.88,1.91,4.68,1.91,8.42c0,1.7-0.17,3.32-0.52,4.86
					c-0.34,1.55-0.91,2.9-1.7,4.06s-1.83,2.08-3.13,2.77c-1.3,0.69-2.9,1.03-4.8,1.03c-0.28,0-0.6-0.01-0.95-0.03
					s-0.7-0.06-1.05-0.11c-0.34-0.05-0.68-0.11-1-0.17c-0.32-0.06-0.61-0.13-0.85-0.21c-0.2-0.08-0.32-0.17-0.35-0.27
					c-0.03-0.1-0.05-0.23-0.05-0.39l0.12-2.88c0.02-0.22,0.09-0.34,0.2-0.36c0.11-0.02,0.31,0.01,0.59,0.09
					c0.34,0.1,0.65,0.18,0.92,0.24c0.27,0.06,0.53,0.11,0.79,0.15c0.25,0.04,0.52,0.07,0.79,0.08c0.27,0.01,0.59,0.02,0.96,0.02
					c1.7,0,3.01-0.54,3.95-1.62c0.94-1.08,1.5-2.52,1.68-4.32c-0.42,0.51-0.99,0.91-1.71,1.21c-0.72,0.3-1.39,0.45-2.01,0.45
					c-0.97,0-1.89-0.18-2.76-0.53c-0.87-0.35-1.62-0.86-2.26-1.53c-0.64-0.67-1.14-1.47-1.51-2.42c-0.37-0.95-0.56-2.01-0.56-3.18
					c0-1.15,0.18-2.23,0.53-3.23c0.35-1,0.86-1.86,1.53-2.59c0.67-0.73,1.47-1.3,2.41-1.73C820.44,718.68,821.5,718.47,822.7,718.47
					z M822.36,730.56c1.15,0,2.05-0.34,2.7-1.03c0.65-0.69,0.97-1.62,0.97-2.82c0-0.63-0.09-1.22-0.27-1.77
					c-0.18-0.55-0.42-1.03-0.73-1.42c-0.3-0.39-0.66-0.71-1.07-0.94c-0.41-0.23-0.85-0.35-1.32-0.35c-1.03,0-1.88,0.37-2.56,1.12
					s-1.01,1.8-1.01,3.15c0,1.29,0.29,2.29,0.88,3C820.52,730.21,821.33,730.56,822.36,730.56z"/>
				<path class="st3" d="M849.38,737.1v4.42c0,0.34-0.04,0.56-0.11,0.65c-0.07,0.09-0.28,0.14-0.62,0.14h-2.51
					c-0.34,0-0.55-0.06-0.62-0.17s-0.11-0.32-0.11-0.62v-4.42h-9.24c-0.28,0-0.47-0.03-0.56-0.11c-0.09-0.07-0.14-0.24-0.14-0.5
					v-2.15c0-0.22,0.05-0.41,0.15-0.56c0.1-0.15,0.2-0.31,0.3-0.47c1.53-2.36,3.06-4.75,4.57-7.16c1.51-2.41,3.08-4.77,4.69-7.07
					c0.1-0.16,0.21-0.27,0.32-0.32c0.11-0.05,0.27-0.08,0.47-0.08h2.79c0.36,0,0.56,0.07,0.58,0.2c0.02,0.13,0.03,0.3,0.03,0.5
					v13.99h2.48c0.3,0,0.49,0.03,0.56,0.09c0.07,0.06,0.11,0.26,0.11,0.61v2.36c0,0.34-0.05,0.54-0.14,0.59
					c-0.09,0.05-0.27,0.08-0.53,0.08H849.38z M840.02,733.37h5.39v-8.33L840.02,733.37z"/>
			</g>
		</g>
	</g>
	<g>
		<rect x="464.42" y="553.03" class="st4" width="94.28" height="47.14"/>
		<g>
			<rect x="512.42" y="578.95" class="st4" width="429.26" height="49.16"/>
			
				<rect x="895.41" y="553.03" transform="matrix(-1 -5.448587e-11 5.448587e-11 -1 1885.0918 1153.2001)" class="st4" width="94.28" height="47.14"/>
		</g>
	</g>
	<g>
		<g>
			<rect x="583.64" y="426.19" class="st5" width="139.67" height="139.67"/>
			<rect x="620.38" y="420.54" class="st6" width="66.19" height="28.75"/>
			<rect x="599.89" y="436.49" class="st5" width="29.47" height="25.6"/>
			
				<rect x="677.59" y="436.49" transform="matrix(-1 -4.499968e-11 4.499968e-11 -1 1384.6501 898.5686)" class="st5" width="29.47" height="25.6"/>
			<g>
				<rect x="609.55" y="492.32" class="st7" width="29.47" height="25.6"/>
				
					<rect x="667.93" y="492.32" transform="matrix(-1 -4.499968e-11 4.499968e-11 -1 1365.3181 1010.2364)" class="st7" width="29.47" height="25.6"/>
				<rect x="620.38" y="485.46" class="st7" width="66.19" height="39.31"/>
			</g>
		</g>
		<g>
			<rect x="744.73" y="466.15" class="st8" width="49.83" height="53.26"/>
			<rect x="755.18" y="513.91" class="st9" width="38.1" height="38.1"/>
			<rect x="777.21" y="528.06" class="st10" width="42.92" height="37.8"/>
			<rect x="790.17" y="453.54" class="st11" width="47.1" height="47.1"/>
			<rect x="823.36" y="475.15" class="st12" width="47.1" height="47.1"/>
			<rect x="815.87" y="513.91" class="st13" width="47.1" height="47.1"/>
			<rect x="789.37" y="498.05" class="st14" width="51.26" height="51.26"/>
			<rect x="770.58" y="487.34" class="st14" width="37.58" height="43.38"/>
		</g>
	</g>
</g>
</svg>
