<?xml version="1.0" encoding="utf-8"?>
<!-- Generator: Adobe Illustrator 26.2.1, SVG Export Plug-In . SVG Version: 6.00 Build 0)  -->
<svg version="1.1" id="Layer_1" xmlns="http://www.w3.org/2000/svg" xmlns:xlink="http://www.w3.org/1999/xlink" x="0px" y="0px"
	 viewBox="0 0 1440 1024" style="enable-background:new 0 0 1440 1024;" xml:space="preserve">
<style type="text/css">
	.st0{fill:#F39325;}
	.st1{fill:#EE721E;}
	.st2{fill:#280D0D;}
	.st3{fill:#807FB4;}
	.st4{fill:#110E1F;}
	.st5{fill:#07B1D9;}
	.st6{fill:#051F2A;}
	.st7{fill:#E73C8A;}
	.st8{fill:#1F090D;}
	.st9{fill:#856A60;}
	.st10{fill:#F1E967;}
	.st11{fill:#E67900;}
	.st12{fill:#F18815;}
	.st13{fill:#FFDA6F;}
	.st14{fill:#CA4C36;}
	.st15{fill:#FCC978;}
	.st16{fill:#87BE73;}
</style>
<rect y="0.36" class="st0" width="1440" height="17.14"/>
<g>
	<g>
		<g>
			<rect x="566.94" y="391.53" class="st1" width="63.68" height="63.68"/>
			<rect x="571.81" y="396.39" class="st2" width="53.95" height="53.95"/>
			<g>
				<path class="st1" d="M591.55,408.75H597l11.26,29.23h-5.49l-2.74-7.74h-11.67l-2.74,7.74h-5.28L591.55,408.75z M589.75,426.36
					h8.93l-4.38-12.57h-0.12L589.75,426.36z"/>
				<path class="st1" d="M610.19,408.75h4.67v4.42h-4.67V408.75z M610.19,416.82h4.67v21.17h-4.67V416.82z"/>
			</g>
		</g>
		<g>
			<rect x="645.24" y="391.53" class="st3" width="63.68" height="63.68"/>
			<rect x="650.1" y="396.39" class="st4" width="53.95" height="53.95"/>
			<g>
				<path class="st3" d="M665.63,410.14h4.83l10,25.95h-4.87l-2.44-6.87h-10.36l-2.44,6.87h-4.69L665.63,410.14z M664.03,425.77
					h7.92l-3.89-11.16h-0.11L664.03,425.77z"/>
				<path class="st3" d="M684.59,427.77c0,2.94,1.6,5.56,5.05,5.56c2.4,0,3.85-1.05,4.58-3.13h3.93c-0.91,4.11-4.4,6.4-8.51,6.4
					c-5.89,0-9.2-4.11-9.2-9.89c0-5.34,3.49-9.92,9.09-9.92c5.93,0,9.56,5.34,8.87,10.98H684.59z M694.26,425.04
					c-0.15-2.62-1.93-4.98-4.73-4.98c-2.87,0-4.83,2.18-4.94,4.98H694.26z"/>
			</g>
		</g>
		<g>
			<rect x="723.53" y="391.53" class="st5" width="63.68" height="63.68"/>
			<rect x="728.4" y="396.39" class="st6" width="53.95" height="53.95"/>
			<g>
				<path class="st5" d="M734.17,408.46h12.9c8.35,0,9.95,5.4,9.95,9.05c0,3.6-1.6,9.01-9.95,8.97h-7.78v11.22h-5.12V408.46z
					 M739.28,422.3h7.49c2.29,0,5.12-1.15,5.12-4.83c0-3.85-2.33-4.83-5.04-4.83h-7.57V422.3z"/>
				<path class="st5" d="M762.41,430.9c0.25,2.7,2.29,3.68,4.79,3.68c1.76,0,4.83-0.37,4.71-2.78c-0.12-2.46-3.52-2.74-6.92-3.52
					c-3.44-0.74-6.8-1.97-6.8-6.26c0-4.63,5-6.06,8.84-6.06c4.34,0,8.27,1.8,8.84,6.51h-4.87c-0.41-2.21-2.25-2.82-4.3-2.82
					c-1.35,0-3.85,0.33-3.85,2.17c0,2.29,3.44,2.62,6.88,3.4c3.4,0.78,6.84,2.01,6.84,6.18c0,5.04-5.08,6.88-9.46,6.88
					c-5.32,0-9.29-2.37-9.38-7.37H762.41z"/>
			</g>
		</g>
		<g>
			<rect x="801.83" y="391.53" class="st7" width="63.68" height="63.68"/>
			<rect x="806.69" y="396.39" class="st8" width="53.95" height="53.95"/>
			<g>
				<path class="st7" d="M818.9,408.46h5.12v29.23h-5.12V408.46z"/>
				<path class="st7" d="M848.44,437.7h-4.42v-2.87h-0.08c-1.23,2.42-3.89,3.44-6.55,3.44c-6.67,0-9.91-4.95-9.91-11.3
					c0-7.66,4.54-11.01,9.17-11.01c2.66,0,5.61,0.98,7.04,3.32h0.08v-10.81h4.67V437.7z M838,434.59c4.18,0,5.94-3.81,5.94-7.49
					c0-4.67-2.25-7.45-5.85-7.45c-4.38,0-5.94,3.89-5.94,7.7C832.14,430.98,833.95,434.59,838,434.59z"/>
			</g>
		</g>
	</g>
	<g>
		<g>
			<g>
				<g>
					<path class="st9" d="M575.7,587.45h41.41v10.52h-28.89v14.54h27.06v10.51h-27.06v23.76H575.7V587.45z"/>
					<path class="st9" d="M689.52,616.92c0,16.51-9.91,30.73-29.19,30.73c-18.62,0-28.37-13.53-28.37-30.53
						c0-17.27,10.76-30.53,29.2-30.53C678.53,586.59,689.52,598.76,689.52,616.92z M645.22,616.86c0,11.58,5.08,20.35,15.6,20.35
						c11.41,0,15.45-9.55,15.45-20.13c0-11.22-4.6-20.05-15.66-20.05C649.9,597.03,645.22,605.31,645.22,616.86z"/>
					<path class="st9" d="M709.34,587.45h12.83v48.82h29.55l-1.47,10.52h-40.92V587.45z"/>
					<path class="st9" d="M781.21,587.45v59.33h-12.83v-59.33H781.21z"/>
					<path class="st9" d="M858.54,616.92c0,16.51-9.91,30.73-29.19,30.73c-18.62,0-28.37-13.53-28.37-30.53
						c0-17.27,10.76-30.53,29.2-30.53C847.54,586.59,858.54,598.76,858.54,616.92z M814.24,616.86c0,11.58,5.08,20.35,15.6,20.35
						c11.41,0,15.45-9.55,15.45-20.13c0-11.22-4.6-20.05-15.66-20.05C818.91,597.03,814.24,605.31,814.24,616.86z"/>
				</g>
			</g>
		</g>
		<path class="st10" d="M829.24,621.13l-4.06-4.06c-0.3-0.3-0.3-0.78,0-1.07l4.06-4.06c0.3-0.3,0.78-0.3,1.07,0l4.06,4.06
			c0.3,0.3,0.3,0.78,0,1.07l-4.06,4.06C830.02,621.42,829.54,621.42,829.24,621.13z"/>
		<path class="st10" d="M660.86,621.13l-4.06-4.06c-0.3-0.3-0.3-0.78,0-1.07l4.06-4.06c0.3-0.3,0.78-0.3,1.07,0l4.06,4.06
			c0.3,0.3,0.3,0.78,0,1.07l-4.06,4.06C661.64,621.42,661.16,621.42,660.86,621.13z"/>
	</g>
	<g>
		<g>
			<g>
				<path class="st9" d="M571.87,475.42h25.58c13.14,0,22.05,7.39,22.05,19.14c0,13.43-10.17,19.59-22.37,19.59h-11.89v23.09h-13.38
					V475.42z M585.25,503.51h10.2c6.19,0,10.56-2.38,10.56-8.69c0-6.38-4.61-8.76-10.28-8.76h-10.48V503.51z"/>
				<path class="st9" d="M705.28,506.12c0,17.21-10.33,32.02-30.41,32.02c-19.4,0-29.56-14.1-29.56-31.81
					c0-17.99,11.22-31.81,30.42-31.81C693.82,474.52,705.28,487.19,705.28,506.12z M659.12,506.06c0,12.07,5.3,21.2,16.26,21.2
					c11.89,0,16.1-9.96,16.1-20.97c0-11.7-4.79-20.89-16.31-20.89C663.99,485.4,659.12,494.02,659.12,506.06z"/>
				<path class="st9" d="M747.96,512.5v24.75H734.9v-61.83h27.17c13.48,0,20.74,7.43,20.74,16.97c0,8.3-4.52,12.79-8.98,14.63
					c3.06,1.13,7.68,4.32,7.68,15.38v3.05c0,4.16,0.04,8.89,0.89,11.79h-12.67c-1.09-2.69-1.29-7.32-1.29-13.88v-0.9
					c0-6.76-1.71-9.96-11.67-9.96H747.96z M747.96,501.85h11.21c7.32,0,10.14-2.78,10.14-7.95c0-5.03-3.29-7.84-9.82-7.84h-11.53
					V501.85z"/>
				<path class="st9" d="M824.55,486.37h-18.78v-10.96h50.88v10.96h-18.72v50.87h-13.38V486.37z"/>
			</g>
		</g>
	</g>
	<path class="st10" d="M674.01,510.62l-4.27-4.27c-0.3-0.3-0.3-0.78,0-1.07l4.27-4.27c0.3-0.3,0.78-0.3,1.07,0l4.27,4.27
		c0.3,0.3,0.3,0.78,0,1.07l-4.27,4.27C674.79,510.92,674.3,510.92,674.01,510.62z"/>
	<g>
		<g>
			<rect x="620.23" y="255.35" class="st11" width="192" height="60"/>
			<rect x="590.23" y="277.8" class="st12" width="252" height="60"/>
			<rect x="566.23" y="301.46" class="st0" width="300" height="60"/>
		</g>
		<rect x="631.9" y="284.43" class="st13" width="12" height="12"/>
		<rect x="747.34" y="270.94" class="st13" width="12" height="12"/>
		<rect x="772.09" y="296.77" class="st13" width="12" height="12"/>
		<rect x="786.25" y="329.82" class="st13" width="12" height="12"/>
		<rect x="728.01" y="318.32" class="st13" width="7.2" height="7.2"/>
		<rect x="604.63" y="322.93" class="st13" width="7.2" height="7.2"/>
		<rect x="817.03" y="289.44" class="st13" width="7.2" height="7.2"/>
	</g>
	<g>
		<g>
			
				<rect x="620.23" y="709.65" transform="matrix(-1 -1.224647e-16 1.224647e-16 -1 1432.4504 1479.2983)" class="st11" width="192" height="60"/>
			
				<rect x="590.23" y="695.67" transform="matrix(-1 -1.224647e-16 1.224647e-16 -1 1432.4504 1451.343)" class="st12" width="252" height="60"/>
			
				<rect x="566.23" y="688.94" transform="matrix(-1 -1.224647e-16 1.224647e-16 -1 1432.4504 1425.8771)" class="st0" width="300" height="48"/>
		</g>
	</g>
	<rect x="566.23" y="371.66" class="st14" width="300" height="12"/>
	<rect x="566.23" y="553.56" class="st15" width="300" height="12"/>
	<rect x="566.23" y="665.36" class="st16" width="300" height="12"/>
</g>
</svg>
