<?xml version="1.0" encoding="utf-8"?>
<!-- Generator: Adobe Illustrator 26.2.1, SVG Export Plug-In . SVG Version: 6.00 Build 0)  -->
<svg version="1.1" id="Layer_1" xmlns="http://www.w3.org/2000/svg" xmlns:xlink="http://www.w3.org/1999/xlink" x="0px" y="0px"
	 viewBox="0 0 140 230" style="enable-background:new 0 0 140 230;" xml:space="preserve">
<style type="text/css">
	.st0{fill:#856A60;}
	.st1{fill:#E67900;}
	.st2{fill:#F18815;}
	.st3{fill:#F39325;}
	.st4{fill:#FFDA6F;}
	.st5{fill:#CA4C36;}
	.st6{fill:#FCC978;}
	.st7{fill:#87BE73;}
	.st8{fill:#FFFFFF;}
</style>
<g>
	<g>
		<g>
			<g>
				<g>
					<path class="st0" d="M26.28,89.78l11.56-13.57c1.3-1.6,2.12-3.9,2.12-5.06l-0.04-1.23c0-1.6-2.08-3.2-3.64-3.2h-1
						c-1.6,0-3.35,1.6-3.35,3.2v0.71h-4.35v-1c0-4.16,3.53-7.33,8.29-7.33c6.58,0,9.59,3.9,9.59,8.11c0,2.86-0.6,4.65-2.53,6.88
						c-1.15,1.3-3.24,3.46-6.99,7.21h9.07v5.28L26.28,89.78L26.28,89.78z"/>
					<path class="st0" d="M59.11,89.78c-3.68,0-6.99-1.75-6.99-6.66v-13.8c0-4.95,4.95-6.69,8.26-6.69h1.71
						c4.02,0,8.26,1.78,8.26,6.73v13.42c0,4.05-2.75,6.99-7.36,6.99L59.11,89.78L59.11,89.78z M61.61,84.79
						c1.64,0,2.12-1.64,2.12-3.27v-12.2c0-1.67-0.52-3.35-2.08-3.35h-1.64c-1.64,0-2.94,1.67-2.94,3.35v12.2
						c0,1.64-0.33,3.27,2.98,3.27H61.61z"/>
					<path class="st0" d="M86.81,62.63v27.15h-6.69V67.69h-3.46v-5.06H86.81z"/>
					<path class="st0" d="M109.05,77.02l-8.37,12.79h-5.61l5.8-10.49c-0.67,0-2.57-0.22-3.12-0.41c-2.6-0.82-4.5-3.23-4.5-6.43V69.8
						c0-4.02,2.86-7.18,7.44-7.18h3.09c3.09,0,5.8,1.49,6.81,4.91C111.51,70.85,110.8,74.34,109.05,77.02z M97.15,71.67
						c0,2.08,1.26,2.9,2.86,3.01l2.38,0.11c1.64,0.11,3.42-1.15,3.42-2.79v-1.6c0-2.49-1.75-3.53-3.35-3.53h-2.27
						c-1.56,0-3.05,1.49-3.05,3.12v1.68H97.15z"/>
				</g>
			</g>
		</g>
		<g>
			<g>
				<rect x="31.02" y="4.63" class="st1" width="81.37" height="20.85"/>
				<rect x="18.31" y="14.14" class="st2" width="106.8" height="20.85"/>
				<rect x="8.13" y="24.17" class="st3" width="127.14" height="20.85"/>
			</g>
			<rect x="35.97" y="16.96" class="st4" width="5.09" height="5.09"/>
			<rect x="84.89" y="11.24" class="st4" width="5.09" height="5.09"/>
			<rect x="95.38" y="22.18" class="st4" width="5.09" height="5.09"/>
			<rect x="101.38" y="36.19" class="st4" width="5.09" height="5.09"/>
			<rect x="76.7" y="31.32" class="st4" width="3.05" height="3.05"/>
			<rect x="24.41" y="33.27" class="st4" width="3.05" height="3.05"/>
			<rect x="114.43" y="19.08" class="st4" width="3.05" height="3.05"/>
		</g>
		<g>
			<g>
				<rect x="31.02" y="125.44" class="st1" width="81.37" height="19.02"/>
				<rect x="18.3" y="119.51" class="st2" width="106.8" height="19.02"/>
				<rect x="8.14" y="116.66" class="st3" width="127.14" height="13.94"/>
			</g>
		</g>
		<rect x="8.13" y="49.35" class="st5" width="127.14" height="5.09"/>
		<rect x="8.13" y="96.68" class="st6" width="127.14" height="5.09"/>
		<rect x="8.13" y="106.67" class="st7" width="127.14" height="5.09"/>
	</g>
	<g>
		<g>
			<path class="st0" d="M5.31,200.73c-2.49-2.55-3.17-5.39-3.17-8.8c0-2.82,1.1-7.28,3.39-9.75h2.11c-1.67,3.06-2.44,6.29-2.44,9.7
				c0,3.32,0.77,5.92,2.29,8.84L5.31,200.73L5.31,200.73z"/>
			<path class="st0" d="M28.29,193.38h-7.13v6.16h-2.99v-6.16h-6.73v-2.73h16.85V193.38z M12.91,181.43H26.9v2.33h-5.19
				c0.95,1.8,3.28,3.08,4.91,3.65v2.02c-3.15-0.4-5.68-2.24-6.8-4.03c-1.01,2.07-4.71,3.81-6.84,4.33v-2.24
				c2.68-1.06,4.4-2.79,4.82-3.74h-4.88L12.91,181.43L12.91,181.43z"/>
			<path class="st0" d="M32.73,200.73c1.47-2.95,2.29-5.5,2.29-8.84c0-3.41-0.77-6.65-2.44-9.7h2.11c2.29,2.46,3.39,6.93,3.39,9.75
				c0,3.37-0.7,6.29-3.17,8.8L32.73,200.73L32.73,200.73z"/>
			<path class="st0" d="M48.41,181.96c1.61,0,2.95,1.34,2.95,3.01v3.04c0,1.69-1.34,3.04-2.95,3.04h-2.84
				c-1.58,0-3.04-1.34-3.04-3.04v-3.04c0-1.67,1.45-3.01,3.04-3.01H48.41z M43.77,193.07h13.25v2.51c-0.07,1.08-0.24,2.09-0.48,2.82
				c-0.13,0.42-0.26,0.81-0.42,1.19h-2.71c0.51-0.97,0.75-1.96,0.86-2.73c0.07-0.44,0.09-0.86,0.09-1.28H43.78v-2.51H43.77z
				 M48.76,185.59c0-0.77-0.53-1.3-1.3-1.3h-0.95c-0.77,0-1.41,0.53-1.41,1.3v1.83c0,0.73,0.64,1.3,1.41,1.3h0.95
				c0.77,0,1.3-0.57,1.3-1.3V185.59z M59.41,185.04v2.6h-2.49v4.07H54.1v-10.65h2.82v3.98L59.41,185.04L59.41,185.04z"/>
			<path class="st0" d="M66.51,195.52c-1.76,0-3.37-0.9-3.37-3.74v-5.35c0-2.31,0.68-4.11,3.87-4.11h1.47c2.4,0,3.72,1.39,3.72,4.14
				v5.08c0,2.49-1.52,3.98-3.28,3.98L66.51,195.52L66.51,195.52z M68.21,193.25c1.06,0,1.36-1.08,1.36-1.94v-4.44
				c0-0.97-0.07-2.22-1.36-2.22h-0.9c-1.32,0-1.5,1.03-1.5,2v4.55c0,0.7-0.31,2.05,1.45,2.05H68.21z M78.15,181.3v18.29h-2.82v-9.53
				h-2.38V187h2.38v-5.7L78.15,181.3L78.15,181.3z"/>
			<path class="st0" d="M83.06,183.2h9.44v11.29h-9.44V183.2z M89.89,192.02v-6.07h-4.27v6.07H89.89z M98.31,199.59h-2.9v-18.5h2.9
				V199.59z"/>
			<path class="st0" d="M105.72,185.59v7.35h7.11v2.77h-9.95v-12.7h9.42v2.57h-6.58V185.59z M117.82,199.54h-2.99v-18.46h2.99
				V199.54z"/>
			<path class="st0" d="M125.78,195.52c-1.76,0-3.37-0.9-3.37-3.74v-5.35c0-2.31,0.68-4.11,3.87-4.11h1.47
				c2.4,0,3.72,1.39,3.72,4.14v5.08c0,2.49-1.52,3.98-3.28,3.98L125.78,195.52L125.78,195.52z M127.48,193.25
				c1.06,0,1.36-1.08,1.36-1.94v-4.44c0-0.97-0.07-2.22-1.36-2.22h-0.9c-1.32,0-1.5,1.03-1.5,2v4.55c0,0.7-0.31,2.05,1.45,2.05
				H127.48z M137.42,181.3v18.29h-2.82v-9.53h-2.38V187h2.38v-5.7L137.42,181.3L137.42,181.3z"/>
			<path class="st0" d="M29.92,207.5h3.06v18.48h-3.06v-3.1H16.54v-2.6h4.99v-2.07h-0.31c-1.58,0-3.06-1.39-3.06-3.06v-2.6
				c0-0.68,0.22-1.34,0.64-1.85h-1.63v-2.09h3.92v-1.45h3.17v1.45h4.07v2.09h-1.87c0.42,0.51,0.64,1.14,0.64,1.85v2.6
				c0,1.67-1.41,3.06-3.01,3.06v2.07h5.83V207.5z M24.42,213.18c0-0.77-0.51-1.32-1.28-1.32h-0.97c-0.77,0-1.39,0.55-1.39,1.32v1.36
				c0,0.77,0.62,1.34,1.39,1.34h0.97c0.77,0,1.28-0.57,1.28-1.34V213.18z"/>
			<path class="st0" d="M46.95,218.51v2.77c-0.55-0.2-1.12-0.46-1.72-0.81c-0.99-0.59-2.24-1.52-3.23-3.01
				c-0.99,1.5-2.22,2.42-3.21,3.01c-0.59,0.35-1.17,0.62-1.74,0.81v-2.77c0.22-0.13,0.42-0.26,0.62-0.42
				c0.33-0.24,0.68-0.53,0.92-0.77c1.72-1.83,2.11-3.56,2.11-6.12v-2.09h2.86v2.09c0,2.55,0.46,4.53,1.98,6.14
				C45.93,217.76,46.4,218.13,46.95,218.51z M54.52,213.64v2.86h-2.53v9.48h-2.82v-18.26h2.82v5.92L54.52,213.64L54.52,213.64z"/>
			<path class="st0" d="M77.91,208.61v2.55h-3.98c0.42,1.14,1.32,2.13,2.18,2.84c0.48,0.42,1.01,0.79,1.56,1.12v2.71
				c-1.3-0.42-2.46-1.39-3.34-2.27c-0.51-0.51-0.99-1.08-1.43-1.67c-0.73,1.39-2.02,2.38-3.15,3.01c-0.66,0.37-1.34,0.7-2.05,0.95
				v-2.55c2.55-1.25,3.65-3.1,4.05-4.14h-4.29v-2.55L77.91,208.61L77.91,208.61z M68.98,219.47h13.25v2.51
				c-0.07,1.08-0.24,2.09-0.48,2.82c-0.13,0.42-0.26,0.81-0.42,1.19h-2.71c0.51-0.97,0.75-1.96,0.86-2.73
				c0.07-0.44,0.09-0.86,0.09-1.28H68.99v-2.51H68.98z M84.63,211.22v2.6h-2.49v3.85h-2.62v-10.21h2.62v3.76L84.63,211.22
				L84.63,211.22z"/>
			<path class="st0" d="M93.62,208.34c1.58,0,2.95,1.3,2.95,2.95v2.99c0,1.61-1.36,2.95-2.95,2.95H90.8c-1.56,0-2.97-1.34-2.97-2.95
				v-2.99c0-1.65,1.45-2.95,3.01-2.95H93.62z M93.97,211.88c0-0.73-0.53-1.25-1.25-1.25h-0.95c-0.7,0-1.36,0.53-1.36,1.25v1.8
				c0,0.73,0.66,1.28,1.36,1.28h0.95c0.73,0,1.25-0.55,1.25-1.28V211.88z M90.8,226.19v-7.22h2.82v1.52h7.04v-1.52h2.64v7.22H90.8z
				 M100.67,224.25v-1.72h-7.04v1.72H100.67z M103.3,207.48v10.3h-2.73v-3.63h-2.95v-2.57h2.95v-4.09L103.3,207.48L103.3,207.48z"/>
			<path class="st0" d="M123.78,217.12h-6.54v1.21h4.88v4.88h-10.3v0.9h10.52v1.91h-13.11v-4.93h9.77v-1.01h-9.77v-1.76h5.26v-1.21
				h-6.58v-2.02h15.86L123.78,217.12L123.78,217.12z M122.02,207.48v6.36h-12.56v-6.36H122.02z M119.82,209.75h-8.12v1.83h8.12
				V209.75z"/>
		</g>
	</g>
	<g>
		<g>
			<rect x="91.13" y="-14.99" class="st8" width="36.4" height="36.4"/>
			<rect x="76.32" y="2.58" class="st8" width="18.2" height="18.2"/>
			<rect x="102.34" y="19.51" class="st8" width="13.98" height="13.98"/>
			<rect x="84.27" y="11.68" class="st8" width="18.2" height="18.2"/>
			<rect x="79.94" y="15.98" class="st8" width="11.39" height="11.39"/>
		</g>
		<rect x="112.43" y="17.95" class="st8" width="13.87" height="12.45"/>
	</g>
</g>
</svg>
