<?xml version="1.0" encoding="utf-8"?>
<!-- Generator: Adobe Illustrator 26.2.1, SVG Export Plug-In . SVG Version: 6.00 Build 0)  -->
<svg version="1.1" id="Layer_1" xmlns="http://www.w3.org/2000/svg" xmlns:xlink="http://www.w3.org/1999/xlink" x="0px" y="0px"
	 viewBox="0 0 170 230" style="enable-background:new 0 0 170 230;" xml:space="preserve">
<style type="text/css">
	.st0{enable-background:new    ;}
	.st1{fill:#866B61;}
	.st2{fill:#E67906;}
	.st3{fill:#F18817;}
	.st4{fill:#F39327;}
	.st5{fill:#FFDA70;}
	.st6{fill:#CC4D36;}
	.st7{fill:#FCC978;}
	.st8{fill:#88BF74;}
</style>
<g>
	<g>
		<g>
			<g>
				<g class="st0">
					<path class="st1" d="M40.78,89.78l11.57-13.57c1.3-1.6,2.12-3.9,2.12-5.06l-0.04-1.23c0-1.6-2.08-3.2-3.64-3.2h-1
						c-1.6,0-3.35,1.6-3.35,3.2v0.71h-4.35v-1c0-4.17,3.53-7.33,8.29-7.33c6.58,0,9.59,3.9,9.59,8.11c0,2.86-0.59,4.65-2.53,6.88
						c-1.15,1.3-3.24,3.46-6.99,7.21h9.07v5.28L40.78,89.78L40.78,89.78z"/>
					<path class="st1" d="M73.61,89.78c-3.68,0-6.99-1.75-6.99-6.66v-13.8c0-4.95,4.95-6.69,8.25-6.69h1.71
						c4.02,0,8.26,1.79,8.26,6.73v13.42c0,4.05-2.75,6.99-7.36,6.99L73.61,89.78L73.61,89.78z M76.1,84.79
						c1.64,0,2.12-1.64,2.12-3.27v-12.2c0-1.67-0.52-3.35-2.08-3.35H74.5c-1.64,0-2.94,1.67-2.94,3.35v12.2
						c0,1.64-0.33,3.27,2.97,3.27H76.1z"/>
					<path class="st1" d="M101.31,62.63v27.15h-6.69V67.69h-3.46v-5.06H101.31z"/>
					<path class="st1" d="M125.71,83.12c0,3.42-2.49,6.99-7.36,7.1h-1.67c-0.86,0-1.67,0-1.79-0.04c-2.97-0.3-5.91-2.53-6.69-5.62
						c-0.74-2.68-0.07-5.73,1.08-8.11l7.4-13.83h5.76l-4.57,10.49c4.76,0.11,7.85,2.97,7.85,7.73v2.28L125.71,83.12L125.71,83.12z
						 M121.84,81.37c0-1.79-1.08-3.5-3.42-3.5l-1.82-0.04c-2.12,0-3.57,1.6-3.57,3.57v1.23c0,1.93,1.75,3.27,3.38,3.27h1.97
						c1.97,0,3.46-1.41,3.46-3.16V81.37z"/>
				</g>
			</g>
		</g>
		<g>
			<g>
				<rect x="45.97" y="4.63" class="st2" width="81.37" height="20.85"/>
				<rect x="33.25" y="14.14" class="st3" width="106.8" height="20.85"/>
				<rect x="23.08" y="24.17" class="st4" width="127.14" height="20.85"/>
			</g>
			<rect x="50.91" y="16.96" class="st5" width="5.09" height="5.09"/>
			<rect x="99.84" y="11.24" class="st5" width="5.09" height="5.09"/>
			<rect x="110.33" y="22.18" class="st5" width="5.09" height="5.09"/>
			<rect x="116.33" y="36.19" class="st5" width="5.09" height="5.09"/>
			<rect x="91.65" y="31.32" class="st5" width="3.05" height="3.05"/>
			<rect x="39.36" y="33.27" class="st5" width="3.05" height="3.05"/>
			<rect x="129.37" y="19.08" class="st5" width="3.05" height="3.05"/>
		</g>
		<g>
			<g>
				<rect x="45.97" y="125.44" class="st2" width="81.37" height="19.02"/>
				<rect x="33.26" y="119.51" class="st3" width="106.8" height="19.02"/>
				<rect x="23.09" y="116.66" class="st4" width="127.14" height="13.94"/>
			</g>
		</g>
		<rect x="23.08" y="49.35" class="st6" width="127.14" height="5.09"/>
		<rect x="23.08" y="96.68" class="st7" width="127.14" height="5.09"/>
		<rect x="23.08" y="106.67" class="st8" width="127.14" height="5.09"/>
	</g>
	<g>
		<g class="st0">
			<path class="st1" d="M45.63,200.73c-2.49-2.55-3.17-5.39-3.17-8.8c0-2.82,1.1-7.28,3.39-9.75h2.11c-1.67,3.06-2.44,6.29-2.44,9.7
				c0,3.32,0.77,5.92,2.29,8.84L45.63,200.73L45.63,200.73z"/>
			<path class="st1" d="M68.88,193.38h-7.13v6.16h-2.99v-6.16h-6.73v-2.73h16.85V193.38z M53.5,181.43h13.99v2.33H62.3
				c0.95,1.8,3.28,3.08,4.91,3.65v2.02c-3.15-0.4-5.68-2.25-6.8-4.03c-1.01,2.07-4.71,3.81-6.84,4.33v-2.24
				c2.68-1.06,4.4-2.79,4.82-3.74h-4.88L53.5,181.43L53.5,181.43z"/>
			<path class="st1" d="M73.1,200.73c1.47-2.95,2.29-5.5,2.29-8.84c0-3.41-0.77-6.65-2.44-9.7h2.11c2.29,2.46,3.39,6.93,3.39,9.75
				c0,3.37-0.7,6.29-3.17,8.8L73.1,200.73L73.1,200.73z"/>
			<path class="st1" d="M96.34,182.2l-4.95,10.34v5.68h-4.27v-5.92l-4.88-10.1h3.92l3.3,7.44l3.12-7.44L96.34,182.2L96.34,182.2z"/>
			<path class="st1" d="M99.94,182.2h6.54c4.14,0,5.21,2,5.21,4.11c0,2.31-1.34,2.99-2.05,3.34c1.96,0.77,2.55,2.02,2.49,3.78
				c-0.11,3.21-2.55,4.78-6.45,4.78h-5.74V182.2z M103.57,188.74h3.01c1.72,0,3.04-0.75,3.04-2.35c0-1.43-1.14-2.16-3.15-2.16h-2.9
				L103.57,188.74L103.57,188.74z M103.66,195.56h3.19c2,0,2.93-1.23,2.93-2.46c0-1.65-1.28-2.44-2.75-2.44h-3.37V195.56z"/>
			<path class="st1" d="M122.73,192.33h-3.12v5.9h-3.5v-16.06h6.6c2.09,0,5.68,0.53,5.68,5.5
				C128.39,191.12,126.04,192.26,122.73,192.33z M122.4,190.26c1.74,0,2.73-0.79,2.73-2.55s-0.75-2.6-2.53-2.62h-2.99v5.17H122.4z"
				/>
		</g>
		<g class="st0">
			<path class="st1" d="M5.22,221.72c-1.76,0-3.78-0.9-3.78-3.74v-5.35c0-2.31,1.08-4.11,4.25-4.11h1.25c2.4,0,4.16,1.41,4.16,4.14
				v5.08c0,2.49-1.98,3.98-3.72,3.98H5.22z M6.65,219.45c1.08,0,1.8-1.08,1.8-1.94v-4.44c0-0.97-0.48-2.22-1.8-2.22H5.97
				c-1.32,0-1.87,1.03-1.87,2v4.55c0,0.7,0.11,2.05,1.87,2.05H6.65z M18.4,213.45v2.84h-2.46v9.53H13.1v-18.33h2.84v5.96
				L18.4,213.45L18.4,213.45z"/>
			<path class="st1" d="M38.16,223.99H21.7v-2.49h16.46V223.99z M23.11,213.12h10.32v-1.72H23.11v-2.53H36.4v6.4H26.08v1.47H36.4
				v2.29H23.11V213.12z"/>
			<path class="st1" d="M48.93,209h2.6v12.83h-9.2V209h2.75v3.61h3.85L48.93,209L48.93,209z M45.08,218.97h3.85v-3.5h-3.85V218.97z
				 M56.79,213.67h2.55v2.84h-2.55v9.5h-2.82v-18.28h2.82V213.67z"/>
			<path class="st1" d="M66.25,222.07c-1.56,0-3.39-1.03-3.39-3.85v-5.24c0-2.29,1.5-4.05,4.05-4.05h1.96
				c2.44,0,3.96,1.83,3.96,4.11v5.3c0,2.22-1.47,3.72-3.01,3.72h-3.57V222.07z M68.45,219.8c1.1,0,1.61-1.06,1.61-1.89v-4.67
				c0-0.95-0.73-1.78-1.61-1.78h-1.1c-0.88,0-1.69,0.84-1.69,1.78v4.67c0,1.43,0.57,1.89,1.69,1.89H68.45z M77.62,225.99h-2.95
				v-18.5h2.95V225.99z"/>
			<path class="st1" d="M82.02,224.05v-2.68h16.61v2.68H82.02z M96.19,208.21v2.49H84.11v-2.49H96.19z M86.86,216.68h9.57v2.49
				H84.11v-6.84h12.08v2.49h-9.33V216.68z"/>
			<path class="st1" d="M122.28,208.61v2.55h-3.98c0.42,1.14,1.32,2.13,2.18,2.84c0.48,0.42,1.01,0.79,1.56,1.12v2.71
				c-1.3-0.42-2.46-1.39-3.34-2.27c-0.51-0.51-0.99-1.08-1.43-1.67c-0.73,1.39-2.02,2.38-3.15,3.01c-0.66,0.37-1.34,0.7-2.05,0.95
				v-2.55c2.55-1.25,3.65-3.1,4.05-4.14h-4.29v-2.55L122.28,208.61L122.28,208.61z M113.35,219.47h13.25v2.51
				c-0.07,1.08-0.24,2.09-0.48,2.82c-0.13,0.42-0.26,0.81-0.42,1.19h-2.71c0.51-0.97,0.75-1.96,0.86-2.73
				c0.07-0.44,0.09-0.86,0.09-1.28h-10.58v-2.51H113.35z M128.99,211.22v2.6h-2.49v3.85h-2.62v-10.21h2.62v3.76L128.99,211.22
				L128.99,211.22z"/>
			<path class="st1" d="M138.19,208.34c1.58,0,2.95,1.3,2.95,2.95v2.99c0,1.61-1.36,2.95-2.95,2.95h-2.82
				c-1.56,0-2.97-1.34-2.97-2.95v-2.99c0-1.65,1.45-2.95,3.01-2.95H138.19z M138.54,211.88c0-0.73-0.53-1.25-1.25-1.25h-0.95
				c-0.7,0-1.36,0.53-1.36,1.25v1.8c0,0.73,0.66,1.28,1.36,1.28h0.95c0.73,0,1.25-0.55,1.25-1.28V211.88z M135.37,226.19v-7.22h2.82
				v1.52h7.04v-1.52h2.64v7.22H135.37z M145.23,224.25v-1.72h-7.04v1.72H145.23z M147.87,207.48v10.3h-2.73v-3.63h-2.95v-2.57h2.95
				v-4.09L147.87,207.48L147.87,207.48z"/>
			<path class="st1" d="M168.13,217.12h-6.54v1.21h4.88v4.88h-10.3v0.9h10.52v1.92h-13.11v-4.93h9.77v-1.01h-9.77v-1.76h5.26v-1.21
				h-6.58v-2.02h15.86L168.13,217.12L168.13,217.12z M166.37,207.48v6.36h-12.56v-6.36H166.37z M164.17,209.75h-8.12v1.83h8.12
				V209.75z"/>
		</g>
	</g>
</g>
</svg>
