<?xml version="1.0" encoding="utf-8"?>
<!-- Generator: Adobe Illustrator 26.2.1, SVG Export Plug-In . SVG Version: 6.00 Build 0)  -->
<svg version="1.1" id="Layer_1" xmlns="http://www.w3.org/2000/svg" xmlns:xlink="http://www.w3.org/1999/xlink" x="0px" y="0px"
	 viewBox="0 0 170 230" style="enable-background:new 0 0 170 230;" xml:space="preserve">
<style type="text/css">
	.st0{enable-background:new    ;}
	.st1{fill:#866B61;}
	.st2{fill:#E67906;}
	.st3{fill:#F18817;}
	.st4{fill:#F39327;}
	.st5{fill:#FFDA70;}
	.st6{fill:#CC4D36;}
	.st7{fill:#FCC978;}
	.st8{fill:#88BF74;}
</style>
<g>
	<g>
		<g>
			<g>
				<g class="st0">
					<path class="st1" d="M40.92,89.79l11.57-13.57c1.3-1.6,2.12-3.9,2.12-5.06l-0.04-1.23c0-1.6-2.08-3.2-3.64-3.2h-1
						c-1.6,0-3.35,1.6-3.35,3.2v0.71h-4.35v-1c0-4.17,3.53-7.33,8.29-7.33c6.58,0,9.59,3.9,9.59,8.11c0,2.86-0.59,4.65-2.53,6.88
						c-1.15,1.3-3.24,3.46-6.99,7.21h9.07v5.28L40.92,89.79L40.92,89.79z"/>
					<path class="st1" d="M73.75,89.79c-3.68,0-6.99-1.75-6.99-6.66v-13.8c0-4.95,4.95-6.69,8.25-6.69h1.71
						c4.02,0,8.26,1.79,8.26,6.73v13.42c0,4.05-2.75,6.99-7.36,6.99L73.75,89.79L73.75,89.79z M76.25,84.8
						c1.64,0,2.12-1.64,2.12-3.27v-12.2c0-1.67-0.52-3.35-2.08-3.35h-1.64c-1.64,0-2.94,1.67-2.94,3.35v12.2
						c0,1.64-0.33,3.27,2.97,3.27H76.25z"/>
					<path class="st1" d="M101.46,62.64v27.15h-6.69V67.7h-3.46v-5.06H101.46z"/>
					<path class="st1" d="M126.19,81.64c0,6.47-4.65,7.96-6.88,8.37c-0.74,0.19-3.53,0.45-5.28,0.04c-0.82-0.11-3.35-0.78-5.24-2.16
						v-5.06c0.71,1.12,2.79,2.53,4.87,3.24c0.82,0.3,2.79,0.48,3.5,0.37c2.31-0.3,3.05-2.49,3.05-4.13c0-1.9-0.41-4.2-3.23-5.17
						c-2.75-0.97-5.84-0.74-8.11-0.63V62.64h15.73v5.32h-12.01v4.02c1.67-0.04,2.75,0.04,4.35,0.22
						C121.54,72.79,126.19,75.02,126.19,81.64z"/>
				</g>
			</g>
		</g>
		<g>
			<g>
				<rect x="46.18" y="4.64" class="st2" width="81.37" height="20.85"/>
				<rect x="33.47" y="14.15" class="st3" width="106.8" height="20.85"/>
				<rect x="23.3" y="24.18" class="st4" width="127.14" height="20.85"/>
			</g>
			<rect x="51.13" y="16.97" class="st5" width="5.09" height="5.09"/>
			<rect x="100.06" y="11.25" class="st5" width="5.09" height="5.09"/>
			<rect x="110.55" y="22.19" class="st5" width="5.09" height="5.09"/>
			<rect x="116.55" y="36.2" class="st5" width="5.09" height="5.09"/>
			<rect x="91.87" y="31.33" class="st5" width="3.05" height="3.05"/>
			<rect x="39.57" y="33.28" class="st5" width="3.05" height="3.05"/>
			<rect x="129.59" y="19.09" class="st5" width="3.05" height="3.05"/>
		</g>
		<g>
			<g>
				<rect x="46.19" y="125.45" class="st2" width="81.37" height="19.02"/>
				<rect x="33.47" y="119.52" class="st3" width="106.8" height="19.02"/>
				<rect x="23.3" y="116.67" class="st4" width="127.14" height="13.94"/>
			</g>
		</g>
		<rect x="23.3" y="49.36" class="st6" width="127.14" height="5.09"/>
		<rect x="23.3" y="96.69" class="st7" width="127.14" height="5.09"/>
		<rect x="23.3" y="106.68" class="st8" width="127.14" height="5.09"/>
	</g>
	<g>
		<g class="st0">
			<path class="st1" d="M4.8,185.34v7.24h5.59v2.84H1.98v-12.67h7.96v2.6L4.8,185.34L4.8,185.34z M16.29,181.22h2.68v18.17h-2.68
				v-9.31h-1.83l0.04,9.31h-2.79v-18.17h2.75v6.07h1.83V181.22z"/>
			<path class="st1" d="M29.93,182.35h3.54v2.02h-1.58c0.51,0.53,0.81,1.25,0.81,2.02v2.29c0,1.85-1.36,3.17-2.93,3.17h-2.73
				c-1.56,0-2.95-1.3-2.95-2.95v-2.51c0-0.77,0.31-1.5,0.81-2.02h-1.54v-2.02h3.54v-1.25h3.01v1.25L29.93,182.35L29.93,182.35z
				 M24.87,193.08h13.25v2.51c-0.07,1.08-0.24,2.09-0.48,2.82c-0.13,0.42-0.26,0.81-0.42,1.19h-2.71c0.51-0.97,0.75-1.96,0.86-2.73
				c0.07-0.44,0.09-0.86,0.09-1.28H24.88v-2.51H24.87z M30.15,186.97c0-0.7-0.53-1.23-1.25-1.23h-0.92c-0.7,0-1.34,0.53-1.34,1.23
				v1.41c0,0.73,0.42,1.25,1.12,1.25h1.23c0.73,0,1.17-0.53,1.17-1.25v-1.41H30.15z M40.51,184.83v2.6h-2.49v3.85H35.4v-10.21h2.62
				v3.76L40.51,184.83L40.51,184.83z"/>
			<path class="st1" d="M59.45,196.93H43.81v-2.55h2.84v-4.27h2.27v4.27h1.98v-4.27h2.2v4.27h6.36L59.45,196.93L59.45,196.93z
				 M58.46,182.21v2.18c0,3.1-0.51,5.41-1.01,6.93c-0.29,0.9-0.64,1.67-1.01,2.29h-2.86c1.83-3.41,1.91-7.2,1.74-8.76H45.04v-2.64
				L58.46,182.21L58.46,182.21z"/>
			<path class="st1" d="M78.83,186.26c0,2.75,0.86,4.64,3.43,6.29v2.97c-0.59-0.29-1.17-0.62-1.76-1.01
				c-0.99-0.68-2.24-1.69-3.21-3.17c-0.86,1.47-2.16,2.49-3.23,3.17c-0.64,0.4-1.28,0.73-1.96,1.01v-2.95
				c2.62-1.32,3.7-3.41,3.7-6.31v-3.65h3.04v3.65L78.83,186.26L78.83,186.26z M87.46,199.6h-3.12v-18.29h3.12V199.6z"/>
			<path class="st1" d="M100.63,182.43v2.05c0.02,2.09-0.55,3.87-1.14,5.13c-0.35,0.75-0.75,1.41-1.19,2h-3.04
				c2.07-2.82,2.31-5.39,2.31-6.75h-6.16v-2.42h9.22V182.43z M92.82,193.08h13.25v2.51c-0.07,1.08-0.24,2.09-0.48,2.82
				c-0.13,0.42-0.26,0.81-0.42,1.19h-2.71c0.51-0.97,0.75-1.96,0.86-2.73c0.07-0.44,0.09-0.86,0.09-1.28H92.83v-2.51H92.82z
				 M108.47,184.83v2.6h-2.49v3.85h-2.62v-10.21h2.62v3.76L108.47,184.83L108.47,184.83z"/>
			<path class="st1" d="M115.04,185.6v7.35h7.11v2.77h-9.95v-12.7h9.42v2.58H115.04z M127.14,199.55h-2.99v-18.46h2.99V199.55z"/>
			<path class="st1" d="M138.19,185.27c-0.09,1.32-0.15,6.38,3.48,7.61v2.55c-0.73-0.18-1.43-0.44-2.07-0.79
				c-1.1-0.57-2.33-1.63-2.86-3.23c-0.55,1.76-1.76,2.73-2.88,3.32c-0.64,0.33-1.34,0.57-2.07,0.7v-2.55
				c3.63-1.23,3.48-6.29,3.39-7.61h-3.41v-2.46h9.95v2.46L138.19,185.27L138.19,185.27z M146.48,187.28h2.75v2.84h-2.75v9.5h-3.06
				v-18.28h3.06V187.28z"/>
			<path class="st1" d="M161.9,184.61v3.17c0,1.76-1.41,3.19-3.08,3.19h-2.99c-1.67,0-3.19-1.43-3.19-3.19v-3.17
				c0-1.78,1.52-3.17,3.19-3.17h2.99C160.49,181.44,161.9,182.83,161.9,184.61z M154.62,199.38v-6.27h3.01v3.59h9.95v2.68H154.62z
				 M159.17,185.23c0-0.77-0.57-1.34-1.34-1.34h-1.03c-0.77,0-1.43,0.57-1.43,1.34v1.91c0,0.79,0.66,1.36,1.43,1.36h1.03
				c0.77,0,1.34-0.57,1.34-1.36V185.23z M167.58,192.84h-2.93v-11.77h2.93V192.84z"/>
		</g>
		<g class="st0">
			<path class="st1" d="M42.18,208.92v2.68c0,5.79-2.09,8.12-2.4,8.49h3.83v-12.63h3.08v5.13h2.07v2.9h-2.07v10.5h-3.08v-3.32h-13.4
				v-2.57h4v-3.52h2.35v3.52h0.48c1.69-3.23,1.87-7.06,1.87-8.58h-7.55v-2.6H42.18z"/>
			<path class="st1" d="M58.75,211.5c-0.09,1.3-0.26,7.02,3.41,8.25v2.57c-0.7-0.13-1.36-0.37-2-0.73
				c-1.08-0.59-2.33-1.58-2.97-3.34c-0.53,1.65-1.74,2.64-2.79,3.26c-0.64,0.37-1.3,0.64-2,0.81v-2.57
				c3.65-1.25,3.35-6.95,3.26-8.25h-3.48v-2.35h10.25v2.35H58.75z M63.46,207.47h2.68V226h-2.68v-9.15h-2.49v-3.12h2.49V207.47z
				 M70.08,207.47V226h-2.64v-18.53H70.08z"/>
			<path class="st1" d="M94.39,208.61v2.55h-3.98c0.42,1.14,1.32,2.13,2.18,2.84c0.48,0.42,1.01,0.79,1.56,1.12v2.71
				c-1.3-0.42-2.46-1.39-3.34-2.27c-0.51-0.51-0.99-1.08-1.43-1.67c-0.73,1.39-2.02,2.38-3.15,3.01c-0.66,0.37-1.34,0.7-2.05,0.95
				v-2.55c2.55-1.25,3.65-3.1,4.05-4.14h-4.29v-2.55L94.39,208.61L94.39,208.61z M85.46,219.48h13.25v2.51
				c-0.07,1.08-0.24,2.09-0.48,2.82c-0.13,0.42-0.26,0.81-0.42,1.19H95.1c0.51-0.97,0.75-1.96,0.86-2.73
				c0.07-0.44,0.09-0.86,0.09-1.28H85.47v-2.51H85.46z M101.1,211.23v2.6h-2.49v3.85h-2.62v-10.21h2.62v3.76L101.1,211.23
				L101.1,211.23z"/>
			<path class="st1" d="M110.3,208.35c1.58,0,2.95,1.3,2.95,2.95v2.99c0,1.61-1.37,2.95-2.95,2.95h-2.82
				c-1.56,0-2.97-1.34-2.97-2.95v-2.99c0-1.65,1.45-2.95,3.01-2.95H110.3z M110.65,211.89c0-0.73-0.53-1.25-1.25-1.25h-0.95
				c-0.71,0-1.37,0.53-1.37,1.25v1.8c0,0.73,0.66,1.28,1.37,1.28h0.95c0.73,0,1.25-0.55,1.25-1.28V211.89z M107.48,226.19v-7.22
				h2.82v1.52h7.04v-1.52h2.64v7.22H107.48z M117.34,224.26v-1.72h-7.04v1.72H117.34z M119.98,207.49v10.3h-2.73v-3.63h-2.95v-2.57
				h2.95v-4.09L119.98,207.49L119.98,207.49z"/>
			<path class="st1" d="M140.24,217.13h-6.54v1.21h4.88v4.88h-10.3v0.9h10.52v1.92h-13.11v-4.93h9.77v-1.01h-9.77v-1.76h5.26v-1.21
				h-6.58v-2.02h15.86v2.02H140.24z M138.48,207.49v6.36h-12.56v-6.36H138.48z M136.28,209.76h-8.12v1.83h8.12V209.76z"/>
		</g>
	</g>
</g>
</svg>
