<?xml version="1.0" encoding="utf-8"?>
<!-- Generator: Adobe Illustrator 26.2.1, SVG Export Plug-In . SVG Version: 6.00 Build 0)  -->
<svg version="1.1" id="Layer_1" xmlns="http://www.w3.org/2000/svg" xmlns:xlink="http://www.w3.org/1999/xlink" x="0px" y="0px"
	 viewBox="0 0 130 230" style="enable-background:new 0 0 130 230;" xml:space="preserve">
<style type="text/css">
	.st0{enable-background:new    ;}
	.st1{fill:#866B61;}
	.st2{fill:#E67906;}
	.st3{fill:#F18817;}
	.st4{fill:#F39327;}
	.st5{fill:#FFDA70;}
	.st6{fill:#CC4D36;}
	.st7{fill:#FCC978;}
	.st8{fill:#88BF74;}
</style>
<g>
	<g>
		<g>
			<g>
				<g class="st0">
					<path class="st1" d="M15.53,89.78l11.56-13.57c1.3-1.6,2.12-3.9,2.12-5.06l-0.04-1.23c0-1.6-2.08-3.2-3.64-3.2h-1
						c-1.6,0-3.35,1.6-3.35,3.2v0.71h-4.35v-1c0-4.17,3.53-7.33,8.29-7.33c6.58,0,9.59,3.9,9.59,8.11c0,2.86-0.6,4.65-2.53,6.88
						c-1.15,1.3-3.24,3.46-6.99,7.21h9.07v5.28L15.53,89.78L15.53,89.78z"/>
					<path class="st1" d="M48.36,89.78c-3.68,0-6.99-1.75-6.99-6.66v-13.8c0-4.95,4.95-6.69,8.26-6.69h1.71
						c4.02,0,8.26,1.79,8.26,6.73v13.42c0,4.05-2.75,6.99-7.36,6.99L48.36,89.78L48.36,89.78z M50.86,84.79
						c1.64,0,2.12-1.64,2.12-3.27v-12.2c0-1.67-0.52-3.35-2.08-3.35h-1.64c-1.64,0-2.94,1.67-2.94,3.35v12.2
						c0,1.64-0.33,3.27,2.98,3.27H50.86z"/>
					<path class="st1" d="M65.51,89.78l11.56-13.57c1.3-1.6,2.12-3.9,2.12-5.06l-0.04-1.23c0-1.6-2.08-3.2-3.64-3.2h-1
						c-1.6,0-3.35,1.6-3.35,3.2v0.71h-4.35v-1c0-4.17,3.53-7.33,8.29-7.33c6.58,0,9.59,3.9,9.59,8.11c0,2.86-0.6,4.65-2.53,6.88
						c-1.15,1.3-3.24,3.46-6.99,7.21h9.07v5.28L65.51,89.78L65.51,89.78z"/>
					<path class="st1" d="M89.83,89.78l11.56-13.57c1.3-1.6,2.12-3.9,2.12-5.06l-0.04-1.23c0-1.6-2.08-3.2-3.64-3.2h-1
						c-1.6,0-3.35,1.6-3.35,3.2v0.71h-4.35v-1c0-4.17,3.53-7.33,8.29-7.33c6.58,0,9.59,3.9,9.59,8.11c0,2.86-0.6,4.65-2.53,6.88
						c-1.15,1.3-3.24,3.46-6.99,7.21h9.07v5.28L89.83,89.78L89.83,89.78z"/>
				</g>
			</g>
		</g>
		<g>
			<g>
				<rect x="24.9" y="4.63" class="st2" width="81.37" height="20.85"/>
				<rect x="12.19" y="14.14" class="st3" width="106.8" height="20.85"/>
				<rect x="2.02" y="24.17" class="st4" width="127.14" height="20.85"/>
			</g>
			<rect x="29.85" y="16.96" class="st5" width="5.09" height="5.09"/>
			<rect x="78.77" y="11.24" class="st5" width="5.09" height="5.09"/>
			<rect x="89.26" y="22.18" class="st5" width="5.09" height="5.09"/>
			<rect x="95.26" y="36.19" class="st5" width="5.09" height="5.09"/>
			<rect x="70.58" y="31.32" class="st5" width="3.05" height="3.05"/>
			<rect x="18.29" y="33.27" class="st5" width="3.05" height="3.05"/>
			<rect x="108.31" y="19.08" class="st5" width="3.05" height="3.05"/>
		</g>
		<g>
			<g>
				<rect x="24.91" y="125.44" class="st2" width="81.37" height="19.02"/>
				<rect x="12.19" y="119.51" class="st3" width="106.8" height="19.02"/>
				<rect x="2.02" y="116.66" class="st4" width="127.14" height="13.94"/>
			</g>
		</g>
		<rect x="2.02" y="49.35" class="st6" width="127.14" height="5.09"/>
		<rect x="2.02" y="96.68" class="st7" width="127.14" height="5.09"/>
		<rect x="2.02" y="106.67" class="st8" width="127.14" height="5.09"/>
	</g>
	<g>
		<g class="st0">
			<path class="st1" d="M6.88,187.75h3.45v10.47H7.18v-0.92c-0.73,0.77-1.58,0.92-2.22,0.92h-0.9c-1.96,0-3.65-0.88-3.65-3.96v-6.51
				h2.68v5.85c0,1.5,0.33,2.13,1.41,2.13h0.88c0.9,0,1.5-0.66,1.5-1.96L6.88,187.75L6.88,187.75z"/>
			<path class="st1" d="M26.27,187.75l-4.14,5.3l3.98,5.17h-4.25l-2.51-3.26l-2.2,3.26h-3.43l3.63-5.26l-3.63-5.21h3.56l2.16,3.17
				l2.44-3.17L26.27,187.75L26.27,187.75z"/>
			<path class="st1" d="M36.76,182.2l-4.55,16.04h-3.08l4.66-16.04H36.76z"/>
			<path class="st1" d="M46.86,187.75h3.45v10.47h-3.15v-0.92c-0.73,0.77-1.58,0.92-2.22,0.92h-0.9c-1.96,0-3.65-0.88-3.65-3.96
				v-6.51h2.68v5.85c0,1.5,0.33,2.13,1.41,2.13h0.88c0.9,0,1.5-0.66,1.5-1.96L46.86,187.75L46.86,187.75z"/>
			<path class="st1" d="M54.58,185.77v-2.6h2.66v2.6H54.58z M54.58,198.22v-10.45h2.66v10.45H54.58z"/>
			<path class="st1" d="M73.76,185.59v7.35h7.11v2.77h-9.95v-12.7h9.42v2.58H73.76z M85.86,199.54h-2.99v-18.46h2.99V199.54z"/>
			<path class="st1" d="M96.91,185.26c-0.09,1.32-0.15,6.38,3.48,7.61v2.55c-0.73-0.18-1.43-0.44-2.07-0.79
				c-1.1-0.57-2.33-1.63-2.86-3.23c-0.55,1.76-1.76,2.73-2.88,3.32c-0.64,0.33-1.34,0.57-2.07,0.7v-2.55
				c3.63-1.23,3.48-6.29,3.39-7.61h-3.41v-2.46h9.95v2.46L96.91,185.26L96.91,185.26z M105.2,187.27h2.75v2.84h-2.75v9.5h-3.06
				v-18.28h3.06V187.27z"/>
			<path class="st1" d="M120.62,184.6v3.17c0,1.76-1.41,3.19-3.08,3.19h-2.99c-1.67,0-3.19-1.43-3.19-3.19v-3.17
				c0-1.78,1.52-3.17,3.19-3.17h2.99C119.22,181.43,120.62,182.82,120.62,184.6z M113.34,199.37v-6.27h3.01v3.59h9.95v2.68H113.34z
				 M117.89,185.22c0-0.77-0.57-1.34-1.34-1.34h-1.03c-0.77,0-1.43,0.57-1.43,1.34v1.91c0,0.79,0.66,1.36,1.43,1.36h1.03
				c0.77,0,1.34-0.57,1.34-1.36V185.22z M126.3,192.83h-2.93v-11.77h2.93V192.83z"/>
		</g>
		<g class="st0">
			<path class="st1" d="M26.91,223.32H11.27v-2.55h2.84v-4.27h2.27v4.27h1.98v-4.27h2.2v4.27h6.36L26.91,223.32L26.91,223.32z
				 M25.92,208.61v2.18c0,3.1-0.51,5.41-1.01,6.93c-0.29,0.9-0.64,1.67-1.01,2.29h-2.87c1.83-3.41,1.91-7.2,1.74-8.76H12.49v-2.64
				L25.92,208.61L25.92,208.61z"/>
			<path class="st1" d="M32.34,219.85h2.49v-1.58h-4.18v-2.4h16.48v2.4H43.1v1.58h2.57v1.87c0,1.08-0.22,2.09-0.46,2.82l-0.46,1.19
				h-2.84c0.29-0.62,0.46-1.47,0.62-2.18c0.07-0.42,0.13-0.84,0.18-1.25H32.35v-2.45H32.34z M42.19,207.24c1.43,0,3.5,1.03,3.5,2.97
				v1.39c0,1.78-1.56,2.82-3.67,2.82h-6.07c-1.76,0-3.5-1.19-3.5-2.64v-1.74c0-1.8,1.91-2.79,3.32-2.79h6.42V207.24z M41.67,212.3
				c0.88,0,1.39-0.7,1.39-1.39c0-0.7-0.51-1.41-1.39-1.41h-5.21c-0.86,0-1.36,0.7-1.36,1.41c0,0.68,0.51,1.39,1.36,1.39H41.67z
				 M37.6,219.85h2.73v-1.58H37.6V219.85z"/>
			<path class="st1" d="M70.77,208.61v2.55h-3.98c0.42,1.14,1.32,2.13,2.18,2.84c0.48,0.42,1.01,0.79,1.56,1.12v2.71
				c-1.3-0.42-2.46-1.39-3.34-2.27c-0.51-0.51-0.99-1.08-1.43-1.67c-0.73,1.39-2.02,2.38-3.15,3.01c-0.66,0.37-1.34,0.7-2.05,0.95
				v-2.55c2.55-1.25,3.65-3.1,4.05-4.14h-4.29v-2.55L70.77,208.61L70.77,208.61z M61.84,219.47h13.25v2.51
				c-0.07,1.08-0.24,2.09-0.48,2.82c-0.13,0.42-0.26,0.81-0.42,1.19h-2.71c0.51-0.97,0.75-1.96,0.86-2.73
				c0.07-0.44,0.09-0.86,0.09-1.28H61.85L61.84,219.47L61.84,219.47z M77.48,211.22v2.6h-2.49v3.85h-2.62v-10.21h2.62v3.76
				L77.48,211.22L77.48,211.22z"/>
			<path class="st1" d="M86.68,208.34c1.58,0,2.95,1.3,2.95,2.95v2.99c0,1.61-1.36,2.95-2.95,2.95h-2.82
				c-1.56,0-2.97-1.34-2.97-2.95v-2.99c0-1.65,1.45-2.95,3.01-2.95H86.68z M87.03,211.88c0-0.73-0.53-1.25-1.25-1.25h-0.95
				c-0.7,0-1.36,0.53-1.36,1.25v1.8c0,0.73,0.66,1.28,1.36,1.28h0.95c0.73,0,1.25-0.55,1.25-1.28V211.88z M83.86,226.19v-7.22h2.82
				v1.52h7.04v-1.52h2.64v7.22H83.86z M93.72,224.25v-1.72h-7.04v1.72H93.72z M96.36,207.48v10.3h-2.73v-3.63h-2.95v-2.57h2.95
				v-4.09L96.36,207.48L96.36,207.48z"/>
			<path class="st1" d="M116.62,217.12h-6.54v1.21h4.88v4.88h-10.3v0.9h10.52v1.92h-13.11v-4.93h9.77v-1.01h-9.77v-1.76h5.26v-1.21
				h-6.58v-2.02h15.86L116.62,217.12L116.62,217.12z M114.86,207.48v6.36H102.3v-6.36H114.86z M112.66,209.75h-8.12v1.83h8.12
				V209.75z"/>
		</g>
	</g>
</g>
</svg>
