<?xml version="1.0" encoding="utf-8"?>
<!-- Generator: Adobe Illustrator 26.2.1, SVG Export Plug-In . SVG Version: 6.00 Build 0)  -->
<svg version="1.1" id="Layer_1" xmlns="http://www.w3.org/2000/svg" xmlns:xlink="http://www.w3.org/1999/xlink" x="0px" y="0px"
	 viewBox="0 0 1440 1024" style="enable-background:new 0 0 1440 1024;" xml:space="preserve">
<style type="text/css">
	.st0{fill:#F3953F;}
	.st1{fill:#FBBE5E;}
	.st2{enable-background:new    ;}
	.st3{fill:#856A60;}
	.st4{fill:#E67900;}
	.st5{fill:#F18815;}
	.st6{fill:#F39325;}
	.st7{fill:#FFDA6F;}
	.st8{fill:#CA4C36;}
	.st9{fill:#FCC978;}
	.st10{fill:#87BE73;}
</style>
<g>
	<g>
		<g>
			<rect x="1122" y="-429.53" class="st0" width="5.6" height="54.34"/>
			<rect x="1117.71" y="-429.53" class="st1" width="6.6" height="54.34"/>
		</g>
		<g>
			<rect x="1137.03" y="-429.53" class="st0" width="5.6" height="54.34"/>
			<rect x="1132.73" y="-429.53" class="st1" width="6.6" height="54.34"/>
		</g>
		<g>
			<rect x="1152.05" y="-429.53" class="st0" width="5.6" height="54.34"/>
			<rect x="1147.75" y="-429.53" class="st1" width="6.6" height="54.34"/>
		</g>
		<g>
			<rect x="1167.07" y="-429.53" class="st0" width="5.6" height="54.34"/>
			<rect x="1162.77" y="-429.53" class="st1" width="6.6" height="54.34"/>
		</g>
		<g>
			<rect x="1182.09" y="-429.53" class="st0" width="5.6" height="54.34"/>
			<rect x="1177.79" y="-429.53" class="st1" width="6.6" height="54.34"/>
		</g>
		<g>
			<rect x="1197.11" y="-429.53" class="st0" width="5.6" height="54.34"/>
			<rect x="1192.81" y="-429.53" class="st1" width="6.6" height="54.34"/>
		</g>
		<g>
			<rect x="1212.13" y="-429.53" class="st0" width="5.6" height="54.34"/>
			<rect x="1207.83" y="-429.53" class="st1" width="6.6" height="54.34"/>
		</g>
		<g>
			<rect x="1227.15" y="-429.53" class="st0" width="5.6" height="54.34"/>
			<rect x="1222.86" y="-429.53" class="st1" width="6.6" height="54.34"/>
		</g>
		<g>
			<rect x="1242.17" y="-429.53" class="st0" width="5.6" height="54.34"/>
			<rect x="1237.88" y="-429.53" class="st1" width="6.6" height="54.34"/>
		</g>
		<g>
			<rect x="1257.2" y="-429.53" class="st0" width="5.6" height="54.34"/>
			<rect x="1252.9" y="-429.53" class="st1" width="6.6" height="54.34"/>
		</g>
	</g>
	<g>
		<g>
			<rect x="558.36" y="-563.42" class="st0" width="5.6" height="54.34"/>
			<rect x="554.07" y="-563.42" class="st1" width="6.6" height="54.34"/>
		</g>
		<g>
			
				<text transform="matrix(1 0 0 1 554.0654 -484.2736)" class="st3" style="font-family:'BMHANNA11yrsoldOTF-KSCpc-EUC-H'; font-size:22px; letter-spacing:1;">앱모바일</text>
		</g>
		<g>
			<text transform="matrix(1 0 0 1 554.0651 -462.8385)" style="fill:#826A60; font-family:'NanumGothic'; font-size:12px;">HAMGT / Pice Of Linda / Waste Royal Family</text>
		</g>
	</g>
	<g>
		<g>
			<g>
				<rect x="558.36" y="-302.28" class="st0" width="5.6" height="54.34"/>
				<rect x="554.07" y="-302.28" class="st1" width="6.6" height="54.34"/>
			</g>
			<g>
				<rect x="573.38" y="-302.28" class="st0" width="5.6" height="54.34"/>
				<rect x="569.09" y="-302.28" class="st1" width="6.6" height="54.34"/>
			</g>
			<g>
				<rect x="588.41" y="-302.28" class="st0" width="5.6" height="54.34"/>
				<rect x="584.11" y="-302.28" class="st1" width="6.6" height="54.34"/>
			</g>
		</g>
		<g>
			
				<text transform="matrix(1 0 0 1 554.0654 -225.5212)" class="st3" style="font-family:'BMHANNA11yrsoldOTF-KSCpc-EUC-H'; font-size:22px; letter-spacing:1;">로고</text>
		</g>
		<g>
			<text transform="matrix(1 0 0 1 554.0651 -205.0648)" style="fill:#826A60; font-family:'NanumGothic'; font-size:12px;">CLUE / 진천군 주민자치회</text>
		</g>
	</g>
	<g>
		<g>
			<g>
				<rect x="558.36" y="-169.63" class="st0" width="5.6" height="54.34"/>
				<rect x="554.07" y="-169.63" class="st1" width="6.6" height="54.34"/>
			</g>
			<g>
				<rect x="573.38" y="-169.63" class="st0" width="5.6" height="54.34"/>
				<rect x="569.09" y="-169.63" class="st1" width="6.6" height="54.34"/>
			</g>
			<g>
				<rect x="588.41" y="-169.63" class="st0" width="5.6" height="54.34"/>
				<rect x="584.11" y="-169.63" class="st1" width="6.6" height="54.34"/>
			</g>
			<g>
				<rect x="603.43" y="-169.63" class="st0" width="5.6" height="54.34"/>
				<rect x="599.13" y="-169.63" class="st1" width="6.6" height="54.34"/>
			</g>
		</g>
		<g>
			
				<text transform="matrix(1 0 0 1 554.0652 -92.4457)" class="st3" style="font-family:'BMHANNA11yrsoldOTF-KSCpc-EUC-H'; font-size:22px; letter-spacing:1;">아이덴티티</text>
		</g>
		<g>
			<text transform="matrix(1 0 0 1 554.0651 -70.9797)" style="fill:#826A60; font-family:'NanumGothic'; font-size:12px;">PUPPY LOVE</text>
		</g>
	</g>
	<g>
		<g>
			<rect x="888.63" y="-563.42" class="st0" width="5.6" height="54.34"/>
			<rect x="884.33" y="-563.42" class="st1" width="6.6" height="54.34"/>
		</g>
		<g>
			<rect x="903.65" y="-563.42" class="st0" width="5.6" height="54.34"/>
			<rect x="899.35" y="-563.42" class="st1" width="6.6" height="54.34"/>
		</g>
		<g>
			<rect x="918.67" y="-563.42" class="st0" width="5.6" height="54.34"/>
			<rect x="914.37" y="-563.42" class="st1" width="6.6" height="54.34"/>
		</g>
		<g>
			<rect x="933.69" y="-563.42" class="st0" width="5.6" height="54.34"/>
			<rect x="929.4" y="-563.42" class="st1" width="6.6" height="54.34"/>
		</g>
	</g>
	<g>
		
			<text transform="matrix(1 0 0 1 884.3314 -486.2372)" class="st3" style="font-family:'BMHANNA11yrsoldOTF-KSCpc-EUC-H'; font-size:22px; letter-spacing:1;">광고</text>
	</g>
	<g>
		<text transform="matrix(1 0 0 1 884.3312 -464.7711)" style="fill:#826A60; font-family:'NanumGothic'; font-size:12px;">비비고</text>
	</g>
	<g>
		<rect x="888.63" y="-429.53" class="st0" width="5.6" height="54.34"/>
		<rect x="884.33" y="-429.53" class="st1" width="6.6" height="54.34"/>
	</g>
	<g>
		<rect x="903.65" y="-429.53" class="st0" width="5.6" height="54.34"/>
		<rect x="899.35" y="-429.53" class="st1" width="6.6" height="54.34"/>
	</g>
	<g>
		<rect x="918.67" y="-429.53" class="st0" width="5.6" height="54.34"/>
		<rect x="914.37" y="-429.53" class="st1" width="6.6" height="54.34"/>
	</g>
	<g>
		<rect x="933.69" y="-429.53" class="st0" width="5.6" height="54.34"/>
		<rect x="929.4" y="-429.53" class="st1" width="6.6" height="54.34"/>
	</g>
	<g>
		<rect x="948.71" y="-429.53" class="st0" width="5.6" height="54.34"/>
		<rect x="944.42" y="-429.53" class="st1" width="6.6" height="54.34"/>
	</g>
	<g>
		<rect x="948.71" y="-563.42" class="st0" width="5.6" height="54.34"/>
		<rect x="944.42" y="-563.42" class="st1" width="6.6" height="54.34"/>
	</g>
	<g>
		
			<text transform="matrix(1 0 0 1 884.3317 -352.2086)" class="st3" style="font-family:'BMHANNA11yrsoldOTF-KSCpc-EUC-H'; font-size:22px; letter-spacing:1;">정보</text>
	</g>
	<g>
		<text transform="matrix(1 0 0 1 884.3314 -329.999)" style="fill:#826A60; font-family:'NanumGothic'; font-size:12px;">포스터 디자인 / 라이벌 디자인</text>
	</g>
	<g>
		<rect x="888.63" y="-301.43" class="st0" width="5.6" height="54.34"/>
		<rect x="884.33" y="-301.43" class="st1" width="6.6" height="54.34"/>
	</g>
	<g>
		<rect x="903.65" y="-301.43" class="st0" width="5.6" height="54.34"/>
		<rect x="899.35" y="-301.43" class="st1" width="6.6" height="54.34"/>
	</g>
	<g>
		<rect x="918.67" y="-301.43" class="st0" width="5.6" height="54.34"/>
		<rect x="914.37" y="-301.43" class="st1" width="6.6" height="54.34"/>
	</g>
	<g>
		<rect x="933.69" y="-301.43" class="st0" width="5.6" height="54.34"/>
		<rect x="929.4" y="-301.43" class="st1" width="6.6" height="54.34"/>
	</g>
	<g>
		<rect x="948.71" y="-301.43" class="st0" width="5.6" height="54.34"/>
		<rect x="944.42" y="-301.43" class="st1" width="6.6" height="54.34"/>
	</g>
	<g>
		<rect x="963.74" y="-429.53" class="st0" width="5.6" height="54.34"/>
		<rect x="959.44" y="-429.53" class="st1" width="6.6" height="54.34"/>
	</g>
	<g>
		
			<text transform="matrix(1 0 0 1 884.3314 -222.2865)" class="st3" style="font-family:'BMHANNA11yrsoldOTF-KSCpc-EUC-H'; font-size:22px; letter-spacing:1;">캐릭터</text>
	</g>
	<g>
		<text transform="matrix(1 0 0 1 884.3311 -200.8505)" style="fill:#826A60; font-family:'NanumGothic'; font-size:12px;">동화 / 웹툰 / 일러스트 작업</text>
	</g>
	<g>
		<rect x="963.74" y="-301.43" class="st0" width="5.6" height="54.34"/>
		<rect x="959.44" y="-301.43" class="st1" width="6.6" height="54.34"/>
	</g>
	<g>
		<rect x="978.76" y="-301.43" class="st0" width="5.6" height="54.34"/>
		<rect x="974.46" y="-301.43" class="st1" width="6.6" height="54.34"/>
	</g>
	<g>
		
			<text transform="matrix(1 0 0 1 884.3312 -91.911)" class="st3" style="font-family:'BMHANNA11yrsoldOTF-KSCpc-EUC-H'; font-size:22px; letter-spacing:1;">애니메이션</text>
	</g>
	<g>
		<text transform="matrix(1 0 0 1 884.3311 -70.9797)" style="fill:#826A60; font-family:'NanumGothic'; font-size:12px;">DREAM WORKS / 19</text>
	</g>
	<g>
		
			<text transform="matrix(1 0 0 1 1117.7069 -486.6587)" class="st3" style="font-family:'BMHANNA11yrsoldOTF-KSCpc-EUC-H'; font-size:22px; letter-spacing:1;">개인작업1</text>
	</g>
	<g>
		<text transform="matrix(1 0 0 1 1117.7069 -466.2019)" style="fill:#826A60; font-family:'NanumGothic'; font-size:12px;">(주)YBP ‘내가 꼬신 닭’</text>
	</g>
	<g>
		<g>
			<rect x="1122" y="-563.42" class="st0" width="5.6" height="54.34"/>
			<rect x="1117.71" y="-563.42" class="st1" width="6.6" height="54.34"/>
		</g>
		<g>
			<rect x="1137.03" y="-563.42" class="st0" width="5.6" height="54.34"/>
			<rect x="1132.73" y="-563.42" class="st1" width="6.6" height="54.34"/>
		</g>
		<g>
			<rect x="1152.05" y="-563.42" class="st0" width="5.6" height="54.34"/>
			<rect x="1147.75" y="-563.42" class="st1" width="6.6" height="54.34"/>
		</g>
		<g>
			<rect x="1167.07" y="-563.42" class="st0" width="5.6" height="54.34"/>
			<rect x="1162.77" y="-563.42" class="st1" width="6.6" height="54.34"/>
		</g>
		<g>
			<rect x="1182.09" y="-563.42" class="st0" width="5.6" height="54.34"/>
			<rect x="1177.79" y="-563.42" class="st1" width="6.6" height="54.34"/>
		</g>
		<g>
			<rect x="1197.11" y="-563.42" class="st0" width="5.6" height="54.34"/>
			<rect x="1192.81" y="-563.42" class="st1" width="6.6" height="54.34"/>
		</g>
		<g>
			<rect x="1212.13" y="-563.42" class="st0" width="5.6" height="54.34"/>
			<rect x="1207.83" y="-563.42" class="st1" width="6.6" height="54.34"/>
		</g>
		<g>
			<rect x="1227.15" y="-563.42" class="st0" width="5.6" height="54.34"/>
			<rect x="1222.86" y="-563.42" class="st1" width="6.6" height="54.34"/>
		</g>
		<g>
			<rect x="1242.17" y="-563.42" class="st0" width="5.6" height="54.34"/>
			<rect x="1237.88" y="-563.42" class="st1" width="6.6" height="54.34"/>
		</g>
	</g>
	<g>
		<g>
			
				<text transform="matrix(1 0 0 1 1117.7068 -352.2083)" class="st3" style="font-family:'BMHANNA11yrsoldOTF-KSCpc-EUC-H'; font-size:22px; letter-spacing:1;">개인작업2</text>
		</g>
		<g>
			<text transform="matrix(1 0 0 1 1117.7065 -330.7429)" style="fill:#826A60; font-family:'NanumGothic'; font-size:12px;">(주)악어미디어 ‘덴탈채널’  ‘덴트포토’</text>
		</g>
	</g>
	<g>
		<g>
			<g>
				<rect x="558.36" y="-435.33" class="st0" width="5.6" height="54.34"/>
				<rect x="554.07" y="-435.33" class="st1" width="6.6" height="54.34"/>
			</g>
			<g>
				<rect x="573.38" y="-435.33" class="st0" width="5.6" height="54.34"/>
				<rect x="569.09" y="-435.33" class="st1" width="6.6" height="54.34"/>
			</g>
		</g>
		<g>
			
				<text transform="matrix(1 0 0 1 554.0652 -358.8511)" class="st3" style="font-family:'BMHANNA11yrsoldOTF-KSCpc-EUC-H'; font-size:22px; letter-spacing:1;">웹디자인</text>
		</g>
		<g>
			<text transform="matrix(1 0 0 1 554.0651 -337.9202)" style="fill:#826A60; font-family:'NanumGothic'; font-size:12px;">LEGO LAND</text>
		</g>
	</g>
	<g>
		<g>
			<rect x="888.63" y="-168.39" class="st0" width="5.6" height="54.34"/>
			<rect x="884.33" y="-168.39" class="st1" width="6.6" height="54.34"/>
		</g>
		<g>
			<rect x="903.65" y="-168.39" class="st0" width="5.6" height="54.34"/>
			<rect x="899.35" y="-168.39" class="st1" width="6.6" height="54.34"/>
		</g>
		<g>
			<rect x="918.67" y="-168.39" class="st0" width="5.6" height="54.34"/>
			<rect x="914.37" y="-168.39" class="st1" width="6.6" height="54.34"/>
		</g>
		<g>
			<rect x="933.69" y="-168.39" class="st0" width="5.6" height="54.34"/>
			<rect x="929.4" y="-168.39" class="st1" width="6.6" height="54.34"/>
		</g>
		<g>
			<rect x="948.71" y="-168.39" class="st0" width="5.6" height="54.34"/>
			<rect x="944.42" y="-168.39" class="st1" width="6.6" height="54.34"/>
		</g>
		<g>
			<rect x="963.74" y="-168.39" class="st0" width="5.6" height="54.34"/>
			<rect x="959.44" y="-168.39" class="st1" width="6.6" height="54.34"/>
		</g>
		<g>
			<rect x="978.76" y="-168.39" class="st0" width="5.6" height="54.34"/>
			<rect x="974.46" y="-168.39" class="st1" width="6.6" height="54.34"/>
		</g>
		<g>
			<rect x="993.78" y="-168.39" class="st0" width="5.6" height="54.34"/>
			<rect x="989.48" y="-168.39" class="st1" width="6.6" height="54.34"/>
		</g>
	</g>
	<g>
		<g>
			<rect x="1122.01" y="-563.42" class="st0" width="5.6" height="54.34"/>
			<rect x="1117.71" y="-563.42" class="st1" width="6.6" height="54.34"/>
		</g>
		<g>
			<rect x="1137.03" y="-563.42" class="st0" width="5.6" height="54.34"/>
			<rect x="1132.73" y="-563.42" class="st1" width="6.6" height="54.34"/>
		</g>
		<g>
			<rect x="1152.05" y="-563.42" class="st0" width="5.6" height="54.34"/>
			<rect x="1147.75" y="-563.42" class="st1" width="6.6" height="54.34"/>
		</g>
		<g>
			<rect x="1167.07" y="-563.42" class="st0" width="5.6" height="54.34"/>
			<rect x="1162.77" y="-563.42" class="st1" width="6.6" height="54.34"/>
		</g>
		<g>
			<rect x="1182.09" y="-563.42" class="st0" width="5.6" height="54.34"/>
			<rect x="1177.79" y="-563.42" class="st1" width="6.6" height="54.34"/>
		</g>
		<g>
			<rect x="1197.11" y="-563.42" class="st0" width="5.6" height="54.34"/>
			<rect x="1192.81" y="-563.42" class="st1" width="6.6" height="54.34"/>
		</g>
		<g>
			<rect x="1212.13" y="-563.42" class="st0" width="5.6" height="54.34"/>
			<rect x="1207.83" y="-563.42" class="st1" width="6.6" height="54.34"/>
		</g>
		<g>
			<rect x="1227.15" y="-563.42" class="st0" width="5.6" height="54.34"/>
			<rect x="1222.86" y="-563.42" class="st1" width="6.6" height="54.34"/>
		</g>
	</g>
</g>
<g>
	<g>
		<g>
			<g>
				<g class="st2">
					<path class="st3" d="M283.5,484.04l11.56-13.57c1.3-1.6,2.12-3.9,2.12-5.06l-0.04-1.23c0-1.6-2.08-3.2-3.64-3.2h-1
						c-1.6,0-3.35,1.6-3.35,3.2v0.71h-4.35v-1c0-4.17,3.53-7.33,8.29-7.33c6.58,0,9.59,3.9,9.59,8.11c0,2.86-0.6,4.65-2.53,6.88
						c-1.15,1.3-3.24,3.46-6.99,7.21h9.07v5.28H283.5z"/>
					<path class="st3" d="M316.33,484.04c-3.68,0-6.99-1.75-6.99-6.66v-13.8c0-4.95,4.95-6.69,8.26-6.69h1.71
						c4.02,0,8.26,1.79,8.26,6.73v13.42c0,4.05-2.75,6.99-7.36,6.99H316.33z M318.83,479.05c1.64,0,2.12-1.64,2.12-3.27v-12.2
						c0-1.67-0.52-3.35-2.08-3.35h-1.64c-1.64,0-2.94,1.67-2.94,3.35v12.2c0,1.64-0.33,3.27,2.98,3.27H318.83z"/>
					<path class="st3" d="M333.48,484.04l11.56-13.57c1.3-1.6,2.12-3.9,2.12-5.06l-0.04-1.23c0-1.6-2.08-3.2-3.64-3.2h-1
						c-1.6,0-3.35,1.6-3.35,3.2v0.71h-4.35v-1c0-4.17,3.53-7.33,8.29-7.33c6.58,0,9.59,3.9,9.59,8.11c0,2.86-0.6,4.65-2.53,6.88
						c-1.15,1.3-3.24,3.46-6.99,7.21h9.07v5.28H333.48z"/>
					<path class="st3" d="M357.8,484.04l11.56-13.57c1.3-1.6,2.12-3.9,2.12-5.06l-0.04-1.23c0-1.6-2.08-3.2-3.64-3.2h-1
						c-1.6,0-3.35,1.6-3.35,3.2v0.71h-4.35v-1c0-4.17,3.53-7.33,8.29-7.33c6.58,0,9.59,3.9,9.59,8.11c0,2.86-0.6,4.65-2.53,6.88
						c-1.15,1.3-3.24,3.46-6.99,7.21h9.07v5.28H357.8z"/>
				</g>
			</g>
		</g>
		<g>
			<g>
				<rect x="292.87" y="398.89" class="st4" width="81.37" height="20.85"/>
				<rect x="280.16" y="408.4" class="st5" width="106.8" height="20.85"/>
				<rect x="269.99" y="418.43" class="st6" width="127.14" height="20.85"/>
			</g>
			<rect x="297.82" y="411.22" class="st7" width="5.09" height="5.09"/>
			<rect x="346.74" y="405.5" class="st7" width="5.09" height="5.09"/>
			<rect x="357.23" y="416.44" class="st7" width="5.09" height="5.09"/>
			<rect x="363.23" y="430.45" class="st7" width="5.09" height="5.09"/>
			<rect x="338.55" y="425.58" class="st7" width="3.05" height="3.05"/>
			<rect x="286.26" y="427.53" class="st7" width="3.05" height="3.05"/>
			<rect x="376.28" y="413.34" class="st7" width="3.05" height="3.05"/>
		</g>
		<g>
			<g>
				<rect x="292.88" y="519.7" class="st4" width="81.37" height="19.02"/>
				<rect x="280.16" y="513.77" class="st5" width="106.8" height="19.02"/>
				<rect x="269.99" y="510.92" class="st6" width="127.14" height="13.94"/>
			</g>
		</g>
		<rect x="269.99" y="443.61" class="st8" width="127.14" height="5.09"/>
		<rect x="269.99" y="490.94" class="st9" width="127.14" height="5.09"/>
		<rect x="269.99" y="500.93" class="st10" width="127.14" height="5.09"/>
	</g>
	<g>
		<g>
			<g>
				<g class="st2">
					<path class="st3" d="M545.76,484.04l11.56-13.57c1.3-1.6,2.12-3.9,2.12-5.06l-0.04-1.23c0-1.6-2.08-3.2-3.64-3.2h-1
						c-1.6,0-3.35,1.6-3.35,3.2v0.71h-4.35v-1c0-4.17,3.53-7.33,8.29-7.33c6.58,0,9.59,3.9,9.59,8.11c0,2.86-0.6,4.65-2.53,6.88
						c-1.15,1.3-3.24,3.46-6.99,7.21h9.07v5.28H545.76z"/>
					<path class="st3" d="M578.59,484.04c-3.68,0-6.99-1.75-6.99-6.66v-13.8c0-4.95,4.95-6.69,8.26-6.69h1.71
						c4.02,0,8.26,1.79,8.26,6.73v13.42c0,4.05-2.75,6.99-7.36,6.99H578.59z M581.08,479.05c1.64,0,2.12-1.64,2.12-3.27v-12.2
						c0-1.67-0.52-3.35-2.08-3.35h-1.64c-1.64,0-2.94,1.67-2.94,3.35v12.2c0,1.64-0.33,3.27,2.98,3.27H581.08z"/>
					<path class="st3" d="M606.29,456.89v27.15h-6.69v-22.09h-3.46v-5.06H606.29z"/>
					<path class="st3" d="M628.53,471.28l-8.37,12.79h-5.61l5.8-10.49c-0.67,0-2.57-0.22-3.12-0.41c-2.6-0.82-4.5-3.24-4.5-6.43
						v-2.68c0-4.02,2.86-7.18,7.44-7.18h3.09c3.09,0,5.8,1.49,6.81,4.91C630.99,465.11,630.28,468.6,628.53,471.28z M616.63,465.93
						c0,2.08,1.26,2.9,2.86,3.01l2.38,0.11c1.64,0.11,3.42-1.15,3.42-2.79v-1.6c0-2.49-1.75-3.53-3.35-3.53h-2.27
						c-1.56,0-3.05,1.49-3.05,3.12V465.93z"/>
				</g>
			</g>
		</g>
		<g>
			<g>
				<rect x="550.5" y="398.89" class="st4" width="81.37" height="20.85"/>
				<rect x="537.79" y="408.4" class="st5" width="106.8" height="20.85"/>
				<rect x="527.61" y="418.43" class="st6" width="127.14" height="20.85"/>
			</g>
			<rect x="555.45" y="411.22" class="st7" width="5.09" height="5.09"/>
			<rect x="604.37" y="405.5" class="st7" width="5.09" height="5.09"/>
			<rect x="614.86" y="416.44" class="st7" width="5.09" height="5.09"/>
			<rect x="620.86" y="430.45" class="st7" width="5.09" height="5.09"/>
			<rect x="596.18" y="425.58" class="st7" width="3.05" height="3.05"/>
			<rect x="543.89" y="427.53" class="st7" width="3.05" height="3.05"/>
			<rect x="633.91" y="413.34" class="st7" width="3.05" height="3.05"/>
		</g>
		<g>
			<g>
				<rect x="550.5" y="519.7" class="st4" width="81.37" height="19.02"/>
				<rect x="537.78" y="513.77" class="st5" width="106.8" height="19.02"/>
				<rect x="527.62" y="510.92" class="st6" width="127.14" height="13.94"/>
			</g>
		</g>
		<rect x="527.61" y="443.61" class="st8" width="127.14" height="5.09"/>
		<rect x="527.61" y="490.94" class="st9" width="127.14" height="5.09"/>
		<rect x="527.61" y="500.93" class="st10" width="127.14" height="5.09"/>
	</g>
	<g>
		<g>
			<g>
				<g class="st2">
					<path class="st3" d="M802.94,484.04l11.57-13.57c1.3-1.6,2.12-3.9,2.12-5.06l-0.04-1.23c0-1.6-2.08-3.2-3.64-3.2h-1
						c-1.6,0-3.35,1.6-3.35,3.2v0.71h-4.35v-1c0-4.17,3.53-7.33,8.29-7.33c6.58,0,9.59,3.9,9.59,8.11c0,2.86-0.59,4.65-2.53,6.88
						c-1.15,1.3-3.24,3.46-6.99,7.21h9.07v5.28H802.94z"/>
					<path class="st3" d="M835.77,484.04c-3.68,0-6.99-1.75-6.99-6.66v-13.8c0-4.95,4.95-6.69,8.25-6.69h1.71
						c4.02,0,8.26,1.79,8.26,6.73v13.42c0,4.05-2.75,6.99-7.36,6.99H835.77z M838.26,479.05c1.64,0,2.12-1.64,2.12-3.27v-12.2
						c0-1.67-0.52-3.35-2.08-3.35h-1.64c-1.64,0-2.94,1.67-2.94,3.35v12.2c0,1.64-0.33,3.27,2.97,3.27H838.26z"/>
					<path class="st3" d="M863.47,456.89v27.15h-6.69v-22.09h-3.46v-5.06H863.47z"/>
					<path class="st3" d="M887.87,477.38c0,3.42-2.49,6.99-7.36,7.1h-1.67c-0.86,0-1.67,0-1.79-0.04c-2.97-0.3-5.91-2.53-6.69-5.62
						c-0.74-2.68-0.07-5.73,1.08-8.11l7.4-13.83h5.76l-4.57,10.49c4.76,0.11,7.85,2.97,7.85,7.73V477.38z M884,475.63
						c0-1.79-1.08-3.5-3.42-3.5l-1.82-0.04c-2.12,0-3.57,1.6-3.57,3.57v1.23c0,1.93,1.75,3.27,3.38,3.27h1.97
						c1.97,0,3.46-1.41,3.46-3.16V475.63z"/>
				</g>
			</g>
		</g>
		<g>
			<g>
				<rect x="808.13" y="398.89" class="st4" width="81.37" height="20.85"/>
				<rect x="795.41" y="408.4" class="st5" width="106.8" height="20.85"/>
				<rect x="785.24" y="418.43" class="st6" width="127.14" height="20.85"/>
			</g>
			<rect x="813.07" y="411.22" class="st7" width="5.09" height="5.09"/>
			<rect x="862" y="405.5" class="st7" width="5.09" height="5.09"/>
			<rect x="872.49" y="416.44" class="st7" width="5.09" height="5.09"/>
			<rect x="878.49" y="430.45" class="st7" width="5.09" height="5.09"/>
			<rect x="853.81" y="425.58" class="st7" width="3.05" height="3.05"/>
			<rect x="801.52" y="427.53" class="st7" width="3.05" height="3.05"/>
			<rect x="891.53" y="413.34" class="st7" width="3.05" height="3.05"/>
		</g>
		<g>
			<g>
				<rect x="808.13" y="519.7" class="st4" width="81.37" height="19.02"/>
				<rect x="795.42" y="513.77" class="st5" width="106.8" height="19.02"/>
				<rect x="785.25" y="510.92" class="st6" width="127.14" height="13.94"/>
			</g>
		</g>
		<rect x="785.24" y="443.61" class="st8" width="127.14" height="5.09"/>
		<rect x="785.24" y="490.94" class="st9" width="127.14" height="5.09"/>
		<rect x="785.24" y="500.93" class="st10" width="127.14" height="5.09"/>
	</g>
	<g>
		<g>
			<g>
				<g class="st2">
					<path class="st3" d="M1060.49,484.04l11.57-13.57c1.3-1.6,2.12-3.9,2.12-5.06l-0.04-1.23c0-1.6-2.08-3.2-3.64-3.2h-1
						c-1.6,0-3.35,1.6-3.35,3.2v0.71h-4.35v-1c0-4.17,3.53-7.33,8.29-7.33c6.58,0,9.59,3.9,9.59,8.11c0,2.86-0.59,4.65-2.53,6.88
						c-1.15,1.3-3.24,3.46-6.99,7.21h9.07v5.28H1060.49z"/>
					<path class="st3" d="M1093.32,484.04c-3.68,0-6.99-1.75-6.99-6.66v-13.8c0-4.95,4.95-6.69,8.25-6.69h1.71
						c4.02,0,8.26,1.79,8.26,6.73v13.42c0,4.05-2.75,6.99-7.36,6.99H1093.32z M1095.82,479.05c1.64,0,2.12-1.64,2.12-3.27v-12.2
						c0-1.67-0.52-3.35-2.08-3.35h-1.64c-1.64,0-2.94,1.67-2.94,3.35v12.2c0,1.64-0.33,3.27,2.97,3.27H1095.82z"/>
					<path class="st3" d="M1121.03,456.89v27.15h-6.69v-22.09h-3.46v-5.06H1121.03z"/>
					<path class="st3" d="M1145.76,475.89c0,6.47-4.65,7.96-6.88,8.37c-0.74,0.19-3.53,0.45-5.28,0.04
						c-0.82-0.11-3.35-0.78-5.24-2.16v-5.06c0.71,1.12,2.79,2.53,4.87,3.24c0.82,0.3,2.79,0.48,3.5,0.37
						c2.31-0.3,3.05-2.49,3.05-4.13c0-1.9-0.41-4.2-3.23-5.17c-2.75-0.97-5.84-0.74-8.11-0.63v-13.87h15.73v5.32h-12.01v4.02
						c1.67-0.04,2.75,0.04,4.35,0.22C1141.11,467.04,1145.76,469.27,1145.76,475.89z"/>
				</g>
			</g>
		</g>
		<g>
			<g>
				<rect x="1065.75" y="398.89" class="st4" width="81.37" height="20.85"/>
				<rect x="1053.04" y="408.4" class="st5" width="106.8" height="20.85"/>
				<rect x="1042.87" y="418.43" class="st6" width="127.14" height="20.85"/>
			</g>
			<rect x="1070.7" y="411.22" class="st7" width="5.09" height="5.09"/>
			<rect x="1119.63" y="405.5" class="st7" width="5.09" height="5.09"/>
			<rect x="1130.12" y="416.44" class="st7" width="5.09" height="5.09"/>
			<rect x="1136.12" y="430.45" class="st7" width="5.09" height="5.09"/>
			<rect x="1111.44" y="425.58" class="st7" width="3.05" height="3.05"/>
			<rect x="1059.14" y="427.53" class="st7" width="3.05" height="3.05"/>
			<rect x="1149.16" y="413.34" class="st7" width="3.05" height="3.05"/>
		</g>
		<g>
			<g>
				<rect x="1065.76" y="519.7" class="st4" width="81.37" height="19.02"/>
				<rect x="1053.04" y="513.77" class="st5" width="106.8" height="19.02"/>
				<rect x="1042.87" y="510.92" class="st6" width="127.14" height="13.94"/>
			</g>
		</g>
		<rect x="1042.87" y="443.61" class="st8" width="127.14" height="5.09"/>
		<rect x="1042.87" y="490.94" class="st9" width="127.14" height="5.09"/>
		<rect x="1042.87" y="500.93" class="st10" width="127.14" height="5.09"/>
	</g>
	<g>
		<g class="st2">
			<path class="st3" d="M274.85,582.01h3.45v10.47h-3.15v-0.92c-0.73,0.77-1.58,0.92-2.22,0.92h-0.9c-1.96,0-3.65-0.88-3.65-3.96
				v-6.51h2.68v5.85c0,1.5,0.33,2.13,1.41,2.13h0.88c0.9,0,1.5-0.66,1.5-1.96V582.01z"/>
			<path class="st3" d="M294.24,582.01l-4.14,5.3l3.98,5.17h-4.25l-2.51-3.26l-2.2,3.26h-3.43l3.63-5.26l-3.63-5.21h3.56l2.16,3.17
				l2.44-3.17H294.24z"/>
			<path class="st3" d="M304.73,576.46l-4.55,16.04h-3.08l4.66-16.04H304.73z"/>
			<path class="st3" d="M314.83,582.01h3.45v10.47h-3.15v-0.92c-0.73,0.77-1.58,0.92-2.22,0.92h-0.9c-1.96,0-3.65-0.88-3.65-3.96
				v-6.51h2.68v5.85c0,1.5,0.33,2.13,1.41,2.13h0.88c0.9,0,1.5-0.66,1.5-1.96V582.01z"/>
			<path class="st3" d="M322.55,580.03v-2.6h2.66v2.6H322.55z M322.55,592.48v-10.45h2.66v10.45H322.55z"/>
			<path class="st3" d="M341.73,579.85v7.35h7.11v2.77h-9.95v-12.7h9.42v2.58H341.73z M353.83,593.8h-2.99v-18.46h2.99V593.8z"/>
			<path class="st3" d="M364.88,579.52c-0.09,1.32-0.15,6.38,3.48,7.61v2.55c-0.73-0.18-1.43-0.44-2.07-0.79
				c-1.1-0.57-2.33-1.63-2.86-3.23c-0.55,1.76-1.76,2.73-2.88,3.32c-0.64,0.33-1.34,0.57-2.07,0.7v-2.55
				c3.63-1.23,3.48-6.29,3.39-7.61h-3.41v-2.46h9.95v2.46H364.88z M373.17,581.53h2.75v2.84h-2.75v9.5h-3.06v-18.28h3.06V581.53z"/>
			<path class="st3" d="M388.59,578.86v3.17c0,1.76-1.41,3.19-3.08,3.19h-2.99c-1.67,0-3.19-1.43-3.19-3.19v-3.17
				c0-1.78,1.52-3.17,3.19-3.17h2.99C387.19,575.69,388.59,577.08,388.59,578.86z M381.31,593.63v-6.27h3.01v3.59h9.95v2.68H381.31z
				 M385.86,579.48c0-0.77-0.57-1.34-1.34-1.34h-1.03c-0.77,0-1.43,0.57-1.43,1.34v1.91c0,0.79,0.66,1.36,1.43,1.36h1.03
				c0.77,0,1.34-0.57,1.34-1.36V579.48z M394.27,587.09h-2.93v-11.77h2.93V587.09z"/>
		</g>
		<g class="st2">
			<path class="st3" d="M294.88,617.58h-15.64v-2.55h2.84v-4.27h2.27v4.27h1.98v-4.27h2.2v4.27h6.36V617.58z M293.89,602.87v2.18
				c0,3.1-0.51,5.41-1.01,6.93c-0.29,0.9-0.64,1.67-1.01,2.29H289c1.83-3.41,1.91-7.2,1.74-8.76h-10.28v-2.64H293.89z"/>
			<path class="st3" d="M300.31,614.11h2.49v-1.58h-4.18v-2.4h16.48v2.4h-4.03v1.58h2.57v1.87c0,1.08-0.22,2.09-0.46,2.82
				l-0.46,1.19h-2.84c0.29-0.62,0.46-1.47,0.62-2.18c0.07-0.42,0.13-0.84,0.18-1.25h-10.36V614.11z M310.16,601.5
				c1.43,0,3.5,1.03,3.5,2.97v1.39c0,1.78-1.56,2.82-3.67,2.82h-6.07c-1.76,0-3.5-1.19-3.5-2.64v-1.74c0-1.8,1.91-2.79,3.32-2.79
				H310.16z M309.64,606.56c0.88,0,1.39-0.7,1.39-1.39c0-0.7-0.51-1.41-1.39-1.41h-5.21c-0.86,0-1.36,0.7-1.36,1.41
				c0,0.68,0.51,1.39,1.36,1.39H309.64z M305.57,614.11h2.73v-1.58h-2.73V614.11z"/>
			<path class="st3" d="M338.74,602.87v2.55h-3.98c0.42,1.14,1.32,2.13,2.18,2.84c0.48,0.42,1.01,0.79,1.56,1.12v2.71
				c-1.3-0.42-2.46-1.39-3.34-2.27c-0.51-0.51-0.99-1.08-1.43-1.67c-0.73,1.39-2.02,2.38-3.15,3.01c-0.66,0.37-1.34,0.7-2.05,0.95
				v-2.55c2.55-1.25,3.65-3.1,4.05-4.14h-4.29v-2.55H338.74z M329.81,613.73h13.25v2.51c-0.07,1.08-0.24,2.09-0.48,2.82
				c-0.13,0.42-0.26,0.81-0.42,1.19h-2.71c0.51-0.97,0.75-1.96,0.86-2.73c0.07-0.44,0.09-0.86,0.09-1.28h-10.58V613.73z
				 M345.45,605.48v2.6h-2.49v3.85h-2.62v-10.21h2.62v3.76H345.45z"/>
			<path class="st3" d="M354.65,602.6c1.58,0,2.95,1.3,2.95,2.95v2.99c0,1.61-1.36,2.95-2.95,2.95h-2.82
				c-1.56,0-2.97-1.34-2.97-2.95v-2.99c0-1.65,1.45-2.95,3.01-2.95H354.65z M355,606.14c0-0.73-0.53-1.25-1.25-1.25h-0.95
				c-0.7,0-1.36,0.53-1.36,1.25v1.8c0,0.73,0.66,1.28,1.36,1.28h0.95c0.73,0,1.25-0.55,1.25-1.28V606.14z M351.83,620.45v-7.22h2.82
				v1.52h7.04v-1.52h2.64v7.22H351.83z M361.69,618.51v-1.72h-7.04v1.72H361.69z M364.33,601.74v10.3h-2.73v-3.63h-2.95v-2.57h2.95
				v-4.09H364.33z"/>
			<path class="st3" d="M384.59,611.38h-6.54v1.21h4.88v4.88h-10.3v0.9h10.52v1.92h-13.11v-4.93h9.77v-1.01h-9.77v-1.76h5.26v-1.21
				h-6.58v-2.02h15.86V611.38z M382.83,601.74v6.36h-12.56v-6.36H382.83z M380.63,604.01h-8.12v1.83h8.12V604.01z"/>
		</g>
	</g>
	<g>
		<g class="st2">
			<path class="st3" d="M524.79,594.99c-2.49-2.55-3.17-5.39-3.17-8.8c0-2.82,1.1-7.28,3.39-9.75h2.11
				c-1.67,3.06-2.44,6.29-2.44,9.7c0,3.32,0.77,5.92,2.29,8.84H524.79z"/>
			<path class="st3" d="M548.05,587.64h-7.13v6.16h-2.99v-6.16h-6.73v-2.73h16.85V587.64z M532.67,575.69h13.99v2.33h-5.19
				c0.95,1.8,3.28,3.08,4.91,3.65v2.02c-3.15-0.4-5.68-2.25-6.8-4.03c-1.01,2.07-4.71,3.81-6.84,4.33v-2.24
				c2.68-1.06,4.4-2.79,4.82-3.74h-4.88V575.69z"/>
			<path class="st3" d="M552.27,594.99c1.47-2.95,2.29-5.5,2.29-8.84c0-3.41-0.77-6.65-2.44-9.7h2.11c2.29,2.46,3.39,6.93,3.39,9.75
				c0,3.37-0.7,6.29-3.17,8.8H552.27z"/>
			<path class="st3" d="M567.89,576.22c1.61,0,2.95,1.34,2.95,3.01v3.04c0,1.69-1.34,3.04-2.95,3.04h-2.84
				c-1.58,0-3.04-1.34-3.04-3.04v-3.04c0-1.67,1.45-3.01,3.04-3.01H567.89z M563.25,587.33h13.25v2.51
				c-0.07,1.08-0.24,2.09-0.48,2.82c-0.13,0.42-0.26,0.81-0.42,1.19h-2.71c0.51-0.97,0.75-1.96,0.86-2.73
				c0.07-0.44,0.09-0.86,0.09-1.28h-10.58V587.33z M568.24,579.85c0-0.77-0.53-1.3-1.3-1.3H566c-0.77,0-1.41,0.53-1.41,1.3v1.83
				c0,0.73,0.64,1.3,1.41,1.3h0.95c0.77,0,1.3-0.57,1.3-1.3V579.85z M578.89,579.3v2.6h-2.49v4.07h-2.82v-10.65h2.82v3.98H578.89z"
				/>
			<path class="st3" d="M585.78,589.78c-1.76,0-3.37-0.9-3.37-3.74v-5.35c0-2.31,0.68-4.12,3.87-4.12h1.47
				c2.4,0,3.72,1.39,3.72,4.14v5.08c0,2.49-1.52,3.98-3.28,3.98H585.78z M587.47,587.51c1.06,0,1.36-1.08,1.36-1.94v-4.45
				c0-0.97-0.07-2.22-1.36-2.22h-0.9c-1.32,0-1.5,1.03-1.5,2v4.55c0,0.7-0.31,2.05,1.45,2.05H587.47z M597.42,575.56v18.29h-2.82
				v-9.53h-2.38v-3.06h2.38v-5.7H597.42z"/>
			<path class="st3" d="M602.25,577.46h9.44v11.29h-9.44V577.46z M609.07,586.28v-6.07h-4.27v6.07H609.07z M617.5,593.85h-2.9v-18.5
				h2.9V593.85z"/>
			<path class="st3" d="M625.18,579.85v7.35h7.11v2.77h-9.95v-12.7h9.42v2.58H625.18z M637.28,593.8h-2.99v-18.46h2.99V593.8z"/>
			<path class="st3" d="M645.26,589.78c-1.76,0-3.37-0.9-3.37-3.74v-5.35c0-2.31,0.68-4.12,3.87-4.12h1.47
				c2.4,0,3.72,1.39,3.72,4.14v5.08c0,2.49-1.52,3.98-3.28,3.98H645.26z M646.96,587.51c1.06,0,1.36-1.08,1.36-1.94v-4.45
				c0-0.97-0.07-2.22-1.36-2.22h-0.9c-1.32,0-1.5,1.03-1.5,2v4.55c0,0.7-0.31,2.05,1.45,2.05H646.96z M656.9,575.56v18.29h-2.82
				v-9.53h-2.38v-3.06h2.38v-5.7H656.9z"/>
		</g>
		<g class="st2">
			<path class="st3" d="M549.4,601.76h3.06v18.48h-3.06v-3.1h-13.38v-2.6h5v-2.07h-0.31c-1.58,0-3.06-1.39-3.06-3.06v-2.6
				c0-0.68,0.22-1.34,0.64-1.85h-1.63v-2.09h3.92v-1.45h3.17v1.45h4.07v2.09h-1.87c0.42,0.51,0.64,1.14,0.64,1.85v2.6
				c0,1.67-1.41,3.06-3.01,3.06v2.07h5.83V601.76z M543.9,607.44c0-0.77-0.51-1.32-1.28-1.32h-0.97c-0.77,0-1.39,0.55-1.39,1.32
				v1.36c0,0.77,0.62,1.34,1.39,1.34h0.97c0.77,0,1.28-0.57,1.28-1.34V607.44z"/>
			<path class="st3" d="M566.43,612.77v2.77c-0.55-0.2-1.12-0.46-1.72-0.81c-0.99-0.59-2.24-1.52-3.23-3.01
				c-0.99,1.5-2.22,2.42-3.21,3.01c-0.59,0.35-1.17,0.62-1.74,0.81v-2.77c0.22-0.13,0.42-0.26,0.62-0.42
				c0.33-0.24,0.68-0.53,0.92-0.77c1.72-1.83,2.11-3.56,2.11-6.12v-2.09h2.86v2.09c0,2.55,0.46,4.53,1.98,6.14
				C565.42,612.02,565.88,612.39,566.43,612.77z M574,607.9v2.86h-2.53v9.48h-2.82v-18.26h2.82v5.92H574z"/>
			<path class="st3" d="M597.21,602.87v2.55h-3.98c0.42,1.14,1.32,2.13,2.18,2.84c0.48,0.42,1.01,0.79,1.56,1.12v2.71
				c-1.3-0.42-2.46-1.39-3.34-2.27c-0.51-0.51-0.99-1.08-1.43-1.67c-0.73,1.39-2.02,2.38-3.15,3.01c-0.66,0.37-1.34,0.7-2.05,0.95
				v-2.55c2.55-1.25,3.65-3.1,4.05-4.14h-4.29v-2.55H597.21z M588.27,613.73h13.25v2.51c-0.07,1.08-0.24,2.09-0.48,2.82
				c-0.13,0.42-0.26,0.81-0.42,1.19h-2.71c0.51-0.97,0.75-1.96,0.86-2.73c0.07-0.44,0.09-0.86,0.09-1.28h-10.58V613.73z
				 M603.92,605.48v2.6h-2.49v3.85h-2.62v-10.21h2.62v3.76H603.92z"/>
			<path class="st3" d="M613.11,602.6c1.58,0,2.95,1.3,2.95,2.95v2.99c0,1.61-1.36,2.95-2.95,2.95h-2.82
				c-1.56,0-2.97-1.34-2.97-2.95v-2.99c0-1.65,1.45-2.95,3.01-2.95H613.11z M613.46,606.14c0-0.73-0.53-1.25-1.25-1.25h-0.95
				c-0.7,0-1.36,0.53-1.36,1.25v1.8c0,0.73,0.66,1.28,1.36,1.28h0.95c0.73,0,1.25-0.55,1.25-1.28V606.14z M610.29,620.45v-7.22h2.82
				v1.52h7.04v-1.52h2.64v7.22H610.29z M620.15,618.51v-1.72h-7.04v1.72H620.15z M622.79,601.74v10.3h-2.73v-3.63h-2.95v-2.57h2.95
				v-4.09H622.79z"/>
			<path class="st3" d="M643.05,611.38h-6.54v1.21h4.88v4.88h-10.3v0.9h10.52v1.92h-13.11v-4.93h9.77v-1.01h-9.77v-1.76h5.26v-1.21
				h-6.58v-2.02h15.86V611.38z M641.29,601.74v6.36h-12.56v-6.36H641.29z M639.09,604.01h-8.12v1.83h8.12V604.01z"/>
		</g>
	</g>
	<g>
		<g class="st2">
			<path class="st3" d="M807.79,594.99c-2.49-2.55-3.17-5.39-3.17-8.8c0-2.82,1.1-7.28,3.39-9.75h2.11
				c-1.67,3.06-2.44,6.29-2.44,9.7c0,3.32,0.77,5.92,2.29,8.84H807.79z"/>
			<path class="st3" d="M831.04,587.64h-7.13v6.16h-2.99v-6.16h-6.73v-2.73h16.85V587.64z M815.66,575.69h13.99v2.33h-5.19
				c0.95,1.8,3.28,3.08,4.91,3.65v2.02c-3.15-0.4-5.68-2.25-6.8-4.03c-1.01,2.07-4.71,3.81-6.84,4.33v-2.24
				c2.68-1.06,4.4-2.79,4.82-3.74h-4.88V575.69z"/>
			<path class="st3" d="M835.26,594.99c1.47-2.95,2.29-5.5,2.29-8.84c0-3.41-0.77-6.65-2.44-9.7h2.11c2.29,2.46,3.39,6.93,3.39,9.75
				c0,3.37-0.7,6.29-3.17,8.8H835.26z"/>
			<path class="st3" d="M858.5,576.46l-4.95,10.34v5.68h-4.27v-5.92l-4.88-10.1h3.92l3.3,7.44l3.12-7.44H858.5z"/>
			<path class="st3" d="M862.1,576.46h6.54c4.14,0,5.21,2,5.21,4.11c0,2.31-1.34,2.99-2.05,3.34c1.96,0.77,2.55,2.02,2.49,3.78
				c-0.11,3.21-2.55,4.78-6.45,4.78h-5.74V576.46z M865.73,583h3.01c1.72,0,3.04-0.75,3.04-2.35c0-1.43-1.14-2.16-3.15-2.16h-2.9
				V583z M865.82,589.82h3.19c2,0,2.93-1.23,2.93-2.46c0-1.65-1.28-2.44-2.75-2.44h-3.37V589.82z"/>
			<path class="st3" d="M884.89,586.59h-3.12v5.9h-3.5v-16.06h6.6c2.09,0,5.68,0.53,5.68,5.5
				C890.55,585.38,888.2,586.52,884.89,586.59z M884.56,584.52c1.74,0,2.73-0.79,2.73-2.55c0-1.76-0.75-2.6-2.53-2.62h-2.99v5.17
				H884.56z"/>
		</g>
		<g class="st2">
			<path class="st3" d="M767.38,615.98c-1.76,0-3.78-0.9-3.78-3.74v-5.35c0-2.31,1.08-4.11,4.25-4.11h1.25
				c2.4,0,4.16,1.41,4.16,4.14V612c0,2.49-1.98,3.98-3.72,3.98H767.38z M768.81,613.71c1.08,0,1.8-1.08,1.8-1.94v-4.44
				c0-0.97-0.48-2.22-1.8-2.22h-0.68c-1.32,0-1.87,1.03-1.87,2v4.55c0,0.7,0.11,2.05,1.87,2.05H768.81z M780.56,607.71v2.84h-2.46
				v9.53h-2.84v-18.33h2.84v5.96H780.56z"/>
			<path class="st3" d="M800.32,618.25h-16.46v-2.49h16.46V618.25z M785.27,607.38h10.32v-1.72h-10.32v-2.53h13.29v6.4h-10.32v1.47
				h10.32v2.29h-13.29V607.38z"/>
			<path class="st3" d="M811.09,603.26h2.6v12.83h-9.2v-12.83h2.75v3.61h3.85V603.26z M807.24,613.23h3.85v-3.5h-3.85V613.23z
				 M818.95,607.93h2.55v2.84h-2.55v9.5h-2.82v-18.28h2.82V607.93z"/>
			<path class="st3" d="M828.41,616.33c-1.56,0-3.39-1.03-3.39-3.85v-5.24c0-2.29,1.5-4.05,4.05-4.05h1.96
				c2.44,0,3.96,1.83,3.96,4.11v5.3c0,2.22-1.47,3.72-3.01,3.72H828.41z M830.61,614.06c1.1,0,1.61-1.06,1.61-1.89v-4.67
				c0-0.95-0.73-1.78-1.61-1.78h-1.1c-0.88,0-1.69,0.84-1.69,1.78v4.67c0,1.43,0.57,1.89,1.69,1.89H830.61z M839.78,620.25h-2.95
				v-18.5h2.95V620.25z"/>
			<path class="st3" d="M844.18,618.31v-2.68h16.61v2.68H844.18z M858.35,602.47v2.49h-12.08v-2.49H858.35z M849.02,610.94h9.57
				v2.49h-12.32v-6.84h12.08v2.49h-9.33V610.94z"/>
			<path class="st3" d="M884.44,602.87v2.55h-3.98c0.42,1.14,1.32,2.13,2.18,2.84c0.48,0.42,1.01,0.79,1.56,1.12v2.71
				c-1.3-0.42-2.46-1.39-3.34-2.27c-0.51-0.51-0.99-1.08-1.43-1.67c-0.73,1.39-2.02,2.38-3.15,3.01c-0.66,0.37-1.34,0.7-2.05,0.95
				v-2.55c2.55-1.25,3.65-3.1,4.05-4.14h-4.29v-2.55H884.44z M875.51,613.73h13.25v2.51c-0.07,1.08-0.24,2.09-0.48,2.82
				c-0.13,0.42-0.26,0.81-0.42,1.19h-2.71c0.51-0.97,0.75-1.96,0.86-2.73c0.07-0.44,0.09-0.86,0.09-1.28h-10.58V613.73z
				 M891.15,605.48v2.6h-2.49v3.85h-2.62v-10.21h2.62v3.76H891.15z"/>
			<path class="st3" d="M900.35,602.6c1.58,0,2.95,1.3,2.95,2.95v2.99c0,1.61-1.36,2.95-2.95,2.95h-2.82
				c-1.56,0-2.97-1.34-2.97-2.95v-2.99c0-1.65,1.45-2.95,3.01-2.95H900.35z M900.7,606.14c0-0.73-0.53-1.25-1.25-1.25h-0.95
				c-0.7,0-1.36,0.53-1.36,1.25v1.8c0,0.73,0.66,1.28,1.36,1.28h0.95c0.73,0,1.25-0.55,1.25-1.28V606.14z M897.53,620.45v-7.22h2.82
				v1.52h7.04v-1.52h2.64v7.22H897.53z M907.39,618.51v-1.72h-7.04v1.72H907.39z M910.03,601.74v10.3h-2.73v-3.63h-2.95v-2.57h2.95
				v-4.09H910.03z"/>
			<path class="st3" d="M930.29,611.38h-6.54v1.21h4.88v4.88h-10.3v0.9h10.52v1.92h-13.11v-4.93h9.77v-1.01h-9.77v-1.76h5.26v-1.21
				h-6.58v-2.02h15.86V611.38z M928.53,601.74v6.36h-12.56v-6.36H928.53z M926.33,604.01h-8.12v1.83h8.12V604.01z"/>
		</g>
	</g>
	<g>
		<g class="st2">
			<path class="st3" d="M1024.37,579.59v7.24h5.59v2.84h-8.41v-12.67h7.96v2.6H1024.37z M1035.86,575.47h2.68v18.17h-2.68v-9.31
				h-1.83l0.04,9.31h-2.79v-18.17h2.75v6.07h1.83V575.47z"/>
			<path class="st3" d="M1049.5,576.6h3.54v2.02h-1.58c0.51,0.53,0.81,1.25,0.81,2.02v2.29c0,1.85-1.36,3.17-2.93,3.17h-2.73
				c-1.56,0-2.95-1.3-2.95-2.95v-2.51c0-0.77,0.31-1.5,0.81-2.02h-1.54v-2.02h3.54v-1.25h3.01V576.6z M1044.44,587.33h13.25v2.51
				c-0.07,1.08-0.24,2.09-0.48,2.82c-0.13,0.42-0.26,0.81-0.42,1.19h-2.71c0.51-0.97,0.75-1.96,0.86-2.73
				c0.07-0.44,0.09-0.86,0.09-1.28h-10.58V587.33z M1049.72,581.22c0-0.7-0.53-1.23-1.25-1.23h-0.92c-0.7,0-1.34,0.53-1.34,1.23
				v1.41c0,0.73,0.42,1.25,1.12,1.25h1.23c0.73,0,1.17-0.53,1.17-1.25V581.22z M1060.08,579.08v2.6h-2.49v3.85h-2.62v-10.21h2.62
				v3.76H1060.08z"/>
			<path class="st3" d="M1079.02,591.18h-15.64v-2.55h2.84v-4.27h2.27v4.27h1.98v-4.27h2.2v4.27h6.36V591.18z M1078.03,576.46v2.18
				c0,3.1-0.51,5.41-1.01,6.93c-0.29,0.9-0.64,1.67-1.01,2.29h-2.86c1.83-3.41,1.91-7.2,1.74-8.76h-10.28v-2.64H1078.03z"/>
			<path class="st3" d="M1098.4,580.51c0,2.75,0.86,4.64,3.43,6.29v2.97c-0.59-0.29-1.17-0.62-1.76-1.01
				c-0.99-0.68-2.24-1.69-3.21-3.17c-0.86,1.47-2.16,2.49-3.23,3.17c-0.64,0.4-1.28,0.73-1.96,1.01v-2.95
				c2.62-1.32,3.7-3.41,3.7-6.31v-3.65h3.04V580.51z M1107.03,593.85h-3.12v-18.29h3.12V593.85z"/>
			<path class="st3" d="M1120.2,576.68v2.05c0.02,2.09-0.55,3.87-1.14,5.13c-0.35,0.75-0.75,1.41-1.19,2h-3.04
				c2.07-2.82,2.31-5.39,2.31-6.75h-6.16v-2.42H1120.2z M1112.39,587.33h13.25v2.51c-0.07,1.08-0.24,2.09-0.48,2.82
				c-0.13,0.42-0.26,0.81-0.42,1.19h-2.71c0.51-0.97,0.75-1.96,0.86-2.73c0.07-0.44,0.09-0.86,0.09-1.28h-10.58V587.33z
				 M1128.04,579.08v2.6h-2.49v3.85h-2.62v-10.21h2.62v3.76H1128.04z"/>
			<path class="st3" d="M1134.61,579.85v7.35h7.11v2.77h-9.95v-12.7h9.42v2.58H1134.61z M1146.71,593.8h-2.99v-18.46h2.99V593.8z"/>
			<path class="st3" d="M1157.76,579.52c-0.09,1.32-0.15,6.38,3.48,7.61v2.55c-0.73-0.18-1.43-0.44-2.07-0.79
				c-1.1-0.57-2.33-1.63-2.86-3.23c-0.55,1.76-1.76,2.73-2.88,3.32c-0.64,0.33-1.34,0.57-2.07,0.7v-2.55
				c3.63-1.23,3.48-6.29,3.39-7.61h-3.41v-2.46h9.95v2.46H1157.76z M1166.05,581.53h2.75v2.84h-2.75v9.5h-3.06v-18.28h3.06V581.53z"
				/>
			<path class="st3" d="M1181.47,578.86v3.17c0,1.76-1.41,3.19-3.08,3.19h-2.99c-1.67,0-3.19-1.43-3.19-3.19v-3.17
				c0-1.78,1.52-3.17,3.19-3.17h2.99C1180.06,575.69,1181.47,577.08,1181.47,578.86z M1174.19,593.63v-6.27h3.01v3.59h9.95v2.68
				H1174.19z M1178.74,579.48c0-0.77-0.57-1.34-1.34-1.34h-1.03c-0.77,0-1.43,0.57-1.43,1.34v1.91c0,0.79,0.66,1.36,1.43,1.36h1.03
				c0.77,0,1.34-0.57,1.34-1.36V579.48z M1187.15,587.09h-2.93v-11.77h2.93V587.09z"/>
		</g>
		<g class="st2">
			<path class="st3" d="M1061.75,603.17v2.68c0,5.79-2.09,8.12-2.4,8.49h3.83v-12.63h3.08v5.13h2.07v2.9h-2.07v10.5h-3.08v-3.32
				h-13.4v-2.57h4v-3.52h2.35v3.52h0.48c1.69-3.23,1.87-7.06,1.87-8.58h-7.55v-2.6H1061.75z"/>
			<path class="st3" d="M1078.32,605.75c-0.09,1.3-0.26,7.02,3.41,8.25v2.57c-0.7-0.13-1.36-0.37-2-0.73
				c-1.08-0.59-2.33-1.58-2.97-3.34c-0.53,1.65-1.74,2.64-2.79,3.26c-0.64,0.37-1.3,0.64-2,0.81V614c3.65-1.25,3.35-6.95,3.26-8.25
				h-3.48v-2.35H1082v2.35H1078.32z M1083.03,601.72h2.68v18.53h-2.68v-9.15h-2.49v-3.12h2.49V601.72z M1089.65,601.72v18.53h-2.64
				v-18.53H1089.65z"/>
			<path class="st3" d="M1113.96,602.86v2.55h-3.98c0.42,1.14,1.32,2.13,2.18,2.84c0.48,0.42,1.01,0.79,1.56,1.12v2.71
				c-1.3-0.42-2.46-1.39-3.34-2.27c-0.51-0.51-0.99-1.08-1.43-1.67c-0.73,1.39-2.02,2.38-3.15,3.01c-0.66,0.37-1.34,0.7-2.05,0.95
				v-2.55c2.55-1.25,3.65-3.1,4.05-4.14h-4.29v-2.55H1113.96z M1105.03,613.73h13.25v2.51c-0.07,1.08-0.24,2.09-0.48,2.82
				c-0.13,0.42-0.26,0.81-0.42,1.19h-2.71c0.51-0.97,0.75-1.96,0.86-2.73c0.07-0.44,0.09-0.86,0.09-1.28h-10.58V613.73z
				 M1120.67,605.48v2.6h-2.49v3.85h-2.62v-10.21h2.62v3.76H1120.67z"/>
			<path class="st3" d="M1129.87,602.6c1.58,0,2.95,1.3,2.95,2.95v2.99c0,1.61-1.37,2.95-2.95,2.95h-2.82
				c-1.56,0-2.97-1.34-2.97-2.95v-2.99c0-1.65,1.45-2.95,3.01-2.95H1129.87z M1130.22,606.14c0-0.73-0.53-1.25-1.25-1.25h-0.95
				c-0.71,0-1.37,0.53-1.37,1.25v1.8c0,0.73,0.66,1.28,1.37,1.28h0.95c0.73,0,1.25-0.55,1.25-1.28V606.14z M1127.05,620.44v-7.22
				h2.82v1.52h7.04v-1.52h2.64v7.22H1127.05z M1136.91,618.51v-1.72h-7.04v1.72H1136.91z M1139.55,601.74v10.3h-2.73v-3.63h-2.95
				v-2.57h2.95v-4.09H1139.55z"/>
			<path class="st3" d="M1159.81,611.38h-6.54v1.21h4.88v4.88h-10.3v0.9h10.52v1.92h-13.11v-4.93h9.77v-1.01h-9.77v-1.76h5.26v-1.21
				h-6.58v-2.02h15.86V611.38z M1158.05,601.74v6.36h-12.56v-6.36H1158.05z M1155.85,604.01h-8.12v1.83h8.12V604.01z"/>
		</g>
	</g>
</g>
</svg>
