<?xml version="1.0" encoding="utf-8"?>
<!-- Generator: Adobe Illustrator 26.2.1, SVG Export Plug-In . SVG Version: 6.00 Build 0)  -->
<svg version="1.1" id="Layer_1" xmlns="http://www.w3.org/2000/svg" xmlns:xlink="http://www.w3.org/1999/xlink" x="0px" y="0px"
	 viewBox="0 0 170 230" style="enable-background:new 0 0 170 230;" xml:space="preserve">
<style type="text/css">
	.st0{fill:#856A60;}
	.st1{fill:#E67900;}
	.st2{fill:#F18815;}
	.st3{fill:#F39325;}
	.st4{fill:#FFDA6F;}
	.st5{fill:#CA4C36;}
	.st6{fill:#FCC978;}
	.st7{fill:#87BE73;}
	.st8{fill:#FFFFFF;}
</style>
<g>
	<g>
		<g>
			<g>
				<g>
					<path class="st0" d="M40.78,89.76l11.57-13.57c1.3-1.6,2.12-3.9,2.12-5.06l-0.04-1.23c0-1.6-2.08-3.2-3.64-3.2h-1
						c-1.6,0-3.35,1.6-3.35,3.2v0.71h-4.35v-1c0-4.16,3.53-7.33,8.29-7.33c6.58,0,9.59,3.9,9.59,8.11c0,2.86-0.59,4.65-2.53,6.88
						c-1.15,1.3-3.23,3.46-6.99,7.21h9.07v5.28L40.78,89.76L40.78,89.76z"/>
					<path class="st0" d="M73.61,89.76c-3.68,0-6.99-1.75-6.99-6.66V69.3c0-4.95,4.95-6.69,8.25-6.69h1.71
						c4.02,0,8.25,1.78,8.25,6.73v13.42c0,4.05-2.75,6.99-7.36,6.99L73.61,89.76L73.61,89.76z M76.11,84.77
						c1.64,0,2.12-1.64,2.12-3.27V69.3c0-1.67-0.52-3.35-2.08-3.35h-1.64c-1.64,0-2.94,1.67-2.94,3.35v12.2
						c0,1.64-0.33,3.27,2.97,3.27H76.11z"/>
					<path class="st0" d="M101.31,62.61v27.15h-6.69V67.67h-3.46v-5.06C91.16,62.61,101.31,62.61,101.31,62.61z"/>
					<path class="st0" d="M125.7,83.1c0,3.42-2.49,6.99-7.36,7.1h-1.67c-0.85,0-1.67,0-1.78-0.04c-2.98-0.3-5.91-2.53-6.69-5.62
						c-0.74-2.68-0.08-5.73,1.08-8.11l7.4-13.83h5.76l-4.57,10.49c4.76,0.11,7.85,2.97,7.85,7.73v2.28
						C125.72,83.1,125.7,83.1,125.7,83.1z M121.83,81.35c0-1.78-1.08-3.5-3.42-3.5l-1.82-0.04c-2.12,0-3.57,1.6-3.57,3.57v1.23
						c0,1.93,1.75,3.27,3.38,3.27h1.97c1.97,0,3.46-1.41,3.46-3.16V81.35z"/>
				</g>
			</g>
		</g>
		<g>
			<g>
				<rect x="45.97" y="4.61" class="st1" width="81.37" height="20.85"/>
				<rect x="33.25" y="14.12" class="st2" width="106.8" height="20.85"/>
				<rect x="23.08" y="24.15" class="st3" width="127.14" height="20.85"/>
			</g>
			<rect x="50.91" y="16.94" class="st4" width="5.09" height="5.09"/>
			<rect x="99.84" y="11.22" class="st4" width="5.09" height="5.09"/>
			<rect x="110.33" y="22.16" class="st4" width="5.09" height="5.09"/>
			<rect x="116.33" y="36.17" class="st4" width="5.09" height="5.09"/>
			<rect x="91.65" y="31.3" class="st4" width="3.05" height="3.05"/>
			<rect x="39.36" y="33.25" class="st4" width="3.05" height="3.05"/>
			<rect x="129.37" y="19.06" class="st4" width="3.05" height="3.05"/>
		</g>
		<g>
			<g>
				<rect x="45.97" y="125.42" class="st1" width="81.37" height="19.02"/>
				<rect x="33.26" y="119.49" class="st2" width="106.8" height="19.02"/>
				<rect x="23.09" y="116.64" class="st3" width="127.14" height="13.94"/>
			</g>
		</g>
		<rect x="23.08" y="49.33" class="st5" width="127.14" height="5.09"/>
		<rect x="23.08" y="96.66" class="st6" width="127.14" height="5.09"/>
		<rect x="23.08" y="106.65" class="st7" width="127.14" height="5.09"/>
	</g>
	<g>
		<g>
			<path class="st0" d="M45.63,200.71c-2.49-2.55-3.17-5.39-3.17-8.8c0-2.82,1.1-7.28,3.39-9.75h2.11c-1.67,3.06-2.44,6.29-2.44,9.7
				c0,3.32,0.77,5.92,2.29,8.84L45.63,200.71L45.63,200.71z"/>
			<path class="st0" d="M68.88,193.36h-7.13v6.16h-2.99v-6.16h-6.73v-2.73h16.85V193.36z M53.5,181.41h13.99v2.33H62.3
				c0.95,1.8,3.28,3.08,4.91,3.65v2.02c-3.15-0.4-5.68-2.24-6.8-4.03c-1.01,2.07-4.71,3.81-6.84,4.33v-2.24
				c2.68-1.06,4.4-2.79,4.82-3.74h-4.88L53.5,181.41L53.5,181.41z"/>
			<path class="st0" d="M73.1,200.71c1.47-2.95,2.29-5.5,2.29-8.84c0-3.41-0.77-6.65-2.44-9.7h2.11c2.29,2.46,3.39,6.93,3.39,9.75
				c0,3.37-0.7,6.29-3.17,8.8L73.1,200.71L73.1,200.71z"/>
			<path class="st0" d="M96.12,182.18l-4.95,10.34v5.68H86.9v-5.92l-4.88-10.1h3.92l3.3,7.44l3.12-7.44L96.12,182.18L96.12,182.18z"
				/>
			<path class="st0" d="M99.94,182.18h6.53c4.14,0,5.21,2,5.21,4.11c0,2.31-1.34,2.99-2.05,3.34c1.96,0.77,2.55,2.02,2.49,3.79
				c-0.11,3.21-2.55,4.77-6.45,4.77h-5.74L99.94,182.18L99.94,182.18z M103.57,188.72h3.01c1.72,0,3.04-0.75,3.04-2.35
				c0-1.43-1.14-2.16-3.15-2.16h-2.9V188.72L103.57,188.72z M103.66,195.54h3.19c2,0,2.93-1.23,2.93-2.46
				c0-1.65-1.28-2.44-2.75-2.44h-3.37V195.54z"/>
			<path class="st0" d="M122.73,192.31h-3.12v5.9h-3.5v-16.06h6.6c2.09,0,5.68,0.53,5.68,5.5
				C128.39,191.1,126.03,192.24,122.73,192.31z M122.4,190.24c1.74,0,2.73-0.79,2.73-2.55s-0.75-2.6-2.53-2.62h-2.99v5.17H122.4z"/>
			<path class="st0" d="M5.22,221.7c-1.76,0-3.78-0.9-3.78-3.74v-5.35c0-2.31,1.08-4.12,4.25-4.12h1.25c2.4,0,4.16,1.41,4.16,4.14
				v5.09c0,2.49-1.98,3.98-3.72,3.98L5.22,221.7L5.22,221.7z M6.65,219.43c1.08,0,1.8-1.08,1.8-1.94v-4.45
				c0-0.97-0.48-2.22-1.8-2.22H5.97c-1.32,0-1.87,1.03-1.87,2v4.55c0,0.7,0.11,2.05,1.87,2.05L6.65,219.43
				C6.65,219.42,6.65,219.43,6.65,219.43z M18.4,213.43v2.84h-2.46v9.53H13.1v-18.33h2.84v5.96H18.4L18.4,213.43z"/>
			<path class="st0" d="M38.16,223.97H21.7v-2.49h16.46V223.97z M23.11,213.1h10.32v-1.72H23.11v-2.53H36.4v6.4H26.08v1.47H36.4
				v2.29H23.11V213.1z"/>
			<path class="st0" d="M48.93,208.98h2.6v12.83h-9.2v-12.83h2.75v3.61h3.85L48.93,208.98L48.93,208.98z M45.08,218.95h3.85v-3.5
				h-3.85V218.95z M56.78,213.65h2.55v2.84h-2.55V226h-2.82v-18.29h2.82V213.65z"/>
			<path class="st0" d="M66.28,222.05c-1.56,0-3.39-1.03-3.39-3.85v-5.24c0-2.29,1.5-4.05,4.05-4.05h1.96
				c2.44,0,3.96,1.83,3.96,4.11v5.3c0,2.22-1.47,3.72-3.01,3.72h-3.57V222.05z M68.48,219.78c1.1,0,1.61-1.06,1.61-1.89v-4.66
				c0-0.95-0.73-1.78-1.61-1.78h-1.1c-0.88,0-1.69,0.84-1.69,1.78v4.66c0,1.43,0.57,1.89,1.69,1.89H68.48z M77.66,225.97h-2.95
				v-18.5h2.95V225.97z"/>
			<path class="st0" d="M82.02,224.03v-2.68h16.61v2.68H82.02z M96.19,208.19v2.49H84.11v-2.49H96.19z M86.86,216.66h9.57v2.49
				H84.11v-6.84h12.08v2.49h-9.33V216.66z"/>
			<path class="st0" d="M122.28,208.59v2.55h-3.98c0.42,1.14,1.32,2.13,2.18,2.84c0.48,0.42,1.01,0.79,1.56,1.12v2.71
				c-1.3-0.42-2.46-1.39-3.34-2.27c-0.51-0.51-0.99-1.08-1.43-1.67c-0.73,1.39-2.02,2.38-3.15,3.01c-0.66,0.37-1.34,0.7-2.05,0.95
				v-2.55c2.55-1.25,3.65-3.1,4.05-4.14h-4.29v-2.55L122.28,208.59L122.28,208.59z M113.35,219.45h13.25v2.51
				c-0.07,1.08-0.24,2.09-0.48,2.82c-0.13,0.42-0.26,0.81-0.42,1.19h-2.71c0.51-0.97,0.75-1.96,0.86-2.73
				c0.07-0.44,0.09-0.86,0.09-1.28h-10.58L113.35,219.45L113.35,219.45L113.35,219.45z M128.99,211.2v2.6h-2.49v3.85h-2.62v-10.21
				h2.62v3.76H128.99L128.99,211.2z"/>
			<path class="st0" d="M138.13,208.32c1.58,0,2.95,1.3,2.95,2.95v2.99c0,1.61-1.36,2.95-2.95,2.95h-2.82
				c-1.56,0-2.97-1.34-2.97-2.95v-2.99c0-1.65,1.45-2.95,3.01-2.95H138.13z M138.48,211.86c0-0.73-0.53-1.25-1.25-1.25h-0.95
				c-0.7,0-1.36,0.53-1.36,1.25v1.8c0,0.73,0.66,1.28,1.36,1.28h0.95c0.73,0,1.25-0.55,1.25-1.28V211.86z M135.31,226.17v-7.22h2.82
				v1.52h7.04v-1.52h2.64v7.22H135.31z M145.17,224.23v-1.72h-7.04v1.72H145.17z M147.81,207.46v10.3h-2.73v-3.63h-2.95v-2.57h2.95
				v-4.09L147.81,207.46L147.81,207.46z"/>
			<path class="st0" d="M167.78,217.1h-6.54v1.21h4.88v4.88h-10.3v0.9h10.52V226h-13.11v-4.93H163v-1.01h-9.77v-1.76h5.26v-1.21
				h-6.58v-2.02h15.86L167.78,217.1L167.78,217.1z M166.02,207.46v6.36h-12.56v-6.36H166.02z M163.82,209.73h-8.12v1.83h8.12V209.73
				z"/>
		</g>
	</g>
	<g>
		<g>
			<rect x="106.08" y="-15.01" class="st8" width="36.4" height="36.4"/>
			<rect x="91.27" y="2.56" class="st8" width="18.2" height="18.2"/>
			<rect x="117.29" y="19.49" class="st8" width="13.98" height="13.98"/>
			<rect x="99.21" y="11.66" class="st8" width="18.2" height="18.2"/>
			<rect x="94.89" y="15.96" class="st8" width="11.39" height="11.39"/>
		</g>
		<rect x="127.37" y="17.93" class="st8" width="13.87" height="12.45"/>
	</g>
</g>
</svg>
